<svg xmlns="http://www.w3.org/2000/svg" xmlns:xlink="http://www.w3.org/1999/xlink" zoomAndPan="magnify" preserveAspectRatio="xMidYMid meet" version="1.0" viewBox="29.1 147.53 292.29 57.41"><defs><g/><clipPath id="8a0c520ea8"><path d="M 29.101562 150.941406 L 70 150.941406 L 70 204.941406 L 29.101562 204.941406 Z M 29.101562 150.941406 " clip-rule="nonzero"/></clipPath><clipPath id="5dd2c40759"><path d="M 50 150.941406 L 117.601562 150.941406 L 117.601562 204.941406 L 50 204.941406 Z M 50 150.941406 " clip-rule="nonzero"/></clipPath></defs><g fill="#d9d9d9" fill-opacity="1"><g transform="translate(118.82566, 203.245417)"><g><path d="M 3.234375 -27.21875 L 15.59375 -27.21875 C 18.550781 -27.21875 21.160156 -26.65625 23.421875 -25.53125 C 25.691406 -24.40625 27.457031 -22.816406 28.71875 -20.765625 C 29.976562 -18.710938 30.609375 -16.328125 30.609375 -13.609375 C 30.609375 -10.890625 29.976562 -8.503906 28.71875 -6.453125 C 27.457031 -4.410156 25.691406 -2.820312 23.421875 -1.6875 C 21.160156 -0.5625 18.550781 0 15.59375 0 L 3.234375 0 Z M 15.28125 -5.171875 C 18.007812 -5.171875 20.179688 -5.925781 21.796875 -7.4375 C 23.421875 -8.957031 24.234375 -11.015625 24.234375 -13.609375 C 24.234375 -16.203125 23.421875 -18.253906 21.796875 -19.765625 C 20.179688 -21.285156 18.007812 -22.046875 15.28125 -22.046875 L 9.53125 -22.046875 L 9.53125 -5.171875 Z M 15.28125 -5.171875 "/></g></g></g><g fill="#d9d9d9" fill-opacity="1"><g transform="translate(148.463258, 203.245417)"><g><path d="M 24.3125 -5.0625 L 24.3125 0 L 3.234375 0 L 3.234375 -27.21875 L 23.796875 -27.21875 L 23.796875 -22.171875 L 9.484375 -22.171875 L 9.484375 -16.25 L 22.125 -16.25 L 22.125 -11.359375 L 9.484375 -11.359375 L 9.484375 -5.0625 Z M 24.3125 -5.0625 "/></g></g></g><g fill="#d9d9d9" fill-opacity="1"><g transform="translate(172.0722, 203.245417)"><g><path d="M 28.203125 -27.21875 L 28.203125 0 L 23.015625 0 L 9.453125 -16.53125 L 9.453125 0 L 3.234375 0 L 3.234375 -27.21875 L 8.4375 -27.21875 L 21.96875 -10.6875 L 21.96875 -27.21875 Z M 28.203125 -27.21875 "/></g></g></g><g fill="#d9d9d9" fill-opacity="1"><g transform="translate(201.009694, 203.245417)"><g><path d="M 16.40625 0.46875 C 13.582031 0.46875 11.035156 -0.140625 8.765625 -1.359375 C 6.492188 -2.578125 4.71875 -4.253906 3.4375 -6.390625 C 2.15625 -8.535156 1.515625 -10.941406 1.515625 -13.609375 C 1.515625 -16.285156 2.15625 -18.691406 3.4375 -20.828125 C 4.71875 -22.960938 6.492188 -24.640625 8.765625 -25.859375 C 11.035156 -27.078125 13.582031 -27.6875 16.40625 -27.6875 C 19.238281 -27.6875 21.78125 -27.078125 24.03125 -25.859375 C 26.289062 -24.640625 28.066406 -22.960938 29.359375 -20.828125 C 30.660156 -18.691406 31.3125 -16.285156 31.3125 -13.609375 C 31.3125 -10.941406 30.660156 -8.535156 29.359375 -6.390625 C 28.066406 -4.253906 26.289062 -2.578125 24.03125 -1.359375 C 21.78125 -0.140625 19.238281 0.46875 16.40625 0.46875 Z M 16.40625 -4.90625 C 18.019531 -4.90625 19.472656 -5.269531 20.765625 -6 C 22.066406 -6.738281 23.082031 -7.769531 23.8125 -9.09375 C 24.550781 -10.414062 24.921875 -11.921875 24.921875 -13.609375 C 24.921875 -15.296875 24.550781 -16.800781 23.8125 -18.125 C 23.082031 -19.445312 22.066406 -20.476562 20.765625 -21.21875 C 19.472656 -21.957031 18.019531 -22.328125 16.40625 -22.328125 C 14.800781 -22.328125 13.347656 -21.957031 12.046875 -21.21875 C 10.753906 -20.476562 9.738281 -19.445312 9 -18.125 C 8.257812 -16.800781 7.890625 -15.296875 7.890625 -13.609375 C 7.890625 -11.921875 8.257812 -10.414062 9 -9.09375 C 9.738281 -7.769531 10.753906 -6.738281 12.046875 -6 C 13.347656 -5.269531 14.800781 -4.90625 16.40625 -4.90625 Z M 16.40625 -4.90625 "/></g></g></g><g fill="#d9d9d9" fill-opacity="1"><g transform="translate(231.347396, 203.245417)"><g><path d="M 9.53125 -22.171875 L 9.53125 -14.96875 L 22.125 -14.96875 L 22.125 -9.921875 L 9.53125 -9.921875 L 9.53125 0 L 3.234375 0 L 3.234375 -27.21875 L 23.796875 -27.21875 L 23.796875 -22.171875 Z M 9.53125 -22.171875 "/></g></g></g><g fill="#d9d9d9" fill-opacity="1"><g transform="translate(253.711714, 203.245417)"><g><path d="M 20.578125 0 L 15.328125 -7.578125 L 9.53125 -7.578125 L 9.53125 0 L 3.234375 0 L 3.234375 -27.21875 L 15.015625 -27.21875 C 17.421875 -27.21875 19.507812 -26.816406 21.28125 -26.015625 C 23.0625 -25.210938 24.429688 -24.070312 25.390625 -22.59375 C 26.347656 -21.113281 26.828125 -19.363281 26.828125 -17.34375 C 26.828125 -15.320312 26.34375 -13.578125 25.375 -12.109375 C 24.40625 -10.648438 23.023438 -9.53125 21.234375 -8.75 L 27.34375 0 Z M 20.453125 -17.34375 C 20.453125 -18.875 19.957031 -20.046875 18.96875 -20.859375 C 17.988281 -21.679688 16.550781 -22.09375 14.65625 -22.09375 L 9.53125 -22.09375 L 9.53125 -12.59375 L 14.65625 -12.59375 C 16.550781 -12.59375 17.988281 -13.007812 18.96875 -13.84375 C 19.957031 -14.675781 20.453125 -15.84375 20.453125 -17.34375 Z M 20.453125 -17.34375 "/></g></g></g><g fill="#d9d9d9" fill-opacity="1"><g transform="translate(279.809906, 203.245417)"><g><path d="M 3.234375 -27.21875 L 9.53125 -27.21875 L 9.53125 0 L 3.234375 0 Z M 3.234375 -27.21875 "/></g></g></g><g fill="#d9d9d9" fill-opacity="1"><g transform="translate(290.078025, 203.245417)"><g><path d="M 16.40625 0.46875 C 13.582031 0.46875 11.035156 -0.140625 8.765625 -1.359375 C 6.492188 -2.578125 4.71875 -4.253906 3.4375 -6.390625 C 2.15625 -8.535156 1.515625 -10.941406 1.515625 -13.609375 C 1.515625 -16.285156 2.15625 -18.691406 3.4375 -20.828125 C 4.71875 -22.960938 6.492188 -24.640625 8.765625 -25.859375 C 11.035156 -27.078125 13.582031 -27.6875 16.40625 -27.6875 C 19.238281 -27.6875 21.78125 -27.078125 24.03125 -25.859375 C 26.289062 -24.640625 28.066406 -22.960938 29.359375 -20.828125 C 30.660156 -18.691406 31.3125 -16.285156 31.3125 -13.609375 C 31.3125 -10.941406 30.660156 -8.535156 29.359375 -6.390625 C 28.066406 -4.253906 26.289062 -2.578125 24.03125 -1.359375 C 21.78125 -0.140625 19.238281 0.46875 16.40625 0.46875 Z M 16.40625 -4.90625 C 18.019531 -4.90625 19.472656 -5.269531 20.765625 -6 C 22.066406 -6.738281 23.082031 -7.769531 23.8125 -9.09375 C 24.550781 -10.414062 24.921875 -11.921875 24.921875 -13.609375 C 24.921875 -15.296875 24.550781 -16.800781 23.8125 -18.125 C 23.082031 -19.445312 22.066406 -20.476562 20.765625 -21.21875 C 19.472656 -21.957031 18.019531 -22.328125 16.40625 -22.328125 C 14.800781 -22.328125 13.347656 -21.957031 12.046875 -21.21875 C 10.753906 -20.476562 9.738281 -19.445312 9 -18.125 C 8.257812 -16.800781 7.890625 -15.296875 7.890625 -13.609375 C 7.890625 -11.921875 8.257812 -10.414062 9 -9.09375 C 9.738281 -7.769531 10.753906 -6.738281 12.046875 -6 C 13.347656 -5.269531 14.800781 -4.90625 16.40625 -4.90625 Z M 16.40625 -4.90625 "/></g></g></g><g clip-path="url(#8a0c520ea8)"><path fill="#d9d9d9" d="M 59.570312 176.914062 L 69.25 176.914062 L 59.570312 150.960938 L 49.203125 150.960938 L 39.757812 176.289062 L 29.097656 204.875 L 38.777344 204.875 L 49.4375 176.289062 L 54.386719 163.015625 L 59.570312 176.914062 " fill-opacity="1" fill-rule="nonzero"/></g><g clip-path="url(#5dd2c40759)"><path fill="#db5d06" d="M 90.773438 150.960938 L 65.425781 150.960938 L 79.929688 189.839844 L 89.605469 189.839844 L 78.488281 160.027344 L 90.773438 160.027344 C 100.65625 160.027344 108.664062 168.039062 108.664062 177.917969 C 108.664062 187.796875 100.65625 195.804688 90.773438 195.804688 L 76.292969 195.804688 L 73.660156 188.746094 L 71.472656 182.882812 L 53.730469 182.882812 L 50.699219 191.949219 L 65.179688 191.949219 L 69.996094 204.875 L 91.21875 204.875 L 91.214844 204.867188 C 105.898438 204.632812 117.730469 192.65625 117.730469 177.917969 C 117.730469 163.03125 105.664062 150.960938 90.773438 150.960938 " fill-opacity="1" fill-rule="nonzero"/></g><g fill="#d9d9d9" fill-opacity="1"><g transform="translate(123.360582, 169.610218)"><g><path d="M 16.875 -4.65625 L 6.796875 -4.65625 L 4.875 0 L -0.28125 0 L 9.390625 -21.71875 L 14.359375 -21.71875 L 24.0625 0 L 18.796875 0 Z M 15.296875 -8.46875 L 11.84375 -16.78125 L 8.40625 -8.46875 Z M 15.296875 -8.46875 "/></g></g></g><g fill="#d9d9d9" fill-opacity="1"><g transform="translate(145.136263, 169.610218)"><g><path d="M 12.21875 0.375 C 9.113281 0.375 6.695312 -0.484375 4.96875 -2.203125 C 3.25 -3.921875 2.390625 -6.367188 2.390625 -9.546875 L 2.390625 -21.71875 L 7.40625 -21.71875 L 7.40625 -9.734375 C 7.40625 -5.847656 9.019531 -3.90625 12.25 -3.90625 C 13.820312 -3.90625 15.019531 -4.375 15.84375 -5.3125 C 16.675781 -6.257812 17.09375 -7.734375 17.09375 -9.734375 L 17.09375 -21.71875 L 22.046875 -21.71875 L 22.046875 -9.546875 C 22.046875 -6.367188 21.179688 -3.921875 19.453125 -2.203125 C 17.734375 -0.484375 15.320312 0.375 12.21875 0.375 Z M 12.21875 0.375 "/></g></g></g><g fill="#d9d9d9" fill-opacity="1"><g transform="translate(167.594378, 169.610218)"><g><path d="M 9.703125 0.375 C 7.992188 0.375 6.335938 0.140625 4.734375 -0.328125 C 3.128906 -0.796875 1.84375 -1.398438 0.875 -2.140625 L 2.578125 -5.921875 C 3.503906 -5.242188 4.609375 -4.695312 5.890625 -4.28125 C 7.171875 -3.863281 8.453125 -3.65625 9.734375 -3.65625 C 11.160156 -3.65625 12.210938 -3.867188 12.890625 -4.296875 C 13.578125 -4.722656 13.921875 -5.285156 13.921875 -5.984375 C 13.921875 -6.503906 13.71875 -6.929688 13.3125 -7.265625 C 12.914062 -7.609375 12.398438 -7.882812 11.765625 -8.09375 C 11.140625 -8.300781 10.289062 -8.53125 9.21875 -8.78125 C 7.5625 -9.164062 6.203125 -9.554688 5.140625 -9.953125 C 4.085938 -10.347656 3.179688 -10.976562 2.421875 -11.84375 C 1.671875 -12.71875 1.296875 -13.878906 1.296875 -15.328125 C 1.296875 -16.585938 1.632812 -17.726562 2.3125 -18.75 C 3 -19.769531 4.03125 -20.578125 5.40625 -21.171875 C 6.78125 -21.773438 8.460938 -22.078125 10.453125 -22.078125 C 11.835938 -22.078125 13.191406 -21.910156 14.515625 -21.578125 C 15.835938 -21.253906 16.992188 -20.78125 17.984375 -20.15625 L 16.4375 -16.34375 C 14.4375 -17.476562 12.429688 -18.046875 10.421875 -18.046875 C 9.015625 -18.046875 7.972656 -17.816406 7.296875 -17.359375 C 6.628906 -16.910156 6.296875 -16.3125 6.296875 -15.5625 C 6.296875 -14.820312 6.679688 -14.269531 7.453125 -13.90625 C 8.234375 -13.550781 9.421875 -13.195312 11.015625 -12.84375 C 12.660156 -12.445312 14.007812 -12.050781 15.0625 -11.65625 C 16.125 -11.269531 17.03125 -10.648438 17.78125 -9.796875 C 18.539062 -8.953125 18.921875 -7.804688 18.921875 -6.359375 C 18.921875 -5.117188 18.570312 -3.984375 17.875 -2.953125 C 17.1875 -1.929688 16.148438 -1.117188 14.765625 -0.515625 C 13.378906 0.078125 11.691406 0.375 9.703125 0.375 Z M 9.703125 0.375 "/></g></g></g><g fill="#db5d06" fill-opacity="1"><g transform="translate(185.39964, 169.610218)"><g><path d="M 7.078125 -17.609375 L 0.125 -17.609375 L 0.125 -21.71875 L 19.046875 -21.71875 L 19.046875 -17.609375 L 12.09375 -17.609375 L 12.09375 0 L 7.078125 0 Z M 7.078125 -17.609375 "/></g></g></g><g fill="#db5d06" fill-opacity="1"><g transform="translate(202.584421, 169.610218)"><g><path d="M 2.578125 -21.71875 L 7.59375 -21.71875 L 7.59375 0 L 2.578125 0 Z M 2.578125 -21.71875 "/></g></g></g><g fill="#db5d06" fill-opacity="1"><g transform="translate(210.773528, 169.610218)"><g><path d="M 22.484375 -21.71875 L 22.484375 0 L 18.359375 0 L 7.53125 -13.1875 L 7.53125 0 L 2.578125 0 L 2.578125 -21.71875 L 6.734375 -21.71875 L 17.53125 -8.53125 L 17.53125 -21.71875 Z M 22.484375 -21.71875 "/></g></g></g></svg>