<svg xmlns="http://www.w3.org/2000/svg" xmlns:xlink="http://www.w3.org/1999/xlink" zoomAndPan="magnify" preserveAspectRatio="xMidYMid meet" version="1.0" viewBox="5.18 173.28 363.26 54"><defs><g/><clipPath id="57139077b3"><path d="M 5.1875 173.28125 L 46 173.28125 L 46 227.28125 L 5.1875 227.28125 Z M 5.1875 173.28125 " clip-rule="nonzero"/></clipPath><clipPath id="9464b0a3c4"><path d="M 26 173.28125 L 93.6875 173.28125 L 93.6875 227.28125 L 26 227.28125 Z M 26 173.28125 " clip-rule="nonzero"/></clipPath></defs><g fill="#d9d9d9" fill-opacity="1"><g transform="translate(99.491312, 196.868203)"><g><path d="M 16.28125 -4.484375 L 6.5625 -4.484375 L 4.703125 0 L -0.265625 0 L 9.078125 -20.953125 L 13.859375 -20.953125 L 23.234375 0 L 18.140625 0 Z M 14.765625 -8.171875 L 11.4375 -16.203125 L 8.109375 -8.171875 Z M 14.765625 -8.171875 "/></g></g></g><g fill="#d9d9d9" fill-opacity="1"><g transform="translate(120.494541, 196.868203)"><g><path d="M 11.796875 0.359375 C 8.804688 0.359375 6.476562 -0.46875 4.8125 -2.125 C 3.144531 -3.78125 2.3125 -6.144531 2.3125 -9.21875 L 2.3125 -20.953125 L 7.15625 -20.953125 L 7.15625 -9.40625 C 7.15625 -5.644531 8.710938 -3.765625 11.828125 -3.765625 C 13.335938 -3.765625 14.492188 -4.21875 15.296875 -5.125 C 16.097656 -6.039062 16.5 -7.46875 16.5 -9.40625 L 16.5 -20.953125 L 21.28125 -20.953125 L 21.28125 -9.21875 C 21.28125 -6.144531 20.445312 -3.78125 18.78125 -2.125 C 17.113281 -0.46875 14.785156 0.359375 11.796875 0.359375 Z M 11.796875 0.359375 "/></g></g></g><g fill="#d9d9d9" fill-opacity="1"><g transform="translate(142.156016, 196.868203)"><g><path d="M 9.375 0.359375 C 7.71875 0.359375 6.113281 0.132812 4.5625 -0.3125 C 3.019531 -0.757812 1.78125 -1.34375 0.84375 -2.0625 L 2.484375 -5.71875 C 3.378906 -5.0625 4.445312 -4.53125 5.6875 -4.125 C 6.925781 -3.726562 8.164062 -3.53125 9.40625 -3.53125 C 10.78125 -3.53125 11.796875 -3.734375 12.453125 -4.140625 C 13.109375 -4.554688 13.4375 -5.101562 13.4375 -5.78125 C 13.4375 -6.28125 13.242188 -6.691406 12.859375 -7.015625 C 12.472656 -7.347656 11.972656 -7.613281 11.359375 -7.8125 C 10.753906 -8.007812 9.929688 -8.226562 8.890625 -8.46875 C 7.296875 -8.851562 5.988281 -9.234375 4.96875 -9.609375 C 3.945312 -9.984375 3.070312 -10.585938 2.34375 -11.421875 C 1.613281 -12.265625 1.25 -13.390625 1.25 -14.796875 C 1.25 -16.003906 1.578125 -17.101562 2.234375 -18.09375 C 2.898438 -19.082031 3.894531 -19.863281 5.21875 -20.4375 C 6.550781 -21.019531 8.175781 -21.3125 10.09375 -21.3125 C 11.425781 -21.3125 12.726562 -21.148438 14 -20.828125 C 15.28125 -20.515625 16.398438 -20.054688 17.359375 -19.453125 L 15.859375 -15.78125 C 13.929688 -16.875 12 -17.421875 10.0625 -17.421875 C 8.695312 -17.421875 7.691406 -17.203125 7.046875 -16.765625 C 6.398438 -16.328125 6.078125 -15.75 6.078125 -15.03125 C 6.078125 -14.3125 6.453125 -13.773438 7.203125 -13.421875 C 7.953125 -13.078125 9.09375 -12.734375 10.625 -12.390625 C 12.21875 -12.015625 13.523438 -11.632812 14.546875 -11.25 C 15.566406 -10.875 16.441406 -10.273438 17.171875 -9.453125 C 17.898438 -8.640625 18.265625 -7.535156 18.265625 -6.140625 C 18.265625 -4.941406 17.925781 -3.847656 17.25 -2.859375 C 16.582031 -1.867188 15.582031 -1.082031 14.25 -0.5 C 12.914062 0.0703125 11.289062 0.359375 9.375 0.359375 Z M 9.375 0.359375 "/></g></g></g><g fill="#db5d06" fill-opacity="1"><g transform="translate(159.332382, 196.868203)"><g><path d="M 6.828125 -17 L 0.125 -17 L 0.125 -20.953125 L 18.375 -20.953125 L 18.375 -17 L 11.671875 -17 L 11.671875 0 L 6.828125 0 Z M 6.828125 -17 "/></g></g></g><g fill="#db5d06" fill-opacity="1"><g transform="translate(175.907386, 196.868203)"><g><path d="M 2.484375 -20.953125 L 7.328125 -20.953125 L 7.328125 0 L 2.484375 0 Z M 2.484375 -20.953125 "/></g></g></g><g fill="#db5d06" fill-opacity="1"><g transform="translate(183.805457, 196.868203)"><g><path d="M 21.703125 -20.953125 L 21.703125 0 L 17.71875 0 L 7.28125 -12.71875 L 7.28125 0 L 2.484375 0 L 2.484375 -20.953125 L 6.5 -20.953125 L 16.921875 -8.234375 L 16.921875 -20.953125 Z M 21.703125 -20.953125 "/></g></g></g><g fill="#db5d06" fill-opacity="1"><g transform="translate(206.065349, 196.868203)"><g/></g></g><g fill="#d9d9d9" fill-opacity="1"><g transform="translate(212.618281, 196.868203)"><g><path d="M 2.484375 -20.953125 L 12 -20.953125 C 14.28125 -20.953125 16.289062 -20.519531 18.03125 -19.65625 C 19.78125 -18.789062 21.140625 -17.566406 22.109375 -15.984375 C 23.078125 -14.410156 23.5625 -12.578125 23.5625 -10.484375 C 23.5625 -8.378906 23.078125 -6.539062 22.109375 -4.96875 C 21.140625 -3.394531 19.78125 -2.171875 18.03125 -1.296875 C 16.289062 -0.429688 14.28125 0 12 0 L 2.484375 0 Z M 11.765625 -3.984375 C 13.859375 -3.984375 15.53125 -4.566406 16.78125 -5.734375 C 18.03125 -6.898438 18.65625 -8.484375 18.65625 -10.484375 C 18.65625 -12.472656 18.03125 -14.050781 16.78125 -15.21875 C 15.53125 -16.382812 13.859375 -16.96875 11.765625 -16.96875 L 7.328125 -16.96875 L 7.328125 -3.984375 Z M 11.765625 -3.984375 "/></g></g></g><g fill="#d9d9d9" fill-opacity="1"><g transform="translate(235.416742, 196.868203)"><g><path d="M 18.71875 -3.890625 L 18.71875 0 L 2.484375 0 L 2.484375 -20.953125 L 18.328125 -20.953125 L 18.328125 -17.0625 L 7.3125 -17.0625 L 7.3125 -12.515625 L 17.03125 -12.515625 L 17.03125 -8.734375 L 7.3125 -8.734375 L 7.3125 -3.890625 Z M 18.71875 -3.890625 "/></g></g></g><g fill="#d9d9d9" fill-opacity="1"><g transform="translate(253.577519, 196.868203)"><g><path d="M 21.703125 -20.953125 L 21.703125 0 L 17.71875 0 L 7.28125 -12.71875 L 7.28125 0 L 2.484375 0 L 2.484375 -20.953125 L 6.5 -20.953125 L 16.921875 -8.234375 L 16.921875 -20.953125 Z M 21.703125 -20.953125 "/></g></g></g><g fill="#d9d9d9" fill-opacity="1"><g transform="translate(275.83741, 196.868203)"><g><path d="M 12.640625 0.359375 C 10.460938 0.359375 8.5 -0.109375 6.75 -1.046875 C 5 -1.984375 3.628906 -3.273438 2.640625 -4.921875 C 1.660156 -6.566406 1.171875 -8.421875 1.171875 -10.484375 C 1.171875 -12.535156 1.660156 -14.382812 2.640625 -16.03125 C 3.628906 -17.675781 5 -18.96875 6.75 -19.90625 C 8.5 -20.84375 10.460938 -21.3125 12.640625 -21.3125 C 14.804688 -21.3125 16.757812 -20.84375 18.5 -19.90625 C 20.238281 -18.96875 21.601562 -17.675781 22.59375 -16.03125 C 23.59375 -14.382812 24.09375 -12.535156 24.09375 -10.484375 C 24.09375 -8.421875 23.59375 -6.566406 22.59375 -4.921875 C 21.601562 -3.273438 20.238281 -1.984375 18.5 -1.046875 C 16.757812 -0.109375 14.804688 0.359375 12.640625 0.359375 Z M 12.640625 -3.765625 C 13.867188 -3.765625 14.984375 -4.050781 15.984375 -4.625 C 16.984375 -5.195312 17.765625 -5.988281 18.328125 -7 C 18.898438 -8.019531 19.1875 -9.179688 19.1875 -10.484375 C 19.1875 -11.773438 18.898438 -12.929688 18.328125 -13.953125 C 17.765625 -14.972656 16.984375 -15.765625 15.984375 -16.328125 C 14.984375 -16.898438 13.867188 -17.1875 12.640625 -17.1875 C 11.398438 -17.1875 10.28125 -16.898438 9.28125 -16.328125 C 8.28125 -15.765625 7.492188 -14.972656 6.921875 -13.953125 C 6.359375 -12.929688 6.078125 -11.773438 6.078125 -10.484375 C 6.078125 -9.179688 6.359375 -8.019531 6.921875 -7 C 7.492188 -5.988281 8.28125 -5.195312 9.28125 -4.625 C 10.28125 -4.050781 11.398438 -3.765625 12.640625 -3.765625 Z M 12.640625 -3.765625 "/></g></g></g><g fill="#db5d06" fill-opacity="1"><g transform="translate(299.17603, 196.868203)"><g><path d="M 7.328125 -17.0625 L 7.328125 -11.53125 L 17.03125 -11.53125 L 17.03125 -7.640625 L 7.328125 -7.640625 L 7.328125 0 L 2.484375 0 L 2.484375 -20.953125 L 18.328125 -20.953125 L 18.328125 -17.0625 Z M 7.328125 -17.0625 "/></g></g></g><g fill="#db5d06" fill-opacity="1"><g transform="translate(316.379353, 196.868203)"><g><path d="M 15.84375 0 L 11.796875 -5.84375 L 7.328125 -5.84375 L 7.328125 0 L 2.484375 0 L 2.484375 -20.953125 L 11.5625 -20.953125 C 13.414062 -20.953125 15.023438 -20.640625 16.390625 -20.015625 C 17.753906 -19.398438 18.804688 -18.523438 19.546875 -17.390625 C 20.285156 -16.253906 20.65625 -14.910156 20.65625 -13.359375 C 20.65625 -11.796875 20.28125 -10.453125 19.53125 -9.328125 C 18.78125 -8.203125 17.71875 -7.335938 16.34375 -6.734375 L 21.046875 0 Z M 15.75 -13.359375 C 15.75 -14.535156 15.367188 -15.4375 14.609375 -16.0625 C 13.847656 -16.6875 12.738281 -17 11.28125 -17 L 7.328125 -17 L 7.328125 -9.703125 L 11.28125 -9.703125 C 12.738281 -9.703125 13.847656 -10.019531 14.609375 -10.65625 C 15.367188 -11.289062 15.75 -12.191406 15.75 -13.359375 Z M 15.75 -13.359375 "/></g></g></g><g fill="#db5d06" fill-opacity="1"><g transform="translate(336.45504, 196.868203)"><g><path d="M 2.484375 -20.953125 L 7.328125 -20.953125 L 7.328125 0 L 2.484375 0 Z M 2.484375 -20.953125 "/></g></g></g><g fill="#db5d06" fill-opacity="1"><g transform="translate(344.353109, 196.868203)"><g><path d="M 12.640625 0.359375 C 10.460938 0.359375 8.5 -0.109375 6.75 -1.046875 C 5 -1.984375 3.628906 -3.273438 2.640625 -4.921875 C 1.660156 -6.566406 1.171875 -8.421875 1.171875 -10.484375 C 1.171875 -12.535156 1.660156 -14.382812 2.640625 -16.03125 C 3.628906 -17.675781 5 -18.96875 6.75 -19.90625 C 8.5 -20.84375 10.460938 -21.3125 12.640625 -21.3125 C 14.804688 -21.3125 16.757812 -20.84375 18.5 -19.90625 C 20.238281 -18.96875 21.601562 -17.675781 22.59375 -16.03125 C 23.59375 -14.382812 24.09375 -12.535156 24.09375 -10.484375 C 24.09375 -8.421875 23.59375 -6.566406 22.59375 -4.921875 C 21.601562 -3.273438 20.238281 -1.984375 18.5 -1.046875 C 16.757812 -0.109375 14.804688 0.359375 12.640625 0.359375 Z M 12.640625 -3.765625 C 13.867188 -3.765625 14.984375 -4.050781 15.984375 -4.625 C 16.984375 -5.195312 17.765625 -5.988281 18.328125 -7 C 18.898438 -8.019531 19.1875 -9.179688 19.1875 -10.484375 C 19.1875 -11.773438 18.898438 -12.929688 18.328125 -13.953125 C 17.765625 -14.972656 16.984375 -15.765625 15.984375 -16.328125 C 14.984375 -16.898438 13.867188 -17.1875 12.640625 -17.1875 C 11.398438 -17.1875 10.28125 -16.898438 9.28125 -16.328125 C 8.28125 -15.765625 7.492188 -14.972656 6.921875 -13.953125 C 6.359375 -12.929688 6.078125 -11.773438 6.078125 -10.484375 C 6.078125 -9.179688 6.359375 -8.019531 6.921875 -7 C 7.492188 -5.988281 8.28125 -5.195312 9.28125 -4.625 C 10.28125 -4.050781 11.398438 -3.765625 12.640625 -3.765625 Z M 12.640625 -3.765625 "/></g></g></g><g fill="#db5d06" fill-opacity="1"><g transform="translate(100.293892, 220.504427)"><g><path d="M 7.46875 0.328125 C 6.207031 0.328125 5.035156 0.09375 3.953125 -0.375 C 2.867188 -0.851562 1.9375 -1.503906 1.15625 -2.328125 L 2.53125 -3.921875 C 3.164062 -3.242188 3.914062 -2.695312 4.78125 -2.28125 C 5.65625 -1.875 6.5625 -1.671875 7.5 -1.671875 C 8.6875 -1.671875 9.609375 -1.941406 10.265625 -2.484375 C 10.929688 -3.023438 11.265625 -3.734375 11.265625 -4.609375 C 11.265625 -5.066406 11.1875 -5.457031 11.03125 -5.78125 C 10.875 -6.101562 10.660156 -6.378906 10.390625 -6.609375 C 10.128906 -6.835938 9.816406 -7.039062 9.453125 -7.21875 C 9.085938 -7.40625 8.691406 -7.597656 8.265625 -7.796875 L 5.6875 -8.921875 C 5.257812 -9.109375 4.828125 -9.328125 4.390625 -9.578125 C 3.953125 -9.835938 3.554688 -10.148438 3.203125 -10.515625 C 2.859375 -10.878906 2.578125 -11.3125 2.359375 -11.8125 C 2.140625 -12.320312 2.03125 -12.90625 2.03125 -13.5625 C 2.03125 -14.238281 2.171875 -14.867188 2.453125 -15.453125 C 2.742188 -16.046875 3.140625 -16.554688 3.640625 -16.984375 C 4.140625 -17.421875 4.734375 -17.753906 5.421875 -17.984375 C 6.109375 -18.222656 6.863281 -18.34375 7.6875 -18.34375 C 8.769531 -18.34375 9.769531 -18.132812 10.6875 -17.71875 C 11.601562 -17.3125 12.378906 -16.78125 13.015625 -16.125 L 11.78125 -14.640625 C 11.226562 -15.171875 10.617188 -15.585938 9.953125 -15.890625 C 9.285156 -16.191406 8.53125 -16.34375 7.6875 -16.34375 C 6.6875 -16.34375 5.878906 -16.109375 5.265625 -15.640625 C 4.648438 -15.171875 4.34375 -14.523438 4.34375 -13.703125 C 4.34375 -13.265625 4.425781 -12.894531 4.59375 -12.59375 C 4.769531 -12.289062 5.003906 -12.023438 5.296875 -11.796875 C 5.585938 -11.566406 5.90625 -11.363281 6.25 -11.1875 C 6.601562 -11.019531 6.960938 -10.863281 7.328125 -10.71875 L 9.890625 -9.609375 C 10.398438 -9.390625 10.882812 -9.140625 11.34375 -8.859375 C 11.800781 -8.578125 12.191406 -8.25 12.515625 -7.875 C 12.847656 -7.5 13.109375 -7.054688 13.296875 -6.546875 C 13.492188 -6.046875 13.59375 -5.46875 13.59375 -4.8125 C 13.59375 -4.09375 13.453125 -3.421875 13.171875 -2.796875 C 12.890625 -2.179688 12.484375 -1.640625 11.953125 -1.171875 C 11.421875 -0.703125 10.78125 -0.332031 10.03125 -0.0625 C 9.28125 0.195312 8.425781 0.328125 7.46875 0.328125 Z M 7.46875 0.328125 "/></g></g></g><g fill="#db5d06" fill-opacity="1"><g transform="translate(115.565218, 220.504427)"><g><path d="M 7.4375 0.328125 C 6.613281 0.328125 5.832031 0.171875 5.09375 -0.140625 C 4.351562 -0.453125 3.695312 -0.90625 3.125 -1.5 C 2.5625 -2.09375 2.109375 -2.820312 1.765625 -3.6875 C 1.429688 -4.5625 1.265625 -5.546875 1.265625 -6.640625 C 1.265625 -7.765625 1.429688 -8.757812 1.765625 -9.625 C 2.109375 -10.5 2.5625 -11.238281 3.125 -11.84375 C 3.695312 -12.445312 4.351562 -12.898438 5.09375 -13.203125 C 5.832031 -13.515625 6.613281 -13.671875 7.4375 -13.671875 C 8.269531 -13.671875 9.054688 -13.515625 9.796875 -13.203125 C 10.535156 -12.898438 11.1875 -12.445312 11.75 -11.84375 C 12.320312 -11.238281 12.773438 -10.5 13.109375 -9.625 C 13.453125 -8.757812 13.625 -7.765625 13.625 -6.640625 C 13.625 -5.546875 13.453125 -4.5625 13.109375 -3.6875 C 12.773438 -2.820312 12.320312 -2.09375 11.75 -1.5 C 11.1875 -0.90625 10.535156 -0.453125 9.796875 -0.140625 C 9.054688 0.171875 8.269531 0.328125 7.4375 0.328125 Z M 7.4375 -1.53125 C 8.007812 -1.53125 8.53125 -1.65625 9 -1.90625 C 9.476562 -2.15625 9.882812 -2.503906 10.21875 -2.953125 C 10.5625 -3.398438 10.828125 -3.9375 11.015625 -4.5625 C 11.203125 -5.1875 11.296875 -5.878906 11.296875 -6.640625 C 11.296875 -7.410156 11.203125 -8.113281 11.015625 -8.75 C 10.828125 -9.382812 10.5625 -9.925781 10.21875 -10.375 C 9.882812 -10.832031 9.476562 -11.1875 9 -11.4375 C 8.53125 -11.6875 8.007812 -11.8125 7.4375 -11.8125 C 6.875 -11.8125 6.351562 -11.6875 5.875 -11.4375 C 5.40625 -11.1875 5 -10.832031 4.65625 -10.375 C 4.3125 -9.925781 4.046875 -9.382812 3.859375 -8.75 C 3.679688 -8.113281 3.59375 -7.410156 3.59375 -6.640625 C 3.59375 -5.878906 3.679688 -5.1875 3.859375 -4.5625 C 4.046875 -3.9375 4.3125 -3.398438 4.65625 -2.953125 C 5 -2.503906 5.40625 -2.15625 5.875 -1.90625 C 6.351562 -1.65625 6.875 -1.53125 7.4375 -1.53125 Z M 7.4375 -1.53125 "/></g></g></g><g fill="#db5d06" fill-opacity="1"><g transform="translate(131.056271, 220.504427)"><g><path d="M 2.640625 0 L 2.640625 -11.515625 L 0.828125 -11.515625 L 0.828125 -13.21875 L 2.640625 -13.34375 L 2.640625 -15.46875 C 2.640625 -16.84375 2.953125 -17.921875 3.578125 -18.703125 C 4.210938 -19.492188 5.195312 -19.890625 6.53125 -19.890625 C 6.957031 -19.890625 7.359375 -19.847656 7.734375 -19.765625 C 8.109375 -19.679688 8.453125 -19.578125 8.765625 -19.453125 L 8.265625 -17.71875 C 7.773438 -17.9375 7.269531 -18.046875 6.75 -18.046875 C 5.507812 -18.046875 4.890625 -17.1875 4.890625 -15.46875 L 4.890625 -13.34375 L 7.71875 -13.34375 L 7.71875 -11.515625 L 4.890625 -11.515625 L 4.890625 0 Z M 2.640625 0 "/></g></g></g><g fill="#db5d06" fill-opacity="1"><g transform="translate(139.680882, 220.504427)"><g><path d="M 6.453125 0.328125 C 5.742188 0.328125 5.144531 0.21875 4.65625 0 C 4.164062 -0.21875 3.769531 -0.519531 3.46875 -0.90625 C 3.164062 -1.289062 2.953125 -1.753906 2.828125 -2.296875 C 2.703125 -2.847656 2.640625 -3.457031 2.640625 -4.125 L 2.640625 -11.515625 L 0.65625 -11.515625 L 0.65625 -13.21875 L 2.75 -13.34375 L 3.015625 -17.078125 L 4.921875 -17.078125 L 4.921875 -13.34375 L 8.515625 -13.34375 L 8.515625 -11.515625 L 4.921875 -11.515625 L 4.921875 -4.09375 C 4.921875 -3.269531 5.070312 -2.632812 5.375 -2.1875 C 5.675781 -1.738281 6.210938 -1.515625 6.984375 -1.515625 C 7.210938 -1.515625 7.460938 -1.550781 7.734375 -1.625 C 8.015625 -1.695312 8.265625 -1.78125 8.484375 -1.875 L 8.921875 -0.171875 C 8.554688 -0.0351562 8.160156 0.078125 7.734375 0.171875 C 7.304688 0.273438 6.878906 0.328125 6.453125 0.328125 Z M 6.453125 0.328125 "/></g></g></g><g fill="#db5d06" fill-opacity="1"><g transform="translate(149.568923, 220.504427)"><g><path d="M 4.375 0 L 0.65625 -13.34375 L 2.96875 -13.34375 L 4.9375 -5.625 C 5.09375 -4.988281 5.234375 -4.367188 5.359375 -3.765625 C 5.484375 -3.160156 5.609375 -2.546875 5.734375 -1.921875 L 5.84375 -1.921875 C 6 -2.546875 6.148438 -3.164062 6.296875 -3.78125 C 6.441406 -4.394531 6.59375 -5.007812 6.75 -5.625 L 8.8125 -13.34375 L 11.015625 -13.34375 L 13.109375 -5.625 C 13.265625 -4.988281 13.421875 -4.367188 13.578125 -3.765625 C 13.734375 -3.160156 13.882812 -2.546875 14.03125 -1.921875 L 14.140625 -1.921875 C 14.285156 -2.546875 14.421875 -3.160156 14.546875 -3.765625 C 14.679688 -4.367188 14.820312 -4.988281 14.96875 -5.625 L 16.921875 -13.34375 L 19.0625 -13.34375 L 15.5 0 L 12.75 0 L 10.828125 -7.171875 C 10.660156 -7.804688 10.503906 -8.4375 10.359375 -9.0625 C 10.222656 -9.6875 10.078125 -10.335938 9.921875 -11.015625 L 9.8125 -11.015625 C 9.664062 -10.335938 9.515625 -9.679688 9.359375 -9.046875 C 9.210938 -8.421875 9.050781 -7.785156 8.875 -7.140625 L 7 0 Z M 4.375 0 "/></g></g></g><g fill="#db5d06" fill-opacity="1"><g transform="translate(169.893939, 220.504427)"><g><path d="M 5.328125 0.328125 C 4.210938 0.328125 3.28125 0 2.53125 -0.65625 C 1.789062 -1.3125 1.421875 -2.25 1.421875 -3.46875 C 1.421875 -4.925781 2.070312 -6.046875 3.375 -6.828125 C 4.675781 -7.609375 6.753906 -8.148438 9.609375 -8.453125 C 9.609375 -8.878906 9.566406 -9.289062 9.484375 -9.6875 C 9.398438 -10.09375 9.257812 -10.453125 9.0625 -10.765625 C 8.863281 -11.078125 8.582031 -11.328125 8.21875 -11.515625 C 7.863281 -11.710938 7.410156 -11.8125 6.859375 -11.8125 C 6.097656 -11.8125 5.378906 -11.664062 4.703125 -11.375 C 4.023438 -11.082031 3.421875 -10.753906 2.890625 -10.390625 L 2 -11.953125 C 2.625 -12.347656 3.382812 -12.734375 4.28125 -13.109375 C 5.175781 -13.484375 6.164062 -13.671875 7.25 -13.671875 C 8.882812 -13.671875 10.066406 -13.171875 10.796875 -12.171875 C 11.523438 -11.179688 11.890625 -9.851562 11.890625 -8.1875 L 11.890625 0 L 10.03125 0 L 9.828125 -1.59375 L 9.75 -1.59375 C 9.113281 -1.0625 8.425781 -0.609375 7.6875 -0.234375 C 6.957031 0.140625 6.171875 0.328125 5.328125 0.328125 Z M 5.984375 -1.484375 C 6.628906 -1.484375 7.234375 -1.632812 7.796875 -1.9375 C 8.367188 -2.238281 8.972656 -2.679688 9.609375 -3.265625 L 9.609375 -6.984375 C 8.492188 -6.828125 7.554688 -6.648438 6.796875 -6.453125 C 6.035156 -6.253906 5.421875 -6.015625 4.953125 -5.734375 C 4.484375 -5.460938 4.144531 -5.144531 3.9375 -4.78125 C 3.726562 -4.425781 3.625 -4.039062 3.625 -3.625 C 3.625 -2.851562 3.851562 -2.300781 4.3125 -1.96875 C 4.769531 -1.644531 5.328125 -1.484375 5.984375 -1.484375 Z M 5.984375 -1.484375 "/></g></g></g><g fill="#db5d06" fill-opacity="1"><g transform="translate(184.341285, 220.504427)"><g><path d="M 2.25 0 L 2.25 -13.34375 L 4.125 -13.34375 L 4.3125 -10.9375 L 4.390625 -10.9375 C 4.847656 -11.78125 5.398438 -12.445312 6.046875 -12.9375 C 6.703125 -13.425781 7.414062 -13.671875 8.1875 -13.671875 C 8.71875 -13.671875 9.191406 -13.582031 9.609375 -13.40625 L 9.171875 -11.421875 C 8.953125 -11.492188 8.75 -11.546875 8.5625 -11.578125 C 8.382812 -11.617188 8.160156 -11.640625 7.890625 -11.640625 C 7.316406 -11.640625 6.722656 -11.410156 6.109375 -10.953125 C 5.492188 -10.492188 4.957031 -9.695312 4.5 -8.5625 L 4.5 0 Z M 2.25 0 "/></g></g></g><g fill="#db5d06" fill-opacity="1"><g transform="translate(194.476513, 220.504427)"><g><path d="M 7.65625 0.328125 C 6.757812 0.328125 5.921875 0.171875 5.140625 -0.140625 C 4.367188 -0.460938 3.691406 -0.921875 3.109375 -1.515625 C 2.535156 -2.117188 2.082031 -2.847656 1.75 -3.703125 C 1.425781 -4.566406 1.265625 -5.546875 1.265625 -6.640625 C 1.265625 -7.742188 1.429688 -8.726562 1.765625 -9.59375 C 2.109375 -10.46875 2.554688 -11.207031 3.109375 -11.8125 C 3.671875 -12.414062 4.304688 -12.875 5.015625 -13.1875 C 5.734375 -13.507812 6.476562 -13.671875 7.25 -13.671875 C 8.09375 -13.671875 8.847656 -13.523438 9.515625 -13.234375 C 10.179688 -12.941406 10.738281 -12.519531 11.1875 -11.96875 C 11.632812 -11.425781 11.976562 -10.769531 12.21875 -10 C 12.457031 -9.226562 12.578125 -8.367188 12.578125 -7.421875 C 12.578125 -7.179688 12.570312 -6.945312 12.5625 -6.71875 C 12.550781 -6.488281 12.53125 -6.289062 12.5 -6.125 L 3.484375 -6.125 C 3.578125 -4.695312 4.019531 -3.566406 4.8125 -2.734375 C 5.613281 -1.898438 6.65625 -1.484375 7.9375 -1.484375 C 8.582031 -1.484375 9.171875 -1.578125 9.703125 -1.765625 C 10.242188 -1.960938 10.765625 -2.21875 11.265625 -2.53125 L 12.0625 -1.046875 C 11.476562 -0.679688 10.828125 -0.359375 10.109375 -0.078125 C 9.390625 0.191406 8.570312 0.328125 7.65625 0.328125 Z M 3.46875 -7.75 L 10.609375 -7.75 C 10.609375 -9.101562 10.316406 -10.128906 9.734375 -10.828125 C 9.160156 -11.535156 8.351562 -11.890625 7.3125 -11.890625 C 6.832031 -11.890625 6.375 -11.796875 5.9375 -11.609375 C 5.507812 -11.429688 5.117188 -11.160156 4.765625 -10.796875 C 4.421875 -10.441406 4.132812 -10.007812 3.90625 -9.5 C 3.6875 -8.988281 3.539062 -8.40625 3.46875 -7.75 Z M 3.46875 -7.75 "/></g></g></g><g fill="#db5d06" fill-opacity="1"><g transform="translate(208.704131, 220.504427)"><g/></g></g><g fill="#db5d06" fill-opacity="1"><g transform="translate(214.801899, 220.504427)"><g><path d="M 2.46875 0 L 2.46875 -18.015625 L 6.984375 -18.015625 C 9.765625 -18.015625 11.878906 -17.242188 13.328125 -15.703125 C 14.773438 -14.171875 15.5 -11.96875 15.5 -9.09375 C 15.5 -7.664062 15.3125 -6.390625 14.9375 -5.265625 C 14.570312 -4.140625 14.03125 -3.1875 13.3125 -2.40625 C 12.601562 -1.625 11.726562 -1.023438 10.6875 -0.609375 C 9.644531 -0.203125 8.445312 0 7.09375 0 Z M 4.75 -1.875 L 6.8125 -1.875 C 8.914062 -1.875 10.492188 -2.503906 11.546875 -3.765625 C 12.597656 -5.023438 13.125 -6.800781 13.125 -9.09375 C 13.125 -11.382812 12.597656 -13.132812 11.546875 -14.34375 C 10.492188 -15.550781 8.914062 -16.15625 6.8125 -16.15625 L 4.75 -16.15625 Z M 4.75 -1.875 "/></g></g></g><g fill="#db5d06" fill-opacity="1"><g transform="translate(232.29795, 220.504427)"><g><path d="M 7.65625 0.328125 C 6.757812 0.328125 5.921875 0.171875 5.140625 -0.140625 C 4.367188 -0.460938 3.691406 -0.921875 3.109375 -1.515625 C 2.535156 -2.117188 2.082031 -2.847656 1.75 -3.703125 C 1.425781 -4.566406 1.265625 -5.546875 1.265625 -6.640625 C 1.265625 -7.742188 1.429688 -8.726562 1.765625 -9.59375 C 2.109375 -10.46875 2.554688 -11.207031 3.109375 -11.8125 C 3.671875 -12.414062 4.304688 -12.875 5.015625 -13.1875 C 5.734375 -13.507812 6.476562 -13.671875 7.25 -13.671875 C 8.09375 -13.671875 8.847656 -13.523438 9.515625 -13.234375 C 10.179688 -12.941406 10.738281 -12.519531 11.1875 -11.96875 C 11.632812 -11.425781 11.976562 -10.769531 12.21875 -10 C 12.457031 -9.226562 12.578125 -8.367188 12.578125 -7.421875 C 12.578125 -7.179688 12.570312 -6.945312 12.5625 -6.71875 C 12.550781 -6.488281 12.53125 -6.289062 12.5 -6.125 L 3.484375 -6.125 C 3.578125 -4.695312 4.019531 -3.566406 4.8125 -2.734375 C 5.613281 -1.898438 6.65625 -1.484375 7.9375 -1.484375 C 8.582031 -1.484375 9.171875 -1.578125 9.703125 -1.765625 C 10.242188 -1.960938 10.765625 -2.21875 11.265625 -2.53125 L 12.0625 -1.046875 C 11.476562 -0.679688 10.828125 -0.359375 10.109375 -0.078125 C 9.390625 0.191406 8.570312 0.328125 7.65625 0.328125 Z M 3.46875 -7.75 L 10.609375 -7.75 C 10.609375 -9.101562 10.316406 -10.128906 9.734375 -10.828125 C 9.160156 -11.535156 8.351562 -11.890625 7.3125 -11.890625 C 6.832031 -11.890625 6.375 -11.796875 5.9375 -11.609375 C 5.507812 -11.429688 5.117188 -11.160156 4.765625 -10.796875 C 4.421875 -10.441406 4.132812 -10.007812 3.90625 -9.5 C 3.6875 -8.988281 3.539062 -8.40625 3.46875 -7.75 Z M 3.46875 -7.75 "/></g></g></g><g fill="#db5d06" fill-opacity="1"><g transform="translate(246.525575, 220.504427)"><g><path d="M 5.140625 0 L 0.328125 -13.34375 L 2.671875 -13.34375 L 5.1875 -5.765625 C 5.394531 -5.109375 5.601562 -4.445312 5.8125 -3.78125 C 6.019531 -3.125 6.222656 -2.476562 6.421875 -1.84375 L 6.53125 -1.84375 C 6.738281 -2.476562 6.941406 -3.125 7.140625 -3.78125 C 7.335938 -4.445312 7.539062 -5.109375 7.75 -5.765625 L 10.265625 -13.34375 L 12.5 -13.34375 L 7.78125 0 Z M 5.140625 0 "/></g></g></g><g fill="#db5d06" fill-opacity="1"><g transform="translate(259.956695, 220.504427)"><g><path d="M 7.65625 0.328125 C 6.757812 0.328125 5.921875 0.171875 5.140625 -0.140625 C 4.367188 -0.460938 3.691406 -0.921875 3.109375 -1.515625 C 2.535156 -2.117188 2.082031 -2.847656 1.75 -3.703125 C 1.425781 -4.566406 1.265625 -5.546875 1.265625 -6.640625 C 1.265625 -7.742188 1.429688 -8.726562 1.765625 -9.59375 C 2.109375 -10.46875 2.554688 -11.207031 3.109375 -11.8125 C 3.671875 -12.414062 4.304688 -12.875 5.015625 -13.1875 C 5.734375 -13.507812 6.476562 -13.671875 7.25 -13.671875 C 8.09375 -13.671875 8.847656 -13.523438 9.515625 -13.234375 C 10.179688 -12.941406 10.738281 -12.519531 11.1875 -11.96875 C 11.632812 -11.425781 11.976562 -10.769531 12.21875 -10 C 12.457031 -9.226562 12.578125 -8.367188 12.578125 -7.421875 C 12.578125 -7.179688 12.570312 -6.945312 12.5625 -6.71875 C 12.550781 -6.488281 12.53125 -6.289062 12.5 -6.125 L 3.484375 -6.125 C 3.578125 -4.695312 4.019531 -3.566406 4.8125 -2.734375 C 5.613281 -1.898438 6.65625 -1.484375 7.9375 -1.484375 C 8.582031 -1.484375 9.171875 -1.578125 9.703125 -1.765625 C 10.242188 -1.960938 10.765625 -2.21875 11.265625 -2.53125 L 12.0625 -1.046875 C 11.476562 -0.679688 10.828125 -0.359375 10.109375 -0.078125 C 9.390625 0.191406 8.570312 0.328125 7.65625 0.328125 Z M 3.46875 -7.75 L 10.609375 -7.75 C 10.609375 -9.101562 10.316406 -10.128906 9.734375 -10.828125 C 9.160156 -11.535156 8.351562 -11.890625 7.3125 -11.890625 C 6.832031 -11.890625 6.375 -11.796875 5.9375 -11.609375 C 5.507812 -11.429688 5.117188 -11.160156 4.765625 -10.796875 C 4.421875 -10.441406 4.132812 -10.007812 3.90625 -9.5 C 3.6875 -8.988281 3.539062 -8.40625 3.46875 -7.75 Z M 3.46875 -7.75 "/></g></g></g><g fill="#db5d06" fill-opacity="1"><g transform="translate(274.18432, 220.504427)"><g><path d="M 4.640625 0.328125 C 3.773438 0.328125 3.160156 0.0703125 2.796875 -0.4375 C 2.429688 -0.945312 2.25 -1.695312 2.25 -2.6875 L 2.25 -19.5625 L 4.5 -19.5625 L 4.5 -2.53125 C 4.5 -2.164062 4.5625 -1.90625 4.6875 -1.75 C 4.820312 -1.601562 4.972656 -1.53125 5.140625 -1.53125 C 5.210938 -1.53125 5.28125 -1.53125 5.34375 -1.53125 C 5.40625 -1.53125 5.5 -1.550781 5.625 -1.59375 L 5.9375 0.109375 C 5.789062 0.179688 5.613281 0.234375 5.40625 0.265625 C 5.207031 0.304688 4.953125 0.328125 4.640625 0.328125 Z M 4.640625 0.328125 "/></g></g></g><g fill="#db5d06" fill-opacity="1"><g transform="translate(281.792714, 220.504427)"><g><path d="M 7.4375 0.328125 C 6.613281 0.328125 5.832031 0.171875 5.09375 -0.140625 C 4.351562 -0.453125 3.695312 -0.90625 3.125 -1.5 C 2.5625 -2.09375 2.109375 -2.820312 1.765625 -3.6875 C 1.429688 -4.5625 1.265625 -5.546875 1.265625 -6.640625 C 1.265625 -7.765625 1.429688 -8.757812 1.765625 -9.625 C 2.109375 -10.5 2.5625 -11.238281 3.125 -11.84375 C 3.695312 -12.445312 4.351562 -12.898438 5.09375 -13.203125 C 5.832031 -13.515625 6.613281 -13.671875 7.4375 -13.671875 C 8.269531 -13.671875 9.054688 -13.515625 9.796875 -13.203125 C 10.535156 -12.898438 11.1875 -12.445312 11.75 -11.84375 C 12.320312 -11.238281 12.773438 -10.5 13.109375 -9.625 C 13.453125 -8.757812 13.625 -7.765625 13.625 -6.640625 C 13.625 -5.546875 13.453125 -4.5625 13.109375 -3.6875 C 12.773438 -2.820312 12.320312 -2.09375 11.75 -1.5 C 11.1875 -0.90625 10.535156 -0.453125 9.796875 -0.140625 C 9.054688 0.171875 8.269531 0.328125 7.4375 0.328125 Z M 7.4375 -1.53125 C 8.007812 -1.53125 8.53125 -1.65625 9 -1.90625 C 9.476562 -2.15625 9.882812 -2.503906 10.21875 -2.953125 C 10.5625 -3.398438 10.828125 -3.9375 11.015625 -4.5625 C 11.203125 -5.1875 11.296875 -5.878906 11.296875 -6.640625 C 11.296875 -7.410156 11.203125 -8.113281 11.015625 -8.75 C 10.828125 -9.382812 10.5625 -9.925781 10.21875 -10.375 C 9.882812 -10.832031 9.476562 -11.1875 9 -11.4375 C 8.53125 -11.6875 8.007812 -11.8125 7.4375 -11.8125 C 6.875 -11.8125 6.351562 -11.6875 5.875 -11.4375 C 5.40625 -11.1875 5 -10.832031 4.65625 -10.375 C 4.3125 -9.925781 4.046875 -9.382812 3.859375 -8.75 C 3.679688 -8.113281 3.59375 -7.410156 3.59375 -6.640625 C 3.59375 -5.878906 3.679688 -5.1875 3.859375 -4.5625 C 4.046875 -3.9375 4.3125 -3.398438 4.65625 -2.953125 C 5 -2.503906 5.40625 -2.15625 5.875 -1.90625 C 6.351562 -1.65625 6.875 -1.53125 7.4375 -1.53125 Z M 7.4375 -1.53125 "/></g></g></g><g fill="#db5d06" fill-opacity="1"><g transform="translate(297.283772, 220.504427)"><g><path d="M 2.25 5.625 L 2.25 -13.34375 L 4.125 -13.34375 L 4.3125 -11.8125 L 4.390625 -11.8125 C 4.992188 -12.320312 5.65625 -12.757812 6.375 -13.125 C 7.101562 -13.488281 7.863281 -13.671875 8.65625 -13.671875 C 9.507812 -13.671875 10.265625 -13.507812 10.921875 -13.1875 C 11.585938 -12.875 12.140625 -12.421875 12.578125 -11.828125 C 13.015625 -11.234375 13.347656 -10.519531 13.578125 -9.6875 C 13.804688 -8.851562 13.921875 -7.910156 13.921875 -6.859375 C 13.921875 -5.734375 13.765625 -4.722656 13.453125 -3.828125 C 13.148438 -2.941406 12.734375 -2.1875 12.203125 -1.5625 C 11.671875 -0.9375 11.054688 -0.460938 10.359375 -0.140625 C 9.660156 0.171875 8.925781 0.328125 8.15625 0.328125 C 7.53125 0.328125 6.910156 0.191406 6.296875 -0.078125 C 5.691406 -0.359375 5.078125 -0.734375 4.453125 -1.203125 L 4.5 1.125 L 4.5 5.625 Z M 7.78125 -1.5625 C 8.320312 -1.5625 8.828125 -1.6875 9.296875 -1.9375 C 9.765625 -2.1875 10.164062 -2.535156 10.5 -2.984375 C 10.84375 -3.429688 11.109375 -3.984375 11.296875 -4.640625 C 11.492188 -5.296875 11.59375 -6.035156 11.59375 -6.859375 C 11.59375 -7.597656 11.523438 -8.269531 11.390625 -8.875 C 11.265625 -9.476562 11.0625 -9.992188 10.78125 -10.421875 C 10.5 -10.847656 10.132812 -11.179688 9.6875 -11.421875 C 9.238281 -11.660156 8.703125 -11.78125 8.078125 -11.78125 C 7.503906 -11.78125 6.929688 -11.625 6.359375 -11.3125 C 5.785156 -11 5.164062 -10.550781 4.5 -9.96875 L 4.5 -2.96875 C 5.101562 -2.457031 5.6875 -2.09375 6.25 -1.875 C 6.820312 -1.664062 7.332031 -1.5625 7.78125 -1.5625 Z M 7.78125 -1.5625 "/></g></g></g><g fill="#db5d06" fill-opacity="1"><g transform="translate(313.13188, 220.504427)"><g><path d="M 7.65625 0.328125 C 6.757812 0.328125 5.921875 0.171875 5.140625 -0.140625 C 4.367188 -0.460938 3.691406 -0.921875 3.109375 -1.515625 C 2.535156 -2.117188 2.082031 -2.847656 1.75 -3.703125 C 1.425781 -4.566406 1.265625 -5.546875 1.265625 -6.640625 C 1.265625 -7.742188 1.429688 -8.726562 1.765625 -9.59375 C 2.109375 -10.46875 2.554688 -11.207031 3.109375 -11.8125 C 3.671875 -12.414062 4.304688 -12.875 5.015625 -13.1875 C 5.734375 -13.507812 6.476562 -13.671875 7.25 -13.671875 C 8.09375 -13.671875 8.847656 -13.523438 9.515625 -13.234375 C 10.179688 -12.941406 10.738281 -12.519531 11.1875 -11.96875 C 11.632812 -11.425781 11.976562 -10.769531 12.21875 -10 C 12.457031 -9.226562 12.578125 -8.367188 12.578125 -7.421875 C 12.578125 -7.179688 12.570312 -6.945312 12.5625 -6.71875 C 12.550781 -6.488281 12.53125 -6.289062 12.5 -6.125 L 3.484375 -6.125 C 3.578125 -4.695312 4.019531 -3.566406 4.8125 -2.734375 C 5.613281 -1.898438 6.65625 -1.484375 7.9375 -1.484375 C 8.582031 -1.484375 9.171875 -1.578125 9.703125 -1.765625 C 10.242188 -1.960938 10.765625 -2.21875 11.265625 -2.53125 L 12.0625 -1.046875 C 11.476562 -0.679688 10.828125 -0.359375 10.109375 -0.078125 C 9.390625 0.191406 8.570312 0.328125 7.65625 0.328125 Z M 3.46875 -7.75 L 10.609375 -7.75 C 10.609375 -9.101562 10.316406 -10.128906 9.734375 -10.828125 C 9.160156 -11.535156 8.351562 -11.890625 7.3125 -11.890625 C 6.832031 -11.890625 6.375 -11.796875 5.9375 -11.609375 C 5.507812 -11.429688 5.117188 -11.160156 4.765625 -10.796875 C 4.421875 -10.441406 4.132812 -10.007812 3.90625 -9.5 C 3.6875 -8.988281 3.539062 -8.40625 3.46875 -7.75 Z M 3.46875 -7.75 "/></g></g></g><g fill="#db5d06" fill-opacity="1"><g transform="translate(327.359492, 220.504427)"><g><path d="M 2.25 0 L 2.25 -13.34375 L 4.125 -13.34375 L 4.3125 -10.9375 L 4.390625 -10.9375 C 4.847656 -11.78125 5.398438 -12.445312 6.046875 -12.9375 C 6.703125 -13.425781 7.414062 -13.671875 8.1875 -13.671875 C 8.71875 -13.671875 9.191406 -13.582031 9.609375 -13.40625 L 9.171875 -11.421875 C 8.953125 -11.492188 8.75 -11.546875 8.5625 -11.578125 C 8.382812 -11.617188 8.160156 -11.640625 7.890625 -11.640625 C 7.316406 -11.640625 6.722656 -11.410156 6.109375 -10.953125 C 5.492188 -10.492188 4.957031 -9.695312 4.5 -8.5625 L 4.5 0 Z M 2.25 0 "/></g></g></g><g clip-path="url(#57139077b3)"><path fill="#d9d9d9" d="M 35.65625 199.253906 L 45.335938 199.253906 L 35.65625 173.300781 L 25.292969 173.300781 L 15.84375 198.628906 L 5.183594 227.214844 L 14.863281 227.214844 L 25.523438 198.628906 L 30.472656 185.355469 L 35.65625 199.253906 " fill-opacity="1" fill-rule="nonzero"/></g><g clip-path="url(#9464b0a3c4)"><path fill="#db5d06" d="M 66.863281 173.300781 L 41.515625 173.300781 L 56.015625 212.183594 L 65.691406 212.183594 L 54.574219 182.371094 L 66.863281 182.371094 C 76.742188 182.371094 84.75 190.378906 84.75 200.257812 C 84.75 210.136719 76.742188 218.148438 66.863281 218.148438 L 52.382812 218.148438 L 49.746094 211.085938 L 47.5625 205.222656 L 29.820312 205.222656 L 26.785156 214.292969 L 41.265625 214.292969 L 46.085938 227.214844 L 67.304688 227.214844 L 67.304688 227.207031 C 81.988281 226.972656 93.816406 215 93.816406 200.257812 C 93.816406 185.371094 81.75 173.300781 66.863281 173.300781 " fill-opacity="1" fill-rule="nonzero"/></g></svg>