<svg xmlns="http://www.w3.org/2000/svg" xmlns:xlink="http://www.w3.org/1999/xlink" zoomAndPan="magnify" preserveAspectRatio="xMidYMid meet" version="1.0" viewBox="-0.01 73.36 375.02 228.2"><defs><clipPath id="d28a5e6b97"><path d="M 0 73.359375 L 170 73.359375 L 170 301.359375 L 0 301.359375 Z M 0 73.359375 " clip-rule="nonzero"/></clipPath><clipPath id="c5088dbe64"><path d="M 91 73.359375 L 375 73.359375 L 375 301.359375 L 91 301.359375 Z M 91 73.359375 " clip-rule="nonzero"/></clipPath></defs><g clip-path="url(#d28a5e6b97)"><path fill="#d9d9d9" d="M 128.921875 183.253906 L 169.871094 183.253906 L 128.917969 73.445312 L 85.066406 73.445312 L 45.097656 180.613281 L -0.0117188 301.554688 L 40.9375 301.554688 L 86.046875 180.613281 L 106.992188 124.449219 L 128.921875 183.253906 " fill-opacity="1" fill-rule="nonzero"/></g><g clip-path="url(#c5088dbe64)"><path fill="#db5d06" d="M 260.953125 73.445312 L 153.707031 73.445312 L 215.058594 237.949219 L 256.007812 237.949219 L 208.964844 111.8125 L 260.953125 111.8125 C 302.753906 111.8125 336.644531 145.699219 336.644531 187.5 C 336.644531 229.300781 302.753906 263.1875 260.953125 263.1875 L 199.683594 263.1875 L 188.542969 233.3125 L 188.539062 233.3125 L 179.289062 208.511719 L 104.222656 208.511719 L 91.382812 246.875 L 152.648438 246.875 L 173.042969 301.554688 L 262.832031 301.554688 L 262.824219 301.53125 C 324.949219 300.535156 375.007812 249.867188 375.007812 187.5 C 375.007812 124.507812 323.949219 73.445312 260.953125 73.445312 " fill-opacity="1" fill-rule="nonzero"/></g></svg>