<svg xmlns="http://www.w3.org/2000/svg" xmlns:xlink="http://www.w3.org/1999/xlink" zoomAndPan="magnify" preserveAspectRatio="xMidYMid meet" version="1.0" viewBox="50.82 164.24 271.91 52.17"><defs><g/></defs><g fill="#d9d9d9" fill-opacity="1"><g transform="translate(51.088632, 185.772361)"><g><path d="M 16.453125 -4.53125 L 6.625 -4.53125 L 4.75 0 L -0.265625 0 L 9.15625 -21.15625 L 14 -21.15625 L 23.46875 0 L 18.328125 0 Z M 14.90625 -8.25 L 11.546875 -16.359375 L 8.1875 -8.25 Z M 14.90625 -8.25 "/></g></g></g><g fill="#d9d9d9" fill-opacity="1"><g transform="translate(72.300849, 185.772361)"><g><path d="M 11.90625 0.359375 C 8.882812 0.359375 6.53125 -0.472656 4.84375 -2.140625 C 3.164062 -3.816406 2.328125 -6.207031 2.328125 -9.3125 L 2.328125 -21.15625 L 7.21875 -21.15625 L 7.21875 -9.5 C 7.21875 -5.707031 8.789062 -3.8125 11.9375 -3.8125 C 13.46875 -3.8125 14.632812 -4.269531 15.4375 -5.1875 C 16.25 -6.101562 16.65625 -7.539062 16.65625 -9.5 L 16.65625 -21.15625 L 21.5 -21.15625 L 21.5 -9.3125 C 21.5 -6.207031 20.65625 -3.816406 18.96875 -2.140625 C 17.289062 -0.472656 14.9375 0.359375 11.90625 0.359375 Z M 11.90625 0.359375 "/></g></g></g><g fill="#d9d9d9" fill-opacity="1"><g transform="translate(94.17786, 185.772361)"><g><path d="M 9.46875 0.359375 C 7.789062 0.359375 6.171875 0.132812 4.609375 -0.3125 C 3.046875 -0.769531 1.789062 -1.363281 0.84375 -2.09375 L 2.515625 -5.78125 C 3.421875 -5.113281 4.5 -4.578125 5.75 -4.171875 C 7 -3.765625 8.25 -3.5625 9.5 -3.5625 C 10.882812 -3.5625 11.910156 -3.769531 12.578125 -4.1875 C 13.242188 -4.601562 13.578125 -5.148438 13.578125 -5.828125 C 13.578125 -6.335938 13.378906 -6.757812 12.984375 -7.09375 C 12.585938 -7.425781 12.082031 -7.691406 11.46875 -7.890625 C 10.851562 -8.085938 10.023438 -8.3125 8.984375 -8.5625 C 7.367188 -8.9375 6.046875 -9.316406 5.015625 -9.703125 C 3.992188 -10.085938 3.113281 -10.703125 2.375 -11.546875 C 1.632812 -12.390625 1.265625 -13.519531 1.265625 -14.9375 C 1.265625 -16.164062 1.597656 -17.273438 2.265625 -18.265625 C 2.929688 -19.265625 3.929688 -20.054688 5.265625 -20.640625 C 6.609375 -21.234375 8.25 -21.53125 10.1875 -21.53125 C 11.539062 -21.53125 12.859375 -21.367188 14.140625 -21.046875 C 15.429688 -20.722656 16.5625 -20.257812 17.53125 -19.65625 L 16.03125 -15.9375 C 14.070312 -17.039062 12.113281 -17.59375 10.15625 -17.59375 C 8.789062 -17.59375 7.78125 -17.367188 7.125 -16.921875 C 6.46875 -16.484375 6.140625 -15.898438 6.140625 -15.171875 C 6.140625 -14.453125 6.515625 -13.914062 7.265625 -13.5625 C 8.023438 -13.207031 9.179688 -12.859375 10.734375 -12.515625 C 12.347656 -12.128906 13.664062 -11.742188 14.6875 -11.359375 C 15.71875 -10.984375 16.597656 -10.378906 17.328125 -9.546875 C 18.066406 -8.722656 18.4375 -7.609375 18.4375 -6.203125 C 18.4375 -4.992188 18.097656 -3.890625 17.421875 -2.890625 C 16.753906 -1.890625 15.742188 -1.097656 14.390625 -0.515625 C 13.035156 0.0664062 11.394531 0.359375 9.46875 0.359375 Z M 9.46875 0.359375 "/></g></g></g><g fill="#db5d06" fill-opacity="1"><g transform="translate(111.525136, 185.772361)"><g><path d="M 6.890625 -17.171875 L 0.125 -17.171875 L 0.125 -21.15625 L 18.5625 -21.15625 L 18.5625 -17.171875 L 11.796875 -17.171875 L 11.796875 0 L 6.890625 0 Z M 6.890625 -17.171875 "/></g></g></g><g fill="#db5d06" fill-opacity="1"><g transform="translate(128.265065, 185.772361)"><g><path d="M 2.515625 -21.15625 L 7.40625 -21.15625 L 7.40625 0 L 2.515625 0 Z M 2.515625 -21.15625 "/></g></g></g><g fill="#db5d06" fill-opacity="1"><g transform="translate(136.241724, 185.772361)"><g><path d="M 21.921875 -21.15625 L 21.921875 0 L 17.90625 0 L 7.34375 -12.84375 L 7.34375 0 L 2.515625 0 L 2.515625 -21.15625 L 6.5625 -21.15625 L 17.078125 -8.3125 L 17.078125 -21.15625 Z M 21.921875 -21.15625 "/></g></g></g><g fill="#db5d06" fill-opacity="1"><g transform="translate(158.723106, 185.772361)"><g/></g></g><g fill="#d9d9d9" fill-opacity="1"><g transform="translate(165.341243, 185.772361)"><g><path d="M 2.515625 -21.15625 L 12.125 -21.15625 C 14.425781 -21.15625 16.457031 -20.71875 18.21875 -19.84375 C 19.976562 -18.96875 21.347656 -17.734375 22.328125 -16.140625 C 23.304688 -14.546875 23.796875 -12.691406 23.796875 -10.578125 C 23.796875 -8.460938 23.304688 -6.609375 22.328125 -5.015625 C 21.347656 -3.421875 19.976562 -2.1875 18.21875 -1.3125 C 16.457031 -0.4375 14.425781 0 12.125 0 L 2.515625 0 Z M 11.875 -4.015625 C 14 -4.015625 15.691406 -4.601562 16.953125 -5.78125 C 18.210938 -6.96875 18.84375 -8.566406 18.84375 -10.578125 C 18.84375 -12.597656 18.210938 -14.195312 16.953125 -15.375 C 15.691406 -16.550781 14 -17.140625 11.875 -17.140625 L 7.40625 -17.140625 L 7.40625 -4.015625 Z M 11.875 -4.015625 "/></g></g></g><g fill="#d9d9d9" fill-opacity="1"><g transform="translate(188.366553, 185.772361)"><g><path d="M 18.890625 -3.9375 L 18.890625 0 L 2.515625 0 L 2.515625 -21.15625 L 18.5 -21.15625 L 18.5 -17.234375 L 7.375 -17.234375 L 7.375 -12.640625 L 17.203125 -12.640625 L 17.203125 -8.828125 L 7.375 -8.828125 L 7.375 -3.9375 Z M 18.890625 -3.9375 "/></g></g></g><g fill="#d9d9d9" fill-opacity="1"><g transform="translate(206.708035, 185.772361)"><g><path d="M 21.921875 -21.15625 L 21.921875 0 L 17.90625 0 L 7.34375 -12.84375 L 7.34375 0 L 2.515625 0 L 2.515625 -21.15625 L 6.5625 -21.15625 L 17.078125 -8.3125 L 17.078125 -21.15625 Z M 21.921875 -21.15625 "/></g></g></g><g fill="#d9d9d9" fill-opacity="1"><g transform="translate(229.189417, 185.772361)"><g><path d="M 12.765625 0.359375 C 10.566406 0.359375 8.582031 -0.113281 6.8125 -1.0625 C 5.050781 -2.007812 3.671875 -3.3125 2.671875 -4.96875 C 1.671875 -6.632812 1.171875 -8.503906 1.171875 -10.578125 C 1.171875 -12.660156 1.671875 -14.53125 2.671875 -16.1875 C 3.671875 -17.851562 5.050781 -19.160156 6.8125 -20.109375 C 8.582031 -21.054688 10.566406 -21.53125 12.765625 -21.53125 C 14.953125 -21.53125 16.921875 -21.054688 18.671875 -20.109375 C 20.429688 -19.160156 21.816406 -17.851562 22.828125 -16.1875 C 23.835938 -14.53125 24.34375 -12.660156 24.34375 -10.578125 C 24.34375 -8.503906 23.835938 -6.632812 22.828125 -4.96875 C 21.816406 -3.3125 20.429688 -2.007812 18.671875 -1.0625 C 16.921875 -0.113281 14.953125 0.359375 12.765625 0.359375 Z M 12.765625 -3.8125 C 14.015625 -3.8125 15.140625 -4.097656 16.140625 -4.671875 C 17.148438 -5.242188 17.941406 -6.039062 18.515625 -7.0625 C 19.085938 -8.09375 19.375 -9.265625 19.375 -10.578125 C 19.375 -11.890625 19.085938 -13.054688 18.515625 -14.078125 C 17.941406 -15.109375 17.148438 -15.910156 16.140625 -16.484375 C 15.140625 -17.066406 14.015625 -17.359375 12.765625 -17.359375 C 11.515625 -17.359375 10.382812 -17.066406 9.375 -16.484375 C 8.363281 -15.910156 7.570312 -15.109375 7 -14.078125 C 6.425781 -13.054688 6.140625 -11.890625 6.140625 -10.578125 C 6.140625 -9.265625 6.425781 -8.09375 7 -7.0625 C 7.570312 -6.039062 8.363281 -5.242188 9.375 -4.671875 C 10.382812 -4.097656 11.515625 -3.8125 12.765625 -3.8125 Z M 12.765625 -3.8125 "/></g></g></g><g fill="#db5d06" fill-opacity="1"><g transform="translate(252.760266, 185.772361)"><g><path d="M 7.40625 -17.234375 L 7.40625 -11.640625 L 17.203125 -11.640625 L 17.203125 -7.703125 L 7.40625 -7.703125 L 7.40625 0 L 2.515625 0 L 2.515625 -21.15625 L 18.5 -21.15625 L 18.5 -17.234375 Z M 7.40625 -17.234375 "/></g></g></g><g fill="#db5d06" fill-opacity="1"><g transform="translate(270.134766, 185.772361)"><g><path d="M 16 0 L 11.90625 -5.890625 L 7.40625 -5.890625 L 7.40625 0 L 2.515625 0 L 2.515625 -21.15625 L 11.671875 -21.15625 C 13.546875 -21.15625 15.171875 -20.84375 16.546875 -20.21875 C 17.929688 -19.601562 18.992188 -18.71875 19.734375 -17.5625 C 20.484375 -16.414062 20.859375 -15.054688 20.859375 -13.484375 C 20.859375 -11.910156 20.476562 -10.550781 19.71875 -9.40625 C 18.96875 -8.269531 17.898438 -7.398438 16.515625 -6.796875 L 21.25 0 Z M 15.90625 -13.484375 C 15.90625 -14.671875 15.519531 -15.582031 14.75 -16.21875 C 13.988281 -16.851562 12.867188 -17.171875 11.390625 -17.171875 L 7.40625 -17.171875 L 7.40625 -9.796875 L 11.390625 -9.796875 C 12.867188 -9.796875 13.988281 -10.117188 14.75 -10.765625 C 15.519531 -11.410156 15.90625 -12.316406 15.90625 -13.484375 Z M 15.90625 -13.484375 "/></g></g></g><g fill="#db5d06" fill-opacity="1"><g transform="translate(290.410212, 185.772361)"><g><path d="M 2.515625 -21.15625 L 7.40625 -21.15625 L 7.40625 0 L 2.515625 0 Z M 2.515625 -21.15625 "/></g></g></g><g fill="#db5d06" fill-opacity="1"><g transform="translate(298.386869, 185.772361)"><g><path d="M 12.765625 0.359375 C 10.566406 0.359375 8.582031 -0.113281 6.8125 -1.0625 C 5.050781 -2.007812 3.671875 -3.3125 2.671875 -4.96875 C 1.671875 -6.632812 1.171875 -8.503906 1.171875 -10.578125 C 1.171875 -12.660156 1.671875 -14.53125 2.671875 -16.1875 C 3.671875 -17.851562 5.050781 -19.160156 6.8125 -20.109375 C 8.582031 -21.054688 10.566406 -21.53125 12.765625 -21.53125 C 14.953125 -21.53125 16.921875 -21.054688 18.671875 -20.109375 C 20.429688 -19.160156 21.816406 -17.851562 22.828125 -16.1875 C 23.835938 -14.53125 24.34375 -12.660156 24.34375 -10.578125 C 24.34375 -8.503906 23.835938 -6.632812 22.828125 -4.96875 C 21.816406 -3.3125 20.429688 -2.007812 18.671875 -1.0625 C 16.921875 -0.113281 14.953125 0.359375 12.765625 0.359375 Z M 12.765625 -3.8125 C 14.015625 -3.8125 15.140625 -4.097656 16.140625 -4.671875 C 17.148438 -5.242188 17.941406 -6.039062 18.515625 -7.0625 C 19.085938 -8.09375 19.375 -9.265625 19.375 -10.578125 C 19.375 -11.890625 19.085938 -13.054688 18.515625 -14.078125 C 17.941406 -15.109375 17.148438 -15.910156 16.140625 -16.484375 C 15.140625 -17.066406 14.015625 -17.359375 12.765625 -17.359375 C 11.515625 -17.359375 10.382812 -17.066406 9.375 -16.484375 C 8.363281 -15.910156 7.570312 -15.109375 7 -14.078125 C 6.425781 -13.054688 6.140625 -11.890625 6.140625 -10.578125 C 6.140625 -9.265625 6.425781 -8.09375 7 -7.0625 C 7.570312 -6.039062 8.363281 -5.242188 9.375 -4.671875 C 10.382812 -4.097656 11.515625 -3.8125 12.765625 -3.8125 Z M 12.765625 -3.8125 "/></g></g></g><g fill="#db5d06" fill-opacity="1"><g transform="translate(59.959494, 210.783453)"><g><path d="M 7.453125 0.328125 C 6.191406 0.328125 5.019531 0.09375 3.9375 -0.375 C 2.863281 -0.851562 1.9375 -1.503906 1.15625 -2.328125 L 2.515625 -3.921875 C 3.160156 -3.242188 3.914062 -2.695312 4.78125 -2.28125 C 5.644531 -1.875 6.546875 -1.671875 7.484375 -1.671875 C 8.671875 -1.671875 9.59375 -1.9375 10.25 -2.46875 C 10.90625 -3.007812 11.234375 -3.722656 11.234375 -4.609375 C 11.234375 -5.066406 11.15625 -5.453125 11 -5.765625 C 10.84375 -6.085938 10.628906 -6.363281 10.359375 -6.59375 C 10.097656 -6.820312 9.785156 -7.023438 9.421875 -7.203125 C 9.054688 -7.390625 8.664062 -7.582031 8.25 -7.78125 L 5.671875 -8.90625 C 5.253906 -9.09375 4.828125 -9.3125 4.390625 -9.5625 C 3.953125 -9.820312 3.554688 -10.132812 3.203125 -10.5 C 2.859375 -10.863281 2.578125 -11.296875 2.359375 -11.796875 C 2.140625 -12.296875 2.03125 -12.875 2.03125 -13.53125 C 2.03125 -14.207031 2.171875 -14.835938 2.453125 -15.421875 C 2.734375 -16.015625 3.125 -16.523438 3.625 -16.953125 C 4.132812 -17.378906 4.726562 -17.710938 5.40625 -17.953125 C 6.09375 -18.191406 6.847656 -18.3125 7.671875 -18.3125 C 8.753906 -18.3125 9.75 -18.101562 10.65625 -17.6875 C 11.570312 -17.28125 12.347656 -16.75 12.984375 -16.09375 L 11.75 -14.609375 C 11.207031 -15.140625 10.601562 -15.554688 9.9375 -15.859375 C 9.269531 -16.160156 8.515625 -16.3125 7.671875 -16.3125 C 6.671875 -16.3125 5.863281 -16.078125 5.25 -15.609375 C 4.632812 -15.140625 4.328125 -14.492188 4.328125 -13.671875 C 4.328125 -13.234375 4.410156 -12.863281 4.578125 -12.5625 C 4.753906 -12.257812 4.988281 -11.992188 5.28125 -11.765625 C 5.582031 -11.535156 5.90625 -11.332031 6.25 -11.15625 C 6.59375 -10.988281 6.945312 -10.832031 7.3125 -10.6875 L 9.859375 -9.59375 C 10.378906 -9.375 10.863281 -9.117188 11.3125 -8.828125 C 11.769531 -8.546875 12.160156 -8.21875 12.484375 -7.84375 C 12.816406 -7.476562 13.078125 -7.039062 13.265625 -6.53125 C 13.460938 -6.03125 13.5625 -5.453125 13.5625 -4.796875 C 13.5625 -4.085938 13.421875 -3.421875 13.140625 -2.796875 C 12.859375 -2.171875 12.453125 -1.625 11.921875 -1.15625 C 11.390625 -0.695312 10.75 -0.332031 10 -0.0625 C 9.25 0.195312 8.398438 0.328125 7.453125 0.328125 Z M 7.453125 0.328125 "/></g></g></g><g fill="#db5d06" fill-opacity="1"><g transform="translate(75.196076, 210.783453)"><g><path d="M 7.421875 0.328125 C 6.597656 0.328125 5.816406 0.171875 5.078125 -0.140625 C 4.335938 -0.453125 3.6875 -0.90625 3.125 -1.5 C 2.5625 -2.09375 2.109375 -2.820312 1.765625 -3.6875 C 1.429688 -4.550781 1.265625 -5.53125 1.265625 -6.625 C 1.265625 -7.738281 1.429688 -8.726562 1.765625 -9.59375 C 2.109375 -10.46875 2.5625 -11.207031 3.125 -11.8125 C 3.6875 -12.414062 4.335938 -12.867188 5.078125 -13.171875 C 5.816406 -13.484375 6.597656 -13.640625 7.421875 -13.640625 C 8.242188 -13.640625 9.023438 -13.484375 9.765625 -13.171875 C 10.503906 -12.867188 11.15625 -12.414062 11.71875 -11.8125 C 12.289062 -11.207031 12.742188 -10.46875 13.078125 -9.59375 C 13.421875 -8.726562 13.59375 -7.738281 13.59375 -6.625 C 13.59375 -5.53125 13.421875 -4.550781 13.078125 -3.6875 C 12.742188 -2.820312 12.289062 -2.09375 11.71875 -1.5 C 11.15625 -0.90625 10.503906 -0.453125 9.765625 -0.140625 C 9.023438 0.171875 8.242188 0.328125 7.421875 0.328125 Z M 7.421875 -1.53125 C 7.992188 -1.53125 8.515625 -1.65625 8.984375 -1.90625 C 9.460938 -2.15625 9.867188 -2.503906 10.203125 -2.953125 C 10.546875 -3.398438 10.804688 -3.929688 10.984375 -4.546875 C 11.171875 -5.171875 11.265625 -5.863281 11.265625 -6.625 C 11.265625 -7.394531 11.171875 -8.09375 10.984375 -8.71875 C 10.804688 -9.351562 10.546875 -9.898438 10.203125 -10.359375 C 9.867188 -10.816406 9.460938 -11.164062 8.984375 -11.40625 C 8.515625 -11.65625 7.992188 -11.78125 7.421875 -11.78125 C 6.859375 -11.78125 6.335938 -11.65625 5.859375 -11.40625 C 5.390625 -11.164062 4.984375 -10.816406 4.640625 -10.359375 C 4.304688 -9.898438 4.046875 -9.351562 3.859375 -8.71875 C 3.679688 -8.09375 3.59375 -7.394531 3.59375 -6.625 C 3.59375 -5.863281 3.679688 -5.171875 3.859375 -4.546875 C 4.046875 -3.929688 4.304688 -3.398438 4.640625 -2.953125 C 4.984375 -2.503906 5.390625 -2.15625 5.859375 -1.90625 C 6.335938 -1.65625 6.859375 -1.53125 7.421875 -1.53125 Z M 7.421875 -1.53125 "/></g></g></g><g fill="#db5d06" fill-opacity="1"><g transform="translate(90.651886, 210.783453)"><g><path d="M 2.625 0 L 2.625 -11.484375 L 0.828125 -11.484375 L 0.828125 -13.1875 L 2.625 -13.3125 L 2.625 -15.4375 C 2.625 -16.800781 2.9375 -17.875 3.5625 -18.65625 C 4.195312 -19.445312 5.179688 -19.84375 6.515625 -19.84375 C 6.941406 -19.84375 7.34375 -19.800781 7.71875 -19.71875 C 8.09375 -19.632812 8.4375 -19.53125 8.75 -19.40625 L 8.25 -17.671875 C 7.757812 -17.890625 7.253906 -18 6.734375 -18 C 5.492188 -18 4.875 -17.144531 4.875 -15.4375 L 4.875 -13.3125 L 7.703125 -13.3125 L 7.703125 -11.484375 L 4.875 -11.484375 L 4.875 0 Z M 2.625 0 "/></g></g></g><g fill="#db5d06" fill-opacity="1"><g transform="translate(99.256875, 210.783453)"><g><path d="M 6.4375 0.328125 C 5.726562 0.328125 5.128906 0.21875 4.640625 0 C 4.160156 -0.21875 3.769531 -0.519531 3.46875 -0.90625 C 3.164062 -1.289062 2.945312 -1.753906 2.8125 -2.296875 C 2.6875 -2.847656 2.625 -3.453125 2.625 -4.109375 L 2.625 -11.484375 L 0.65625 -11.484375 L 0.65625 -13.1875 L 2.734375 -13.3125 L 3.015625 -17.046875 L 4.90625 -17.046875 L 4.90625 -13.3125 L 8.5 -13.3125 L 8.5 -11.484375 L 4.90625 -11.484375 L 4.90625 -4.078125 C 4.90625 -3.253906 5.054688 -2.617188 5.359375 -2.171875 C 5.660156 -1.722656 6.195312 -1.5 6.96875 -1.5 C 7.195312 -1.5 7.445312 -1.535156 7.71875 -1.609375 C 8 -1.691406 8.25 -1.773438 8.46875 -1.859375 L 8.90625 -0.171875 C 8.539062 -0.0351562 8.144531 0.078125 7.71875 0.171875 C 7.289062 0.273438 6.863281 0.328125 6.4375 0.328125 Z M 6.4375 0.328125 "/></g></g></g><g fill="#db5d06" fill-opacity="1"><g transform="translate(109.12242, 210.783453)"><g><path d="M 4.359375 0 L 0.65625 -13.3125 L 2.953125 -13.3125 L 4.9375 -5.625 C 5.082031 -4.976562 5.21875 -4.351562 5.34375 -3.75 C 5.46875 -3.144531 5.597656 -2.535156 5.734375 -1.921875 L 5.84375 -1.921875 C 5.988281 -2.535156 6.132812 -3.148438 6.28125 -3.765625 C 6.425781 -4.378906 6.578125 -5 6.734375 -5.625 L 8.796875 -13.3125 L 10.984375 -13.3125 L 13.078125 -5.625 C 13.234375 -4.976562 13.390625 -4.351562 13.546875 -3.75 C 13.703125 -3.144531 13.851562 -2.535156 14 -1.921875 L 14.109375 -1.921875 C 14.253906 -2.535156 14.390625 -3.144531 14.515625 -3.75 C 14.648438 -4.351562 14.789062 -4.976562 14.9375 -5.625 L 16.875 -13.3125 L 19.015625 -13.3125 L 15.453125 0 L 12.71875 0 L 10.796875 -7.15625 C 10.628906 -7.789062 10.476562 -8.414062 10.34375 -9.03125 C 10.207031 -9.65625 10.054688 -10.304688 9.890625 -10.984375 L 9.78125 -10.984375 C 9.632812 -10.304688 9.488281 -9.648438 9.34375 -9.015625 C 9.195312 -8.390625 9.035156 -7.757812 8.859375 -7.125 L 6.984375 0 Z M 4.359375 0 "/></g></g></g><g fill="#db5d06" fill-opacity="1"><g transform="translate(129.401196, 210.783453)"><g><path d="M 5.3125 0.328125 C 4.195312 0.328125 3.269531 0 2.53125 -0.65625 C 1.789062 -1.3125 1.421875 -2.242188 1.421875 -3.453125 C 1.421875 -4.910156 2.066406 -6.023438 3.359375 -6.796875 C 4.660156 -7.578125 6.738281 -8.125 9.59375 -8.4375 C 9.59375 -8.863281 9.550781 -9.273438 9.46875 -9.671875 C 9.382812 -10.078125 9.242188 -10.429688 9.046875 -10.734375 C 8.847656 -11.046875 8.566406 -11.296875 8.203125 -11.484375 C 7.847656 -11.679688 7.394531 -11.78125 6.84375 -11.78125 C 6.082031 -11.78125 5.363281 -11.632812 4.6875 -11.34375 C 4.007812 -11.050781 3.40625 -10.722656 2.875 -10.359375 L 2 -11.921875 C 2.625 -12.328125 3.382812 -12.710938 4.28125 -13.078125 C 5.175781 -13.453125 6.160156 -13.640625 7.234375 -13.640625 C 8.859375 -13.640625 10.035156 -13.140625 10.765625 -12.140625 C 11.492188 -11.148438 11.859375 -9.828125 11.859375 -8.171875 L 11.859375 0 L 10 0 L 9.8125 -1.59375 L 9.734375 -1.59375 C 9.085938 -1.0625 8.398438 -0.609375 7.671875 -0.234375 C 6.941406 0.140625 6.15625 0.328125 5.3125 0.328125 Z M 5.96875 -1.484375 C 6.613281 -1.484375 7.21875 -1.632812 7.78125 -1.9375 C 8.351562 -2.238281 8.957031 -2.679688 9.59375 -3.265625 L 9.59375 -6.96875 C 8.476562 -6.8125 7.539062 -6.632812 6.78125 -6.4375 C 6.019531 -6.238281 5.40625 -6 4.9375 -5.71875 C 4.476562 -5.445312 4.144531 -5.132812 3.9375 -4.78125 C 3.726562 -4.425781 3.625 -4.039062 3.625 -3.625 C 3.625 -2.851562 3.847656 -2.300781 4.296875 -1.96875 C 4.753906 -1.644531 5.3125 -1.484375 5.96875 -1.484375 Z M 5.96875 -1.484375 "/></g></g></g><g fill="#db5d06" fill-opacity="1"><g transform="translate(143.815673, 210.783453)"><g><path d="M 2.25 0 L 2.25 -13.3125 L 4.109375 -13.3125 L 4.296875 -10.90625 L 4.390625 -10.90625 C 4.835938 -11.75 5.382812 -12.414062 6.03125 -12.90625 C 6.6875 -13.394531 7.398438 -13.640625 8.171875 -13.640625 C 8.703125 -13.640625 9.175781 -13.550781 9.59375 -13.375 L 9.15625 -11.40625 C 8.9375 -11.476562 8.734375 -11.53125 8.546875 -11.5625 C 8.367188 -11.601562 8.140625 -11.625 7.859375 -11.625 C 7.296875 -11.625 6.707031 -11.394531 6.09375 -10.9375 C 5.488281 -10.476562 4.957031 -9.679688 4.5 -8.546875 L 4.5 0 Z M 2.25 0 "/></g></g></g><g fill="#db5d06" fill-opacity="1"><g transform="translate(153.927842, 210.783453)"><g><path d="M 7.640625 0.328125 C 6.742188 0.328125 5.90625 0.171875 5.125 -0.140625 C 4.351562 -0.460938 3.679688 -0.921875 3.109375 -1.515625 C 2.535156 -2.109375 2.082031 -2.832031 1.75 -3.6875 C 1.425781 -4.550781 1.265625 -5.53125 1.265625 -6.625 C 1.265625 -7.726562 1.429688 -8.710938 1.765625 -9.578125 C 2.109375 -10.441406 2.554688 -11.175781 3.109375 -11.78125 C 3.671875 -12.382812 4.304688 -12.84375 5.015625 -13.15625 C 5.722656 -13.476562 6.460938 -13.640625 7.234375 -13.640625 C 8.078125 -13.640625 8.832031 -13.492188 9.5 -13.203125 C 10.164062 -12.910156 10.722656 -12.488281 11.171875 -11.9375 C 11.617188 -11.394531 11.957031 -10.738281 12.1875 -9.96875 C 12.425781 -9.207031 12.546875 -8.351562 12.546875 -7.40625 C 12.546875 -7.164062 12.539062 -6.929688 12.53125 -6.703125 C 12.53125 -6.472656 12.507812 -6.273438 12.46875 -6.109375 L 3.484375 -6.109375 C 3.578125 -4.679688 4.019531 -3.550781 4.8125 -2.71875 C 5.601562 -1.894531 6.640625 -1.484375 7.921875 -1.484375 C 8.554688 -1.484375 9.144531 -1.578125 9.6875 -1.765625 C 10.226562 -1.960938 10.742188 -2.210938 11.234375 -2.515625 L 12.03125 -1.046875 C 11.445312 -0.679688 10.796875 -0.359375 10.078125 -0.078125 C 9.367188 0.191406 8.554688 0.328125 7.640625 0.328125 Z M 3.453125 -7.734375 L 10.578125 -7.734375 C 10.578125 -9.078125 10.289062 -10.097656 9.71875 -10.796875 C 9.144531 -11.503906 8.335938 -11.859375 7.296875 -11.859375 C 6.816406 -11.859375 6.363281 -11.765625 5.9375 -11.578125 C 5.507812 -11.398438 5.117188 -11.132812 4.765625 -10.78125 C 4.421875 -10.425781 4.132812 -9.992188 3.90625 -9.484375 C 3.675781 -8.972656 3.523438 -8.390625 3.453125 -7.734375 Z M 3.453125 -7.734375 "/></g></g></g><g fill="#db5d06" fill-opacity="1"><g transform="translate(168.123092, 210.783453)"><g/></g></g><g fill="#db5d06" fill-opacity="1"><g transform="translate(174.206988, 210.783453)"><g><path d="M 2.46875 0 L 2.46875 -17.984375 L 6.96875 -17.984375 C 9.738281 -17.984375 11.84375 -17.210938 13.28125 -15.671875 C 14.726562 -14.140625 15.453125 -11.941406 15.453125 -9.078125 C 15.453125 -7.648438 15.269531 -6.375 14.90625 -5.25 C 14.539062 -4.125 14 -3.171875 13.28125 -2.390625 C 12.570312 -1.617188 11.695312 -1.023438 10.65625 -0.609375 C 9.613281 -0.203125 8.421875 0 7.078125 0 Z M 4.734375 -1.859375 L 6.796875 -1.859375 C 8.898438 -1.859375 10.472656 -2.488281 11.515625 -3.75 C 12.566406 -5.007812 13.09375 -6.785156 13.09375 -9.078125 C 13.09375 -11.359375 12.566406 -13.097656 11.515625 -14.296875 C 10.472656 -15.503906 8.898438 -16.109375 6.796875 -16.109375 L 4.734375 -16.109375 Z M 4.734375 -1.859375 "/></g></g></g><g fill="#db5d06" fill-opacity="1"><g transform="translate(191.663234, 210.783453)"><g><path d="M 7.640625 0.328125 C 6.742188 0.328125 5.90625 0.171875 5.125 -0.140625 C 4.351562 -0.460938 3.679688 -0.921875 3.109375 -1.515625 C 2.535156 -2.109375 2.082031 -2.832031 1.75 -3.6875 C 1.425781 -4.550781 1.265625 -5.53125 1.265625 -6.625 C 1.265625 -7.726562 1.429688 -8.710938 1.765625 -9.578125 C 2.109375 -10.441406 2.554688 -11.175781 3.109375 -11.78125 C 3.671875 -12.382812 4.304688 -12.84375 5.015625 -13.15625 C 5.722656 -13.476562 6.460938 -13.640625 7.234375 -13.640625 C 8.078125 -13.640625 8.832031 -13.492188 9.5 -13.203125 C 10.164062 -12.910156 10.722656 -12.488281 11.171875 -11.9375 C 11.617188 -11.394531 11.957031 -10.738281 12.1875 -9.96875 C 12.425781 -9.207031 12.546875 -8.351562 12.546875 -7.40625 C 12.546875 -7.164062 12.539062 -6.929688 12.53125 -6.703125 C 12.53125 -6.472656 12.507812 -6.273438 12.46875 -6.109375 L 3.484375 -6.109375 C 3.578125 -4.679688 4.019531 -3.550781 4.8125 -2.71875 C 5.601562 -1.894531 6.640625 -1.484375 7.921875 -1.484375 C 8.554688 -1.484375 9.144531 -1.578125 9.6875 -1.765625 C 10.226562 -1.960938 10.742188 -2.210938 11.234375 -2.515625 L 12.03125 -1.046875 C 11.445312 -0.679688 10.796875 -0.359375 10.078125 -0.078125 C 9.367188 0.191406 8.554688 0.328125 7.640625 0.328125 Z M 3.453125 -7.734375 L 10.578125 -7.734375 C 10.578125 -9.078125 10.289062 -10.097656 9.71875 -10.796875 C 9.144531 -11.503906 8.335938 -11.859375 7.296875 -11.859375 C 6.816406 -11.859375 6.363281 -11.765625 5.9375 -11.578125 C 5.507812 -11.398438 5.117188 -11.132812 4.765625 -10.78125 C 4.421875 -10.425781 4.132812 -9.992188 3.90625 -9.484375 C 3.675781 -8.972656 3.523438 -8.390625 3.453125 -7.734375 Z M 3.453125 -7.734375 "/></g></g></g><g fill="#db5d06" fill-opacity="1"><g transform="translate(205.85849, 210.783453)"><g><path d="M 5.125 0 L 0.328125 -13.3125 L 2.65625 -13.3125 L 5.1875 -5.75 C 5.382812 -5.09375 5.585938 -4.4375 5.796875 -3.78125 C 6.003906 -3.125 6.207031 -2.476562 6.40625 -1.84375 L 6.515625 -1.84375 C 6.722656 -2.476562 6.925781 -3.125 7.125 -3.78125 C 7.320312 -4.4375 7.523438 -5.09375 7.734375 -5.75 L 10.25 -13.3125 L 12.46875 -13.3125 L 7.75 0 Z M 5.125 0 "/></g></g></g><g fill="#db5d06" fill-opacity="1"><g transform="translate(219.259053, 210.783453)"><g><path d="M 7.640625 0.328125 C 6.742188 0.328125 5.90625 0.171875 5.125 -0.140625 C 4.351562 -0.460938 3.679688 -0.921875 3.109375 -1.515625 C 2.535156 -2.109375 2.082031 -2.832031 1.75 -3.6875 C 1.425781 -4.550781 1.265625 -5.53125 1.265625 -6.625 C 1.265625 -7.726562 1.429688 -8.710938 1.765625 -9.578125 C 2.109375 -10.441406 2.554688 -11.175781 3.109375 -11.78125 C 3.671875 -12.382812 4.304688 -12.84375 5.015625 -13.15625 C 5.722656 -13.476562 6.460938 -13.640625 7.234375 -13.640625 C 8.078125 -13.640625 8.832031 -13.492188 9.5 -13.203125 C 10.164062 -12.910156 10.722656 -12.488281 11.171875 -11.9375 C 11.617188 -11.394531 11.957031 -10.738281 12.1875 -9.96875 C 12.425781 -9.207031 12.546875 -8.351562 12.546875 -7.40625 C 12.546875 -7.164062 12.539062 -6.929688 12.53125 -6.703125 C 12.53125 -6.472656 12.507812 -6.273438 12.46875 -6.109375 L 3.484375 -6.109375 C 3.578125 -4.679688 4.019531 -3.550781 4.8125 -2.71875 C 5.601562 -1.894531 6.640625 -1.484375 7.921875 -1.484375 C 8.554688 -1.484375 9.144531 -1.578125 9.6875 -1.765625 C 10.226562 -1.960938 10.742188 -2.210938 11.234375 -2.515625 L 12.03125 -1.046875 C 11.445312 -0.679688 10.796875 -0.359375 10.078125 -0.078125 C 9.367188 0.191406 8.554688 0.328125 7.640625 0.328125 Z M 3.453125 -7.734375 L 10.578125 -7.734375 C 10.578125 -9.078125 10.289062 -10.097656 9.71875 -10.796875 C 9.144531 -11.503906 8.335938 -11.859375 7.296875 -11.859375 C 6.816406 -11.859375 6.363281 -11.765625 5.9375 -11.578125 C 5.507812 -11.398438 5.117188 -11.132812 4.765625 -10.78125 C 4.421875 -10.425781 4.132812 -9.992188 3.90625 -9.484375 C 3.675781 -8.972656 3.523438 -8.390625 3.453125 -7.734375 Z M 3.453125 -7.734375 "/></g></g></g><g fill="#db5d06" fill-opacity="1"><g transform="translate(233.45431, 210.783453)"><g><path d="M 4.625 0.328125 C 3.769531 0.328125 3.160156 0.0703125 2.796875 -0.4375 C 2.429688 -0.945312 2.25 -1.695312 2.25 -2.6875 L 2.25 -19.515625 L 4.5 -19.515625 L 4.5 -2.515625 C 4.5 -2.148438 4.5625 -1.894531 4.6875 -1.75 C 4.8125 -1.601562 4.957031 -1.53125 5.125 -1.53125 C 5.195312 -1.53125 5.265625 -1.53125 5.328125 -1.53125 C 5.390625 -1.53125 5.488281 -1.550781 5.625 -1.59375 L 5.921875 0.109375 C 5.773438 0.179688 5.597656 0.234375 5.390625 0.265625 C 5.191406 0.304688 4.9375 0.328125 4.625 0.328125 Z M 4.625 0.328125 "/></g></g></g><g fill="#db5d06" fill-opacity="1"><g transform="translate(241.045394, 210.783453)"><g><path d="M 7.421875 0.328125 C 6.597656 0.328125 5.816406 0.171875 5.078125 -0.140625 C 4.335938 -0.453125 3.6875 -0.90625 3.125 -1.5 C 2.5625 -2.09375 2.109375 -2.820312 1.765625 -3.6875 C 1.429688 -4.550781 1.265625 -5.53125 1.265625 -6.625 C 1.265625 -7.738281 1.429688 -8.726562 1.765625 -9.59375 C 2.109375 -10.46875 2.5625 -11.207031 3.125 -11.8125 C 3.6875 -12.414062 4.335938 -12.867188 5.078125 -13.171875 C 5.816406 -13.484375 6.597656 -13.640625 7.421875 -13.640625 C 8.242188 -13.640625 9.023438 -13.484375 9.765625 -13.171875 C 10.503906 -12.867188 11.15625 -12.414062 11.71875 -11.8125 C 12.289062 -11.207031 12.742188 -10.46875 13.078125 -9.59375 C 13.421875 -8.726562 13.59375 -7.738281 13.59375 -6.625 C 13.59375 -5.53125 13.421875 -4.550781 13.078125 -3.6875 C 12.742188 -2.820312 12.289062 -2.09375 11.71875 -1.5 C 11.15625 -0.90625 10.503906 -0.453125 9.765625 -0.140625 C 9.023438 0.171875 8.242188 0.328125 7.421875 0.328125 Z M 7.421875 -1.53125 C 7.992188 -1.53125 8.515625 -1.65625 8.984375 -1.90625 C 9.460938 -2.15625 9.867188 -2.503906 10.203125 -2.953125 C 10.546875 -3.398438 10.804688 -3.929688 10.984375 -4.546875 C 11.171875 -5.171875 11.265625 -5.863281 11.265625 -6.625 C 11.265625 -7.394531 11.171875 -8.09375 10.984375 -8.71875 C 10.804688 -9.351562 10.546875 -9.898438 10.203125 -10.359375 C 9.867188 -10.816406 9.460938 -11.164062 8.984375 -11.40625 C 8.515625 -11.65625 7.992188 -11.78125 7.421875 -11.78125 C 6.859375 -11.78125 6.335938 -11.65625 5.859375 -11.40625 C 5.390625 -11.164062 4.984375 -10.816406 4.640625 -10.359375 C 4.304688 -9.898438 4.046875 -9.351562 3.859375 -8.71875 C 3.679688 -8.09375 3.59375 -7.394531 3.59375 -6.625 C 3.59375 -5.863281 3.679688 -5.171875 3.859375 -4.546875 C 4.046875 -3.929688 4.304688 -3.398438 4.640625 -2.953125 C 4.984375 -2.503906 5.390625 -2.15625 5.859375 -1.90625 C 6.335938 -1.65625 6.859375 -1.53125 7.421875 -1.53125 Z M 7.421875 -1.53125 "/></g></g></g><g fill="#db5d06" fill-opacity="1"><g transform="translate(256.501209, 210.783453)"><g><path d="M 2.25 5.625 L 2.25 -13.3125 L 4.109375 -13.3125 L 4.296875 -11.78125 L 4.390625 -11.78125 C 4.992188 -12.289062 5.65625 -12.726562 6.375 -13.09375 C 7.09375 -13.457031 7.847656 -13.640625 8.640625 -13.640625 C 9.492188 -13.640625 10.25 -13.476562 10.90625 -13.15625 C 11.5625 -12.84375 12.109375 -12.390625 12.546875 -11.796875 C 12.984375 -11.203125 13.316406 -10.488281 13.546875 -9.65625 C 13.773438 -8.820312 13.890625 -7.882812 13.890625 -6.84375 C 13.890625 -5.71875 13.734375 -4.710938 13.421875 -3.828125 C 13.117188 -2.941406 12.703125 -2.1875 12.171875 -1.5625 C 11.640625 -0.9375 11.023438 -0.460938 10.328125 -0.140625 C 9.640625 0.171875 8.910156 0.328125 8.140625 0.328125 C 7.515625 0.328125 6.894531 0.191406 6.28125 -0.078125 C 5.675781 -0.359375 5.0625 -0.734375 4.4375 -1.203125 L 4.5 1.125 L 4.5 5.625 Z M 7.75 -1.5625 C 8.300781 -1.5625 8.804688 -1.679688 9.265625 -1.921875 C 9.734375 -2.171875 10.132812 -2.519531 10.46875 -2.96875 C 10.8125 -3.414062 11.078125 -3.96875 11.265625 -4.625 C 11.460938 -5.289062 11.5625 -6.03125 11.5625 -6.84375 C 11.5625 -7.582031 11.5 -8.25 11.375 -8.84375 C 11.25 -9.445312 11.039062 -9.960938 10.75 -10.390625 C 10.46875 -10.828125 10.101562 -11.160156 9.65625 -11.390625 C 9.207031 -11.628906 8.675781 -11.75 8.0625 -11.75 C 7.488281 -11.75 6.914062 -11.59375 6.34375 -11.28125 C 5.769531 -10.976562 5.15625 -10.535156 4.5 -9.953125 L 4.5 -2.953125 C 5.101562 -2.441406 5.6875 -2.082031 6.25 -1.875 C 6.8125 -1.664062 7.3125 -1.5625 7.75 -1.5625 Z M 7.75 -1.5625 "/></g></g></g><g fill="#db5d06" fill-opacity="1"><g transform="translate(272.313262, 210.783453)"><g><path d="M 7.640625 0.328125 C 6.742188 0.328125 5.90625 0.171875 5.125 -0.140625 C 4.351562 -0.460938 3.679688 -0.921875 3.109375 -1.515625 C 2.535156 -2.109375 2.082031 -2.832031 1.75 -3.6875 C 1.425781 -4.550781 1.265625 -5.53125 1.265625 -6.625 C 1.265625 -7.726562 1.429688 -8.710938 1.765625 -9.578125 C 2.109375 -10.441406 2.554688 -11.175781 3.109375 -11.78125 C 3.671875 -12.382812 4.304688 -12.84375 5.015625 -13.15625 C 5.722656 -13.476562 6.460938 -13.640625 7.234375 -13.640625 C 8.078125 -13.640625 8.832031 -13.492188 9.5 -13.203125 C 10.164062 -12.910156 10.722656 -12.488281 11.171875 -11.9375 C 11.617188 -11.394531 11.957031 -10.738281 12.1875 -9.96875 C 12.425781 -9.207031 12.546875 -8.351562 12.546875 -7.40625 C 12.546875 -7.164062 12.539062 -6.929688 12.53125 -6.703125 C 12.53125 -6.472656 12.507812 -6.273438 12.46875 -6.109375 L 3.484375 -6.109375 C 3.578125 -4.679688 4.019531 -3.550781 4.8125 -2.71875 C 5.601562 -1.894531 6.640625 -1.484375 7.921875 -1.484375 C 8.554688 -1.484375 9.144531 -1.578125 9.6875 -1.765625 C 10.226562 -1.960938 10.742188 -2.210938 11.234375 -2.515625 L 12.03125 -1.046875 C 11.445312 -0.679688 10.796875 -0.359375 10.078125 -0.078125 C 9.367188 0.191406 8.554688 0.328125 7.640625 0.328125 Z M 3.453125 -7.734375 L 10.578125 -7.734375 C 10.578125 -9.078125 10.289062 -10.097656 9.71875 -10.796875 C 9.144531 -11.503906 8.335938 -11.859375 7.296875 -11.859375 C 6.816406 -11.859375 6.363281 -11.765625 5.9375 -11.578125 C 5.507812 -11.398438 5.117188 -11.132812 4.765625 -10.78125 C 4.421875 -10.425781 4.132812 -9.992188 3.90625 -9.484375 C 3.675781 -8.972656 3.523438 -8.390625 3.453125 -7.734375 Z M 3.453125 -7.734375 "/></g></g></g><g fill="#db5d06" fill-opacity="1"><g transform="translate(286.508505, 210.783453)"><g><path d="M 2.25 0 L 2.25 -13.3125 L 4.109375 -13.3125 L 4.296875 -10.90625 L 4.390625 -10.90625 C 4.835938 -11.75 5.382812 -12.414062 6.03125 -12.90625 C 6.6875 -13.394531 7.398438 -13.640625 8.171875 -13.640625 C 8.703125 -13.640625 9.175781 -13.550781 9.59375 -13.375 L 9.15625 -11.40625 C 8.9375 -11.476562 8.734375 -11.53125 8.546875 -11.5625 C 8.367188 -11.601562 8.140625 -11.625 7.859375 -11.625 C 7.296875 -11.625 6.707031 -11.394531 6.09375 -10.9375 C 5.488281 -10.476562 4.957031 -9.679688 4.5 -8.546875 L 4.5 0 Z M 2.25 0 "/></g></g></g></svg>