<svg xmlns="http://www.w3.org/2000/svg" xmlns:xlink="http://www.w3.org/1999/xlink" zoomAndPan="magnify" preserveAspectRatio="xMidYMid meet" version="1.0" viewBox="2.37 101.94 372.63 178.34"><defs><g/><clipPath id="c576d76393"><path d="M 283.070312 101.941406 L 325 101.941406 L 325 158 L 283.070312 158 Z M 283.070312 101.941406 " clip-rule="nonzero"/></clipPath><clipPath id="e77cd1bafd"><path d="M 305 101.941406 L 375 101.941406 L 375 158 L 305 158 Z M 305 101.941406 " clip-rule="nonzero"/></clipPath></defs><g clip-path="url(#c576d76393)"><path fill="#d9d9d9" d="M 314.671875 128.878906 L 324.710938 128.878906 L 314.671875 101.960938 L 303.921875 101.960938 L 294.125 128.230469 L 283.070312 157.875 L 293.105469 157.875 L 304.164062 128.230469 L 309.296875 114.464844 L 314.671875 128.878906 " fill-opacity="1" fill-rule="nonzero"/></g><g clip-path="url(#e77cd1bafd)"><path fill="#db5d06" d="M 347.039062 101.960938 L 320.75 101.960938 L 335.789062 142.285156 L 345.824219 142.285156 L 334.292969 111.363281 L 347.039062 111.363281 C 357.285156 111.363281 365.589844 119.671875 365.589844 129.917969 C 365.589844 140.164062 357.285156 148.472656 347.039062 148.472656 L 332.019531 148.472656 L 329.289062 141.148438 L 329.285156 141.148438 L 327.019531 135.070312 L 308.617188 135.070312 L 305.472656 144.472656 L 320.488281 144.472656 L 325.488281 157.875 L 347.496094 157.875 L 347.496094 157.871094 C 362.722656 157.625 374.996094 145.207031 374.996094 129.917969 C 374.996094 114.476562 362.480469 101.960938 347.039062 101.960938 " fill-opacity="1" fill-rule="nonzero"/></g><g fill="#db5d06" fill-opacity="1"><g transform="translate(0.54093, 271.371687)"><g><path d="M 11.8125 0.515625 C 9.8125 0.515625 7.957031 0.140625 6.25 -0.609375 C 4.539062 -1.359375 3.066406 -2.382812 1.828125 -3.6875 L 4 -6.203125 C 5.007812 -5.140625 6.203125 -4.28125 7.578125 -3.625 C 8.953125 -2.976562 10.378906 -2.65625 11.859375 -2.65625 C 13.734375 -2.65625 15.191406 -3.078125 16.234375 -3.921875 C 17.273438 -4.773438 17.796875 -5.898438 17.796875 -7.296875 C 17.796875 -8.015625 17.671875 -8.628906 17.421875 -9.140625 C 17.179688 -9.648438 16.851562 -10.082031 16.4375 -10.4375 C 16.019531 -10.800781 15.519531 -11.128906 14.9375 -11.421875 C 14.351562 -11.710938 13.726562 -12.015625 13.0625 -12.328125 L 8.984375 -14.109375 C 8.316406 -14.398438 7.632812 -14.75 6.9375 -15.15625 C 6.25 -15.5625 5.628906 -16.050781 5.078125 -16.625 C 4.523438 -17.207031 4.078125 -17.894531 3.734375 -18.6875 C 3.390625 -19.488281 3.21875 -20.410156 3.21875 -21.453125 C 3.21875 -22.523438 3.441406 -23.523438 3.890625 -24.453125 C 4.335938 -25.378906 4.957031 -26.179688 5.75 -26.859375 C 6.550781 -27.535156 7.492188 -28.0625 8.578125 -28.4375 C 9.660156 -28.8125 10.851562 -29 12.15625 -29 C 13.863281 -29 15.441406 -28.671875 16.890625 -28.015625 C 18.335938 -27.367188 19.566406 -26.523438 20.578125 -25.484375 L 18.625 -23.140625 C 17.757812 -23.984375 16.796875 -24.644531 15.734375 -25.125 C 14.679688 -25.601562 13.488281 -25.84375 12.15625 -25.84375 C 10.5625 -25.84375 9.28125 -25.472656 8.3125 -24.734375 C 7.34375 -23.992188 6.859375 -22.972656 6.859375 -21.671875 C 6.859375 -20.972656 6.992188 -20.382812 7.265625 -19.90625 C 7.546875 -19.425781 7.914062 -19.003906 8.375 -18.640625 C 8.84375 -18.285156 9.347656 -17.96875 9.890625 -17.6875 C 10.441406 -17.414062 11.007812 -17.164062 11.59375 -16.9375 L 15.625 -15.203125 C 16.4375 -14.847656 17.203125 -14.445312 17.921875 -14 C 18.648438 -13.550781 19.273438 -13.03125 19.796875 -12.4375 C 20.316406 -11.84375 20.726562 -11.144531 21.03125 -10.34375 C 21.34375 -9.550781 21.5 -8.632812 21.5 -7.59375 C 21.5 -6.46875 21.269531 -5.410156 20.8125 -4.421875 C 20.363281 -3.441406 19.71875 -2.582031 18.875 -1.84375 C 18.039062 -1.101562 17.03125 -0.523438 15.84375 -0.109375 C 14.65625 0.304688 13.3125 0.515625 11.8125 0.515625 Z M 11.8125 0.515625 "/></g></g></g><g fill="#db5d06" fill-opacity="1"><g transform="translate(24.675711, 271.371687)"><g><path d="M 11.765625 0.515625 C 10.460938 0.515625 9.222656 0.269531 8.046875 -0.21875 C 6.878906 -0.707031 5.847656 -1.421875 4.953125 -2.359375 C 4.054688 -3.304688 3.335938 -4.46875 2.796875 -5.84375 C 2.265625 -7.21875 2 -8.773438 2 -10.515625 C 2 -12.273438 2.265625 -13.84375 2.796875 -15.21875 C 3.335938 -16.59375 4.054688 -17.753906 4.953125 -18.703125 C 5.847656 -19.660156 6.878906 -20.382812 8.046875 -20.875 C 9.222656 -21.375 10.460938 -21.625 11.765625 -21.625 C 13.066406 -21.625 14.300781 -21.375 15.46875 -20.875 C 16.644531 -20.382812 17.679688 -19.660156 18.578125 -18.703125 C 19.484375 -17.753906 20.203125 -16.59375 20.734375 -15.21875 C 21.265625 -13.84375 21.53125 -12.273438 21.53125 -10.515625 C 21.53125 -8.773438 21.265625 -7.21875 20.734375 -5.84375 C 20.203125 -4.46875 19.484375 -3.304688 18.578125 -2.359375 C 17.679688 -1.421875 16.644531 -0.707031 15.46875 -0.21875 C 14.300781 0.269531 13.066406 0.515625 11.765625 0.515625 Z M 11.765625 -2.4375 C 12.660156 -2.4375 13.484375 -2.628906 14.234375 -3.015625 C 14.992188 -3.410156 15.640625 -3.960938 16.171875 -4.671875 C 16.710938 -5.378906 17.125 -6.222656 17.40625 -7.203125 C 17.695312 -8.191406 17.84375 -9.296875 17.84375 -10.515625 C 17.84375 -11.722656 17.695312 -12.828125 17.40625 -13.828125 C 17.125 -14.828125 16.710938 -15.6875 16.171875 -16.40625 C 15.640625 -17.132812 14.992188 -17.691406 14.234375 -18.078125 C 13.484375 -18.472656 12.660156 -18.671875 11.765625 -18.671875 C 10.867188 -18.671875 10.039062 -18.472656 9.28125 -18.078125 C 8.53125 -17.691406 7.890625 -17.132812 7.359375 -16.40625 C 6.828125 -15.6875 6.414062 -14.828125 6.125 -13.828125 C 5.832031 -12.828125 5.6875 -11.722656 5.6875 -10.515625 C 5.6875 -9.296875 5.832031 -8.191406 6.125 -7.203125 C 6.414062 -6.222656 6.828125 -5.378906 7.359375 -4.671875 C 7.890625 -3.960938 8.53125 -3.410156 9.28125 -3.015625 C 10.039062 -2.628906 10.867188 -2.4375 11.765625 -2.4375 Z M 11.765625 -2.4375 "/></g></g></g><g fill="#db5d06" fill-opacity="1"><g transform="translate(49.157749, 271.371687)"><g><path d="M 4.171875 0 L 4.171875 -18.1875 L 1.296875 -18.1875 L 1.296875 -20.890625 L 4.171875 -21.109375 L 4.171875 -24.453125 C 4.171875 -26.617188 4.671875 -28.320312 5.671875 -29.5625 C 6.671875 -30.8125 8.222656 -31.4375 10.328125 -31.4375 C 10.992188 -31.4375 11.625 -31.367188 12.21875 -31.234375 C 12.8125 -31.109375 13.359375 -30.945312 13.859375 -30.75 L 13.0625 -28 C 12.28125 -28.351562 11.488281 -28.53125 10.6875 -28.53125 C 8.71875 -28.53125 7.734375 -27.171875 7.734375 -24.453125 L 7.734375 -21.109375 L 12.203125 -21.109375 L 12.203125 -18.1875 L 7.734375 -18.1875 L 7.734375 0 Z M 4.171875 0 "/></g></g></g><g fill="#db5d06" fill-opacity="1"><g transform="translate(62.788072, 271.371687)"><g><path d="M 10.203125 0.515625 C 9.078125 0.515625 8.128906 0.34375 7.359375 0 C 6.585938 -0.34375 5.960938 -0.816406 5.484375 -1.421875 C 5.015625 -2.035156 4.675781 -2.773438 4.46875 -3.640625 C 4.269531 -4.515625 4.171875 -5.472656 4.171875 -6.515625 L 4.171875 -18.1875 L 1.046875 -18.1875 L 1.046875 -20.890625 L 4.34375 -21.109375 L 4.78125 -27.015625 L 7.765625 -27.015625 L 7.765625 -21.109375 L 13.453125 -21.109375 L 13.453125 -18.1875 L 7.765625 -18.1875 L 7.765625 -6.46875 C 7.765625 -5.164062 8.003906 -4.160156 8.484375 -3.453125 C 8.960938 -2.742188 9.8125 -2.390625 11.03125 -2.390625 C 11.40625 -2.390625 11.804688 -2.445312 12.234375 -2.5625 C 12.671875 -2.675781 13.066406 -2.804688 13.421875 -2.953125 L 14.109375 -0.265625 C 13.535156 -0.0546875 12.90625 0.125 12.21875 0.28125 C 11.539062 0.4375 10.867188 0.515625 10.203125 0.515625 Z M 10.203125 0.515625 "/></g></g></g><g fill="#db5d06" fill-opacity="1"><g transform="translate(78.415117, 271.371687)"><g><path d="M 6.90625 0 L 1.046875 -21.109375 L 4.6875 -21.109375 L 7.8125 -8.90625 C 8.039062 -7.882812 8.253906 -6.894531 8.453125 -5.9375 C 8.660156 -4.988281 8.867188 -4.023438 9.078125 -3.046875 L 9.25 -3.046875 C 9.476562 -4.023438 9.707031 -5 9.9375 -5.96875 C 10.175781 -6.9375 10.425781 -7.914062 10.6875 -8.90625 L 13.9375 -21.109375 L 17.40625 -21.109375 L 20.71875 -8.90625 C 20.976562 -7.882812 21.226562 -6.894531 21.46875 -5.9375 C 21.71875 -4.988281 21.957031 -4.023438 22.1875 -3.046875 L 22.359375 -3.046875 C 22.585938 -4.023438 22.800781 -4.988281 23 -5.9375 C 23.207031 -6.894531 23.429688 -7.882812 23.671875 -8.90625 L 26.75 -21.109375 L 30.140625 -21.109375 L 24.484375 0 L 20.140625 0 L 17.109375 -11.328125 C 16.847656 -12.347656 16.609375 -13.347656 16.390625 -14.328125 C 16.171875 -15.316406 15.929688 -16.34375 15.671875 -17.40625 L 15.5 -17.40625 C 15.269531 -16.34375 15.035156 -15.3125 14.796875 -14.3125 C 14.566406 -13.3125 14.3125 -12.304688 14.03125 -11.296875 L 11.078125 0 Z M 6.90625 0 "/></g></g></g><g fill="#db5d06" fill-opacity="1"><g transform="translate(110.536744, 271.371687)"><g><path d="M 8.421875 0.515625 C 6.660156 0.515625 5.191406 -0.00390625 4.015625 -1.046875 C 2.847656 -2.085938 2.265625 -3.5625 2.265625 -5.46875 C 2.265625 -7.78125 3.289062 -9.550781 5.34375 -10.78125 C 7.394531 -12.019531 10.679688 -12.882812 15.203125 -13.375 C 15.203125 -14.039062 15.132812 -14.691406 15 -15.328125 C 14.875 -15.960938 14.648438 -16.523438 14.328125 -17.015625 C 14.015625 -17.515625 13.570312 -17.914062 13 -18.21875 C 12.4375 -18.519531 11.722656 -18.671875 10.859375 -18.671875 C 9.640625 -18.671875 8.492188 -18.4375 7.421875 -17.96875 C 6.347656 -17.507812 5.394531 -16.988281 4.5625 -16.40625 L 3.171875 -18.890625 C 4.148438 -19.523438 5.347656 -20.140625 6.765625 -20.734375 C 8.191406 -21.328125 9.757812 -21.625 11.46875 -21.625 C 14.039062 -21.625 15.90625 -20.832031 17.0625 -19.25 C 18.21875 -17.675781 18.796875 -15.570312 18.796875 -12.9375 L 18.796875 0 L 15.84375 0 L 15.546875 -2.515625 L 15.421875 -2.515625 C 14.398438 -1.679688 13.3125 -0.96875 12.15625 -0.375 C 11 0.21875 9.753906 0.515625 8.421875 0.515625 Z M 9.46875 -2.34375 C 10.476562 -2.34375 11.429688 -2.582031 12.328125 -3.0625 C 13.222656 -3.539062 14.179688 -4.242188 15.203125 -5.171875 L 15.203125 -11.03125 C 13.429688 -10.800781 11.941406 -10.523438 10.734375 -10.203125 C 9.535156 -9.878906 8.566406 -9.5 7.828125 -9.0625 C 7.097656 -8.632812 6.566406 -8.140625 6.234375 -7.578125 C 5.898438 -7.015625 5.734375 -6.398438 5.734375 -5.734375 C 5.734375 -4.515625 6.09375 -3.644531 6.8125 -3.125 C 7.539062 -2.601562 8.425781 -2.34375 9.46875 -2.34375 Z M 9.46875 -2.34375 "/></g></g></g><g fill="#db5d06" fill-opacity="1"><g transform="translate(133.369309, 271.371687)"><g><path d="M 3.5625 0 L 3.5625 -21.109375 L 6.515625 -21.109375 L 6.8125 -17.28125 L 6.953125 -17.28125 C 7.671875 -18.613281 8.539062 -19.671875 9.5625 -20.453125 C 10.59375 -21.234375 11.71875 -21.625 12.9375 -21.625 C 13.78125 -21.625 14.535156 -21.476562 15.203125 -21.1875 L 14.5 -18.0625 C 14.15625 -18.175781 13.835938 -18.257812 13.546875 -18.3125 C 13.253906 -18.375 12.894531 -18.40625 12.46875 -18.40625 C 11.5625 -18.40625 10.625 -18.039062 9.65625 -17.3125 C 8.6875 -16.59375 7.84375 -15.335938 7.125 -13.546875 L 7.125 0 Z M 3.5625 0 "/></g></g></g><g fill="#db5d06" fill-opacity="1"><g transform="translate(149.387008, 271.371687)"><g><path d="M 12.109375 0.515625 C 10.691406 0.515625 9.367188 0.265625 8.140625 -0.234375 C 6.910156 -0.742188 5.835938 -1.46875 4.921875 -2.40625 C 4.015625 -3.351562 3.300781 -4.503906 2.78125 -5.859375 C 2.257812 -7.222656 2 -8.773438 2 -10.515625 C 2 -12.242188 2.265625 -13.796875 2.796875 -15.171875 C 3.335938 -16.546875 4.046875 -17.710938 4.921875 -18.671875 C 5.804688 -19.628906 6.8125 -20.359375 7.9375 -20.859375 C 9.070312 -21.367188 10.25 -21.625 11.46875 -21.625 C 12.789062 -21.625 13.976562 -21.390625 15.03125 -20.921875 C 16.09375 -20.460938 16.976562 -19.796875 17.6875 -18.921875 C 18.40625 -18.054688 18.953125 -17.015625 19.328125 -15.796875 C 19.703125 -14.585938 19.890625 -13.226562 19.890625 -11.71875 C 19.890625 -11.34375 19.878906 -10.972656 19.859375 -10.609375 C 19.847656 -10.253906 19.8125 -9.945312 19.75 -9.6875 L 5.515625 -9.6875 C 5.660156 -7.425781 6.363281 -5.632812 7.625 -4.3125 C 8.882812 -3 10.523438 -2.34375 12.546875 -2.34375 C 13.554688 -2.34375 14.488281 -2.492188 15.34375 -2.796875 C 16.195312 -3.097656 17.015625 -3.5 17.796875 -4 L 19.0625 -1.65625 C 18.132812 -1.070312 17.101562 -0.5625 15.96875 -0.125 C 14.84375 0.300781 13.554688 0.515625 12.109375 0.515625 Z M 5.46875 -12.25 L 16.765625 -12.25 C 16.765625 -14.382812 16.304688 -16.007812 15.390625 -17.125 C 14.484375 -18.238281 13.203125 -18.796875 11.546875 -18.796875 C 10.796875 -18.796875 10.078125 -18.648438 9.390625 -18.359375 C 8.710938 -18.078125 8.097656 -17.648438 7.546875 -17.078125 C 7.003906 -16.515625 6.550781 -15.828125 6.1875 -15.015625 C 5.820312 -14.210938 5.582031 -13.289062 5.46875 -12.25 Z M 5.46875 -12.25 "/></g></g></g><g fill="#db5d06" fill-opacity="1"><g transform="translate(171.872316, 271.371687)"><g/></g></g><g fill="#db5d06" fill-opacity="1"><g transform="translate(181.50922, 271.371687)"><g><path d="M 3.90625 0 L 3.90625 -28.484375 L 11.03125 -28.484375 C 15.425781 -28.484375 18.765625 -27.265625 21.046875 -24.828125 C 23.335938 -22.398438 24.484375 -18.914062 24.484375 -14.375 C 24.484375 -12.113281 24.191406 -10.09375 23.609375 -8.3125 C 23.035156 -6.53125 22.179688 -5.023438 21.046875 -3.796875 C 19.921875 -2.566406 18.535156 -1.625 16.890625 -0.96875 C 15.242188 -0.320312 13.347656 0 11.203125 0 Z M 7.515625 -2.953125 L 10.765625 -2.953125 C 14.097656 -2.953125 16.59375 -3.945312 18.25 -5.9375 C 19.914062 -7.9375 20.75 -10.75 20.75 -14.375 C 20.75 -17.988281 19.914062 -20.75 18.25 -22.65625 C 16.59375 -24.570312 14.097656 -25.53125 10.765625 -25.53125 L 7.515625 -25.53125 Z M 7.515625 -2.953125 "/></g></g></g><g fill="#db5d06" fill-opacity="1"><g transform="translate(209.159954, 271.371687)"><g><path d="M 12.109375 0.515625 C 10.691406 0.515625 9.367188 0.265625 8.140625 -0.234375 C 6.910156 -0.742188 5.835938 -1.46875 4.921875 -2.40625 C 4.015625 -3.351562 3.300781 -4.503906 2.78125 -5.859375 C 2.257812 -7.222656 2 -8.773438 2 -10.515625 C 2 -12.242188 2.265625 -13.796875 2.796875 -15.171875 C 3.335938 -16.546875 4.046875 -17.710938 4.921875 -18.671875 C 5.804688 -19.628906 6.8125 -20.359375 7.9375 -20.859375 C 9.070312 -21.367188 10.25 -21.625 11.46875 -21.625 C 12.789062 -21.625 13.976562 -21.390625 15.03125 -20.921875 C 16.09375 -20.460938 16.976562 -19.796875 17.6875 -18.921875 C 18.40625 -18.054688 18.953125 -17.015625 19.328125 -15.796875 C 19.703125 -14.585938 19.890625 -13.226562 19.890625 -11.71875 C 19.890625 -11.34375 19.878906 -10.972656 19.859375 -10.609375 C 19.847656 -10.253906 19.8125 -9.945312 19.75 -9.6875 L 5.515625 -9.6875 C 5.660156 -7.425781 6.363281 -5.632812 7.625 -4.3125 C 8.882812 -3 10.523438 -2.34375 12.546875 -2.34375 C 13.554688 -2.34375 14.488281 -2.492188 15.34375 -2.796875 C 16.195312 -3.097656 17.015625 -3.5 17.796875 -4 L 19.0625 -1.65625 C 18.132812 -1.070312 17.101562 -0.5625 15.96875 -0.125 C 14.84375 0.300781 13.554688 0.515625 12.109375 0.515625 Z M 5.46875 -12.25 L 16.765625 -12.25 C 16.765625 -14.382812 16.304688 -16.007812 15.390625 -17.125 C 14.484375 -18.238281 13.203125 -18.796875 11.546875 -18.796875 C 10.796875 -18.796875 10.078125 -18.648438 9.390625 -18.359375 C 8.710938 -18.078125 8.097656 -17.648438 7.546875 -17.078125 C 7.003906 -16.515625 6.550781 -15.828125 6.1875 -15.015625 C 5.820312 -14.210938 5.582031 -13.289062 5.46875 -12.25 Z M 5.46875 -12.25 "/></g></g></g><g fill="#db5d06" fill-opacity="1"><g transform="translate(231.645272, 271.371687)"><g><path d="M 8.125 0 L 0.515625 -21.109375 L 4.21875 -21.109375 L 8.203125 -9.125 C 8.523438 -8.082031 8.851562 -7.035156 9.1875 -5.984375 C 9.519531 -4.941406 9.84375 -3.914062 10.15625 -2.90625 L 10.328125 -2.90625 C 10.648438 -3.914062 10.96875 -4.941406 11.28125 -5.984375 C 11.601562 -7.035156 11.925781 -8.082031 12.25 -9.125 L 16.234375 -21.109375 L 19.75 -21.109375 L 12.28125 0 Z M 8.125 0 "/></g></g></g><g fill="#db5d06" fill-opacity="1"><g transform="translate(252.871794, 271.371687)"><g><path d="M 12.109375 0.515625 C 10.691406 0.515625 9.367188 0.265625 8.140625 -0.234375 C 6.910156 -0.742188 5.835938 -1.46875 4.921875 -2.40625 C 4.015625 -3.351562 3.300781 -4.503906 2.78125 -5.859375 C 2.257812 -7.222656 2 -8.773438 2 -10.515625 C 2 -12.242188 2.265625 -13.796875 2.796875 -15.171875 C 3.335938 -16.546875 4.046875 -17.710938 4.921875 -18.671875 C 5.804688 -19.628906 6.8125 -20.359375 7.9375 -20.859375 C 9.070312 -21.367188 10.25 -21.625 11.46875 -21.625 C 12.789062 -21.625 13.976562 -21.390625 15.03125 -20.921875 C 16.09375 -20.460938 16.976562 -19.796875 17.6875 -18.921875 C 18.40625 -18.054688 18.953125 -17.015625 19.328125 -15.796875 C 19.703125 -14.585938 19.890625 -13.226562 19.890625 -11.71875 C 19.890625 -11.34375 19.878906 -10.972656 19.859375 -10.609375 C 19.847656 -10.253906 19.8125 -9.945312 19.75 -9.6875 L 5.515625 -9.6875 C 5.660156 -7.425781 6.363281 -5.632812 7.625 -4.3125 C 8.882812 -3 10.523438 -2.34375 12.546875 -2.34375 C 13.554688 -2.34375 14.488281 -2.492188 15.34375 -2.796875 C 16.195312 -3.097656 17.015625 -3.5 17.796875 -4 L 19.0625 -1.65625 C 18.132812 -1.070312 17.101562 -0.5625 15.96875 -0.125 C 14.84375 0.300781 13.554688 0.515625 12.109375 0.515625 Z M 5.46875 -12.25 L 16.765625 -12.25 C 16.765625 -14.382812 16.304688 -16.007812 15.390625 -17.125 C 14.484375 -18.238281 13.203125 -18.796875 11.546875 -18.796875 C 10.796875 -18.796875 10.078125 -18.648438 9.390625 -18.359375 C 8.710938 -18.078125 8.097656 -17.648438 7.546875 -17.078125 C 7.003906 -16.515625 6.550781 -15.828125 6.1875 -15.015625 C 5.820312 -14.210938 5.582031 -13.289062 5.46875 -12.25 Z M 5.46875 -12.25 "/></g></g></g><g fill="#db5d06" fill-opacity="1"><g transform="translate(275.357113, 271.371687)"><g><path d="M 7.34375 0.515625 C 5.976562 0.515625 5.003906 0.113281 4.421875 -0.6875 C 3.847656 -1.5 3.5625 -2.6875 3.5625 -4.25 L 3.5625 -30.921875 L 7.125 -30.921875 L 7.125 -4 C 7.125 -3.414062 7.222656 -3.007812 7.421875 -2.78125 C 7.628906 -2.550781 7.863281 -2.4375 8.125 -2.4375 C 8.238281 -2.4375 8.34375 -2.4375 8.4375 -2.4375 C 8.539062 -2.4375 8.695312 -2.460938 8.90625 -2.515625 L 9.375 0.171875 C 9.144531 0.285156 8.867188 0.367188 8.546875 0.421875 C 8.234375 0.484375 7.832031 0.515625 7.34375 0.515625 Z M 7.34375 0.515625 "/></g></g></g><g fill="#db5d06" fill-opacity="1"><g transform="translate(287.381408, 271.371687)"><g><path d="M 11.765625 0.515625 C 10.460938 0.515625 9.222656 0.269531 8.046875 -0.21875 C 6.878906 -0.707031 5.847656 -1.421875 4.953125 -2.359375 C 4.054688 -3.304688 3.335938 -4.46875 2.796875 -5.84375 C 2.265625 -7.21875 2 -8.773438 2 -10.515625 C 2 -12.273438 2.265625 -13.84375 2.796875 -15.21875 C 3.335938 -16.59375 4.054688 -17.753906 4.953125 -18.703125 C 5.847656 -19.660156 6.878906 -20.382812 8.046875 -20.875 C 9.222656 -21.375 10.460938 -21.625 11.765625 -21.625 C 13.066406 -21.625 14.300781 -21.375 15.46875 -20.875 C 16.644531 -20.382812 17.679688 -19.660156 18.578125 -18.703125 C 19.484375 -17.753906 20.203125 -16.59375 20.734375 -15.21875 C 21.265625 -13.84375 21.53125 -12.273438 21.53125 -10.515625 C 21.53125 -8.773438 21.265625 -7.21875 20.734375 -5.84375 C 20.203125 -4.46875 19.484375 -3.304688 18.578125 -2.359375 C 17.679688 -1.421875 16.644531 -0.707031 15.46875 -0.21875 C 14.300781 0.269531 13.066406 0.515625 11.765625 0.515625 Z M 11.765625 -2.4375 C 12.660156 -2.4375 13.484375 -2.628906 14.234375 -3.015625 C 14.992188 -3.410156 15.640625 -3.960938 16.171875 -4.671875 C 16.710938 -5.378906 17.125 -6.222656 17.40625 -7.203125 C 17.695312 -8.191406 17.84375 -9.296875 17.84375 -10.515625 C 17.84375 -11.722656 17.695312 -12.828125 17.40625 -13.828125 C 17.125 -14.828125 16.710938 -15.6875 16.171875 -16.40625 C 15.640625 -17.132812 14.992188 -17.691406 14.234375 -18.078125 C 13.484375 -18.472656 12.660156 -18.671875 11.765625 -18.671875 C 10.867188 -18.671875 10.039062 -18.472656 9.28125 -18.078125 C 8.53125 -17.691406 7.890625 -17.132812 7.359375 -16.40625 C 6.828125 -15.6875 6.414062 -14.828125 6.125 -13.828125 C 5.832031 -12.828125 5.6875 -11.722656 5.6875 -10.515625 C 5.6875 -9.296875 5.832031 -8.191406 6.125 -7.203125 C 6.414062 -6.222656 6.828125 -5.378906 7.359375 -4.671875 C 7.890625 -3.960938 8.53125 -3.410156 9.28125 -3.015625 C 10.039062 -2.628906 10.867188 -2.4375 11.765625 -2.4375 Z M 11.765625 -2.4375 "/></g></g></g><g fill="#db5d06" fill-opacity="1"><g transform="translate(311.863454, 271.371687)"><g><path d="M 3.5625 8.90625 L 3.5625 -21.109375 L 6.515625 -21.109375 L 6.8125 -18.671875 L 6.953125 -18.671875 C 7.898438 -19.484375 8.945312 -20.175781 10.09375 -20.75 C 11.238281 -21.332031 12.429688 -21.625 13.671875 -21.625 C 15.035156 -21.625 16.238281 -21.367188 17.28125 -20.859375 C 18.320312 -20.359375 19.1875 -19.632812 19.875 -18.6875 C 20.570312 -17.75 21.101562 -16.617188 21.46875 -15.296875 C 21.832031 -13.984375 22.015625 -12.503906 22.015625 -10.859375 C 22.015625 -9.054688 21.765625 -7.453125 21.265625 -6.046875 C 20.773438 -4.648438 20.109375 -3.457031 19.265625 -2.46875 C 18.429688 -1.488281 17.460938 -0.742188 16.359375 -0.234375 C 15.265625 0.265625 14.109375 0.515625 12.890625 0.515625 C 11.910156 0.515625 10.9375 0.300781 9.96875 -0.125 C 9 -0.5625 8.019531 -1.15625 7.03125 -1.90625 L 7.125 1.78125 L 7.125 8.90625 Z M 12.28125 -2.46875 C 13.15625 -2.46875 13.960938 -2.660156 14.703125 -3.046875 C 15.441406 -3.441406 16.078125 -3.992188 16.609375 -4.703125 C 17.140625 -5.421875 17.554688 -6.300781 17.859375 -7.34375 C 18.171875 -8.382812 18.328125 -9.554688 18.328125 -10.859375 C 18.328125 -12.015625 18.222656 -13.066406 18.015625 -14.015625 C 17.816406 -14.972656 17.492188 -15.789062 17.046875 -16.46875 C 16.597656 -17.15625 16.019531 -17.6875 15.3125 -18.0625 C 14.601562 -18.4375 13.753906 -18.625 12.765625 -18.625 C 11.867188 -18.625 10.960938 -18.378906 10.046875 -17.890625 C 9.140625 -17.398438 8.164062 -16.691406 7.125 -15.765625 L 7.125 -4.6875 C 8.070312 -3.875 8.992188 -3.300781 9.890625 -2.96875 C 10.796875 -2.632812 11.59375 -2.46875 12.28125 -2.46875 Z M 12.28125 -2.46875 "/></g></g></g><g fill="#db5d06" fill-opacity="1"><g transform="translate(336.909781, 271.371687)"><g><path d="M 12.109375 0.515625 C 10.691406 0.515625 9.367188 0.265625 8.140625 -0.234375 C 6.910156 -0.742188 5.835938 -1.46875 4.921875 -2.40625 C 4.015625 -3.351562 3.300781 -4.503906 2.78125 -5.859375 C 2.257812 -7.222656 2 -8.773438 2 -10.515625 C 2 -12.242188 2.265625 -13.796875 2.796875 -15.171875 C 3.335938 -16.546875 4.046875 -17.710938 4.921875 -18.671875 C 5.804688 -19.628906 6.8125 -20.359375 7.9375 -20.859375 C 9.070312 -21.367188 10.25 -21.625 11.46875 -21.625 C 12.789062 -21.625 13.976562 -21.390625 15.03125 -20.921875 C 16.09375 -20.460938 16.976562 -19.796875 17.6875 -18.921875 C 18.40625 -18.054688 18.953125 -17.015625 19.328125 -15.796875 C 19.703125 -14.585938 19.890625 -13.226562 19.890625 -11.71875 C 19.890625 -11.34375 19.878906 -10.972656 19.859375 -10.609375 C 19.847656 -10.253906 19.8125 -9.945312 19.75 -9.6875 L 5.515625 -9.6875 C 5.660156 -7.425781 6.363281 -5.632812 7.625 -4.3125 C 8.882812 -3 10.523438 -2.34375 12.546875 -2.34375 C 13.554688 -2.34375 14.488281 -2.492188 15.34375 -2.796875 C 16.195312 -3.097656 17.015625 -3.5 17.796875 -4 L 19.0625 -1.65625 C 18.132812 -1.070312 17.101562 -0.5625 15.96875 -0.125 C 14.84375 0.300781 13.554688 0.515625 12.109375 0.515625 Z M 5.46875 -12.25 L 16.765625 -12.25 C 16.765625 -14.382812 16.304688 -16.007812 15.390625 -17.125 C 14.484375 -18.238281 13.203125 -18.796875 11.546875 -18.796875 C 10.796875 -18.796875 10.078125 -18.648438 9.390625 -18.359375 C 8.710938 -18.078125 8.097656 -17.648438 7.546875 -17.078125 C 7.003906 -16.515625 6.550781 -15.828125 6.1875 -15.015625 C 5.820312 -14.210938 5.582031 -13.289062 5.46875 -12.25 Z M 5.46875 -12.25 "/></g></g></g><g fill="#db5d06" fill-opacity="1"><g transform="translate(359.395079, 271.371687)"><g><path d="M 3.5625 0 L 3.5625 -21.109375 L 6.515625 -21.109375 L 6.8125 -17.28125 L 6.953125 -17.28125 C 7.671875 -18.613281 8.539062 -19.671875 9.5625 -20.453125 C 10.59375 -21.234375 11.71875 -21.625 12.9375 -21.625 C 13.78125 -21.625 14.535156 -21.476562 15.203125 -21.1875 L 14.5 -18.0625 C 14.15625 -18.175781 13.835938 -18.257812 13.546875 -18.3125 C 13.253906 -18.375 12.894531 -18.40625 12.46875 -18.40625 C 11.5625 -18.40625 10.625 -18.039062 9.65625 -17.3125 C 8.6875 -16.59375 7.84375 -15.335938 7.125 -13.546875 L 7.125 0 Z M 3.5625 0 "/></g></g></g><g fill="#d9d9d9" fill-opacity="1"><g transform="translate(-1.383249, 227.651343)"><g><path d="M 5.984375 -50.40625 L 28.875 -50.40625 C 34.351562 -50.40625 39.191406 -49.359375 43.390625 -47.265625 C 47.585938 -45.179688 50.847656 -42.242188 53.171875 -38.453125 C 55.503906 -34.660156 56.671875 -30.242188 56.671875 -25.203125 C 56.671875 -20.160156 55.503906 -15.742188 53.171875 -11.953125 C 50.847656 -8.160156 47.585938 -5.21875 43.390625 -3.125 C 39.191406 -1.039062 34.351562 0 28.875 0 L 5.984375 0 Z M 28.296875 -9.578125 C 33.335938 -9.578125 37.359375 -10.976562 40.359375 -13.78125 C 43.359375 -16.59375 44.859375 -20.398438 44.859375 -25.203125 C 44.859375 -30.003906 43.359375 -33.804688 40.359375 -36.609375 C 37.359375 -39.421875 33.335938 -40.828125 28.296875 -40.828125 L 17.640625 -40.828125 L 17.640625 -9.578125 Z M 28.296875 -9.578125 "/></g></g></g><g fill="#d9d9d9" fill-opacity="1"><g transform="translate(53.46941, 227.651343)"><g><path d="M 45.015625 -9.359375 L 45.015625 0 L 5.984375 0 L 5.984375 -50.40625 L 44.078125 -50.40625 L 44.078125 -41.046875 L 17.578125 -41.046875 L 17.578125 -30.109375 L 40.984375 -30.109375 L 40.984375 -21.03125 L 17.578125 -21.03125 L 17.578125 -9.359375 Z M 45.015625 -9.359375 "/></g></g></g><g fill="#d9d9d9" fill-opacity="1"><g transform="translate(97.164059, 227.651343)"><g><path d="M 52.21875 -50.40625 L 52.21875 0 L 42.640625 0 L 17.5 -30.609375 L 17.5 0 L 5.984375 0 L 5.984375 -50.40625 L 15.625 -50.40625 L 40.6875 -19.796875 L 40.6875 -50.40625 Z M 52.21875 -50.40625 "/></g></g></g><g fill="#db5d06" fill-opacity="1"><g transform="translate(150.741958, 227.651343)"><g><path d="M 30.390625 0.859375 C 25.160156 0.859375 20.441406 -0.265625 16.234375 -2.515625 C 12.035156 -4.773438 8.75 -7.882812 6.375 -11.84375 C 4 -15.800781 2.8125 -20.253906 2.8125 -25.203125 C 2.8125 -30.148438 4 -34.601562 6.375 -38.5625 C 8.75 -42.519531 12.035156 -45.628906 16.234375 -47.890625 C 20.441406 -50.148438 25.160156 -51.28125 30.390625 -51.28125 C 35.617188 -51.28125 40.320312 -50.148438 44.5 -47.890625 C 48.675781 -45.628906 51.960938 -42.519531 54.359375 -38.5625 C 56.765625 -34.601562 57.96875 -30.148438 57.96875 -25.203125 C 57.96875 -20.253906 56.765625 -15.800781 54.359375 -11.84375 C 51.960938 -7.882812 48.675781 -4.773438 44.5 -2.515625 C 40.320312 -0.265625 35.617188 0.859375 30.390625 0.859375 Z M 30.390625 -9.078125 C 33.367188 -9.078125 36.054688 -9.757812 38.453125 -11.125 C 40.859375 -12.488281 42.742188 -14.394531 44.109375 -16.84375 C 45.472656 -19.300781 46.15625 -22.085938 46.15625 -25.203125 C 46.15625 -28.328125 45.472656 -31.113281 44.109375 -33.5625 C 42.742188 -36.007812 40.859375 -37.914062 38.453125 -39.28125 C 36.054688 -40.65625 33.367188 -41.34375 30.390625 -41.34375 C 27.410156 -41.34375 24.71875 -40.65625 22.3125 -39.28125 C 19.914062 -37.914062 18.035156 -36.007812 16.671875 -33.5625 C 15.304688 -31.113281 14.625 -28.328125 14.625 -25.203125 C 14.625 -22.085938 15.304688 -19.300781 16.671875 -16.84375 C 18.035156 -14.394531 19.914062 -12.488281 22.3125 -11.125 C 24.71875 -9.757812 27.410156 -9.078125 30.390625 -9.078125 Z M 30.390625 -9.078125 "/></g></g></g><g fill="#db5d06" fill-opacity="1"><g transform="translate(206.890386, 227.651343)"><g><path d="M 17.640625 -41.046875 L 17.640625 -27.71875 L 40.984375 -27.71875 L 40.984375 -18.359375 L 17.640625 -18.359375 L 17.640625 0 L 5.984375 0 L 5.984375 -50.40625 L 44.078125 -50.40625 L 44.078125 -41.046875 Z M 17.640625 -41.046875 "/></g></g></g><g fill="#db5d06" fill-opacity="1"><g transform="translate(248.281431, 227.651343)"><g><path d="M 38.09375 0 L 28.375 -14.046875 L 17.640625 -14.046875 L 17.640625 0 L 5.984375 0 L 5.984375 -50.40625 L 27.796875 -50.40625 C 32.265625 -50.40625 36.140625 -49.660156 39.421875 -48.171875 C 42.710938 -46.691406 45.242188 -44.582031 47.015625 -41.84375 C 48.796875 -39.101562 49.6875 -35.863281 49.6875 -32.125 C 49.6875 -28.375 48.785156 -25.140625 46.984375 -22.421875 C 45.191406 -19.710938 42.640625 -17.640625 39.328125 -16.203125 L 50.625 0 Z M 37.875 -32.125 C 37.875 -34.957031 36.960938 -37.128906 35.140625 -38.640625 C 33.316406 -40.148438 30.65625 -40.90625 27.15625 -40.90625 L 17.640625 -40.90625 L 17.640625 -23.328125 L 27.15625 -23.328125 C 30.65625 -23.328125 33.316406 -24.09375 35.140625 -25.625 C 36.960938 -27.164062 37.875 -29.332031 37.875 -32.125 Z M 37.875 -32.125 "/></g></g></g><g fill="#db5d06" fill-opacity="1"><g transform="translate(296.583263, 227.651343)"><g><path d="M 5.984375 -50.40625 L 17.640625 -50.40625 L 17.640625 0 L 5.984375 0 Z M 5.984375 -50.40625 "/></g></g></g><g fill="#db5d06" fill-opacity="1"><g transform="translate(315.586294, 227.651343)"><g><path d="M 30.390625 0.859375 C 25.160156 0.859375 20.441406 -0.265625 16.234375 -2.515625 C 12.035156 -4.773438 8.75 -7.882812 6.375 -11.84375 C 4 -15.800781 2.8125 -20.253906 2.8125 -25.203125 C 2.8125 -30.148438 4 -34.601562 6.375 -38.5625 C 8.75 -42.519531 12.035156 -45.628906 16.234375 -47.890625 C 20.441406 -50.148438 25.160156 -51.28125 30.390625 -51.28125 C 35.617188 -51.28125 40.320312 -50.148438 44.5 -47.890625 C 48.675781 -45.628906 51.960938 -42.519531 54.359375 -38.5625 C 56.765625 -34.601562 57.96875 -30.148438 57.96875 -25.203125 C 57.96875 -20.253906 56.765625 -15.800781 54.359375 -11.84375 C 51.960938 -7.882812 48.675781 -4.773438 44.5 -2.515625 C 40.320312 -0.265625 35.617188 0.859375 30.390625 0.859375 Z M 30.390625 -9.078125 C 33.367188 -9.078125 36.054688 -9.757812 38.453125 -11.125 C 40.859375 -12.488281 42.742188 -14.394531 44.109375 -16.84375 C 45.472656 -19.300781 46.15625 -22.085938 46.15625 -25.203125 C 46.15625 -28.328125 45.472656 -31.113281 44.109375 -33.5625 C 42.742188 -36.007812 40.859375 -37.914062 38.453125 -39.28125 C 36.054688 -40.65625 33.367188 -41.34375 30.390625 -41.34375 C 27.410156 -41.34375 24.71875 -40.65625 22.3125 -39.28125 C 19.914062 -37.914062 18.035156 -36.007812 16.671875 -33.5625 C 15.304688 -31.113281 14.625 -28.328125 14.625 -25.203125 C 14.625 -22.085938 15.304688 -19.300781 16.671875 -16.84375 C 18.035156 -14.394531 19.914062 -12.488281 22.3125 -11.125 C 24.71875 -9.757812 27.410156 -9.078125 30.390625 -9.078125 Z M 30.390625 -9.078125 "/></g></g></g><g fill="#d9d9d9" fill-opacity="1"><g transform="translate(4.948323, 156.828645)"><g><path d="M 40.875 -11.265625 L 16.453125 -11.265625 L 11.796875 0 L -0.671875 0 L 22.765625 -52.59375 L 34.796875 -52.59375 L 58.3125 0 L 45.53125 0 Z M 37.046875 -20.515625 L 28.703125 -40.65625 L 20.359375 -20.515625 Z M 37.046875 -20.515625 "/></g></g></g><g fill="#d9d9d9" fill-opacity="1"><g transform="translate(57.692408, 156.828645)"><g><path d="M 29.609375 0.90625 C 22.085938 0.90625 16.234375 -1.171875 12.046875 -5.328125 C 7.867188 -9.492188 5.78125 -15.429688 5.78125 -23.140625 L 5.78125 -52.59375 L 17.953125 -52.59375 L 17.953125 -23.59375 C 17.953125 -14.175781 21.863281 -9.46875 29.6875 -9.46875 C 33.488281 -9.46875 36.390625 -10.609375 38.390625 -12.890625 C 40.398438 -15.171875 41.40625 -18.738281 41.40625 -23.59375 L 41.40625 -52.59375 L 53.421875 -52.59375 L 53.421875 -23.140625 C 53.421875 -15.429688 51.328125 -9.492188 47.140625 -5.328125 C 42.960938 -1.171875 37.117188 0.90625 29.609375 0.90625 Z M 29.609375 0.90625 "/></g></g></g><g fill="#d9d9d9" fill-opacity="1"><g transform="translate(112.089468, 156.828645)"><g><path d="M 23.515625 0.90625 C 19.359375 0.90625 15.335938 0.34375 11.453125 -0.78125 C 7.578125 -1.914062 4.460938 -3.382812 2.109375 -5.1875 L 6.234375 -14.359375 C 8.492188 -12.703125 11.175781 -11.367188 14.28125 -10.359375 C 17.382812 -9.359375 20.488281 -8.859375 23.59375 -8.859375 C 27.050781 -8.859375 29.601562 -9.375 31.25 -10.40625 C 32.90625 -11.4375 33.734375 -12.800781 33.734375 -14.5 C 33.734375 -15.75 33.242188 -16.785156 32.265625 -17.609375 C 31.296875 -18.441406 30.046875 -19.109375 28.515625 -19.609375 C 26.984375 -20.109375 24.914062 -20.660156 22.3125 -21.265625 C 18.3125 -22.210938 15.03125 -23.160156 12.46875 -24.109375 C 9.914062 -25.066406 7.722656 -26.597656 5.890625 -28.703125 C 4.066406 -30.804688 3.15625 -33.613281 3.15625 -37.125 C 3.15625 -40.175781 3.976562 -42.941406 5.625 -45.421875 C 7.28125 -47.898438 9.773438 -49.863281 13.109375 -51.3125 C 16.441406 -52.769531 20.515625 -53.5 25.328125 -53.5 C 28.679688 -53.5 31.957031 -53.097656 35.15625 -52.296875 C 38.363281 -51.492188 41.171875 -50.34375 43.578125 -48.84375 L 39.828125 -39.59375 C 34.960938 -42.351562 30.101562 -43.734375 25.25 -43.734375 C 21.84375 -43.734375 19.320312 -43.179688 17.6875 -42.078125 C 16.0625 -40.972656 15.25 -39.519531 15.25 -37.71875 C 15.25 -35.914062 16.1875 -34.578125 18.0625 -33.703125 C 19.945312 -32.828125 22.816406 -31.960938 26.671875 -31.109375 C 30.679688 -30.160156 33.960938 -29.207031 36.515625 -28.25 C 39.066406 -27.300781 41.253906 -25.796875 43.078125 -23.734375 C 44.910156 -21.679688 45.828125 -18.90625 45.828125 -15.40625 C 45.828125 -12.394531 44.988281 -9.648438 43.3125 -7.171875 C 41.632812 -4.691406 39.117188 -2.722656 35.765625 -1.265625 C 32.410156 0.179688 28.328125 0.90625 23.515625 0.90625 Z M 23.515625 0.90625 "/></g></g></g><g fill="#db5d06" fill-opacity="1"><g transform="translate(155.217849, 156.828645)"><g><path d="M 17.125 -42.6875 L 0.296875 -42.6875 L 0.296875 -52.59375 L 46.140625 -52.59375 L 46.140625 -42.6875 L 29.3125 -42.6875 L 29.3125 0 L 17.125 0 Z M 17.125 -42.6875 "/></g></g></g><g fill="#db5d06" fill-opacity="1"><g transform="translate(196.841988, 156.828645)"><g><path d="M 6.234375 -52.59375 L 18.40625 -52.59375 L 18.40625 0 L 6.234375 0 Z M 6.234375 -52.59375 "/></g></g></g><g fill="#db5d06" fill-opacity="1"><g transform="translate(216.677034, 156.828645)"><g><path d="M 54.484375 -52.59375 L 54.484375 0 L 44.484375 0 L 18.265625 -31.9375 L 18.265625 0 L 6.234375 0 L 6.234375 -52.59375 L 16.3125 -52.59375 L 42.453125 -20.65625 L 42.453125 -52.59375 Z M 54.484375 -52.59375 "/></g></g></g><g fill="#d9d9d9" fill-opacity="1"><g transform="translate(272.581914, 156.828645)"><g/></g></g></svg>