<svg xmlns="http://www.w3.org/2000/svg" xmlns:xlink="http://www.w3.org/1999/xlink" zoomAndPan="magnify" preserveAspectRatio="xMidYMid meet" version="1.0" viewBox="-3.08 14.16 376.63 352.19"><defs><g/><clipPath id="fc20364b2d"><path d="M 0 14.164062 L 129 14.164062 L 129 187.414062 L 0 187.414062 Z M 0 14.164062 " clip-rule="nonzero"/></clipPath><clipPath id="5b10dc0e00"><path d="M 69 14.164062 L 285 14.164062 L 285 187.414062 L 69 187.414062 Z M 69 14.164062 " clip-rule="nonzero"/></clipPath></defs><g clip-path="url(#fc20364b2d)"><path fill="#d9d9d9" d="M 97.890625 97.605469 L 128.984375 97.605469 L 97.886719 14.226562 L 64.589844 14.226562 L 34.242188 95.597656 L -0.0078125 187.429688 L 31.085938 187.429688 L 65.335938 95.597656 L 81.238281 52.953125 L 97.890625 97.605469 " fill-opacity="1" fill-rule="nonzero"/></g><g clip-path="url(#5b10dc0e00)"><path fill="#db5d06" d="M 198.144531 14.226562 L 116.710938 14.226562 L 163.296875 139.136719 L 194.390625 139.136719 L 158.667969 43.355469 L 198.144531 43.355469 C 229.886719 43.355469 255.617188 69.089844 255.617188 100.828125 C 255.617188 132.570312 229.886719 158.300781 198.144531 158.300781 L 151.621094 158.300781 L 143.164062 135.617188 L 143.160156 135.617188 L 136.136719 116.78125 L 79.136719 116.78125 L 69.386719 145.914062 L 115.910156 145.914062 L 131.394531 187.429688 L 199.570312 187.429688 L 199.566406 187.414062 C 246.738281 186.65625 284.75 148.183594 284.75 100.828125 C 284.75 53 245.976562 14.226562 198.144531 14.226562 " fill-opacity="1" fill-rule="nonzero"/></g><g fill="#d9d9d9" fill-opacity="1"><g transform="translate(2.527762, 358.33609)"><g><path d="M 10.640625 0.46875 C 8.835938 0.46875 7.164062 0.128906 5.625 -0.546875 C 4.09375 -1.222656 2.765625 -2.148438 1.640625 -3.328125 L 3.59375 -5.59375 C 4.507812 -4.625 5.582031 -3.847656 6.8125 -3.265625 C 8.050781 -2.679688 9.335938 -2.390625 10.671875 -2.390625 C 12.367188 -2.390625 13.6875 -2.769531 14.625 -3.53125 C 15.5625 -4.300781 16.03125 -5.3125 16.03125 -6.5625 C 16.03125 -7.21875 15.914062 -7.769531 15.6875 -8.21875 C 15.46875 -8.675781 15.171875 -9.066406 14.796875 -9.390625 C 14.421875 -9.722656 13.972656 -10.019531 13.453125 -10.28125 C 12.929688 -10.539062 12.367188 -10.816406 11.765625 -11.109375 L 8.09375 -12.703125 C 7.488281 -12.960938 6.875 -13.273438 6.25 -13.640625 C 5.625 -14.003906 5.0625 -14.445312 4.5625 -14.96875 C 4.070312 -15.488281 3.671875 -16.109375 3.359375 -16.828125 C 3.046875 -17.546875 2.890625 -18.375 2.890625 -19.3125 C 2.890625 -20.28125 3.09375 -21.179688 3.5 -22.015625 C 3.90625 -22.847656 4.460938 -23.566406 5.171875 -24.171875 C 5.890625 -24.785156 6.738281 -25.257812 7.71875 -25.59375 C 8.695312 -25.9375 9.773438 -26.109375 10.953125 -26.109375 C 12.484375 -26.109375 13.898438 -25.816406 15.203125 -25.234375 C 16.503906 -24.648438 17.613281 -23.890625 18.53125 -22.953125 L 16.765625 -20.84375 C 15.984375 -21.59375 15.117188 -22.179688 14.171875 -22.609375 C 13.222656 -23.046875 12.148438 -23.265625 10.953125 -23.265625 C 9.515625 -23.265625 8.359375 -22.929688 7.484375 -22.265625 C 6.609375 -21.597656 6.171875 -20.675781 6.171875 -19.5 C 6.171875 -18.875 6.296875 -18.347656 6.546875 -17.921875 C 6.796875 -17.492188 7.128906 -17.113281 7.546875 -16.78125 C 7.960938 -16.457031 8.414062 -16.171875 8.90625 -15.921875 C 9.40625 -15.679688 9.914062 -15.457031 10.4375 -15.25 L 14.078125 -13.6875 C 14.804688 -13.375 15.492188 -13.015625 16.140625 -12.609375 C 16.796875 -12.203125 17.359375 -11.734375 17.828125 -11.203125 C 18.296875 -10.671875 18.664062 -10.046875 18.9375 -9.328125 C 19.207031 -8.609375 19.34375 -7.78125 19.34375 -6.84375 C 19.34375 -5.820312 19.140625 -4.867188 18.734375 -3.984375 C 18.335938 -3.097656 17.757812 -2.320312 17 -1.65625 C 16.25 -1 15.335938 -0.476562 14.265625 -0.09375 C 13.203125 0.28125 11.992188 0.46875 10.640625 0.46875 Z M 10.640625 0.46875 "/></g></g></g><g fill="#d9d9d9" fill-opacity="1"><g transform="translate(24.264011, 358.33609)"><g><path d="M 10.59375 0.46875 C 9.414062 0.46875 8.300781 0.25 7.25 -0.1875 C 6.195312 -0.632812 5.265625 -1.28125 4.453125 -2.125 C 3.648438 -2.976562 3.003906 -4.019531 2.515625 -5.25 C 2.035156 -6.488281 1.796875 -7.890625 1.796875 -9.453125 C 1.796875 -11.046875 2.035156 -12.460938 2.515625 -13.703125 C 3.003906 -14.941406 3.648438 -15.988281 4.453125 -16.84375 C 5.265625 -17.707031 6.195312 -18.359375 7.25 -18.796875 C 8.300781 -19.242188 9.414062 -19.46875 10.59375 -19.46875 C 11.769531 -19.46875 12.882812 -19.242188 13.9375 -18.796875 C 14.988281 -18.359375 15.914062 -17.707031 16.71875 -16.84375 C 17.53125 -15.988281 18.175781 -14.941406 18.65625 -13.703125 C 19.144531 -12.460938 19.390625 -11.046875 19.390625 -9.453125 C 19.390625 -7.890625 19.144531 -6.488281 18.65625 -5.25 C 18.175781 -4.019531 17.53125 -2.976562 16.71875 -2.125 C 15.914062 -1.28125 14.988281 -0.632812 13.9375 -0.1875 C 12.882812 0.25 11.769531 0.46875 10.59375 0.46875 Z M 10.59375 -2.1875 C 11.40625 -2.1875 12.148438 -2.363281 12.828125 -2.71875 C 13.503906 -3.070312 14.082031 -3.566406 14.5625 -4.203125 C 15.039062 -4.835938 15.410156 -5.597656 15.671875 -6.484375 C 15.929688 -7.367188 16.0625 -8.359375 16.0625 -9.453125 C 16.0625 -10.554688 15.929688 -11.554688 15.671875 -12.453125 C 15.410156 -13.347656 15.039062 -14.117188 14.5625 -14.765625 C 14.082031 -15.421875 13.503906 -15.925781 12.828125 -16.28125 C 12.148438 -16.632812 11.40625 -16.8125 10.59375 -16.8125 C 9.78125 -16.8125 9.035156 -16.632812 8.359375 -16.28125 C 7.679688 -15.925781 7.101562 -15.421875 6.625 -14.765625 C 6.144531 -14.117188 5.773438 -13.347656 5.515625 -12.453125 C 5.253906 -11.554688 5.125 -10.554688 5.125 -9.453125 C 5.125 -8.359375 5.253906 -7.367188 5.515625 -6.484375 C 5.773438 -5.597656 6.144531 -4.835938 6.625 -4.203125 C 7.101562 -3.566406 7.679688 -3.070312 8.359375 -2.71875 C 9.035156 -2.363281 9.78125 -2.1875 10.59375 -2.1875 Z M 10.59375 -2.1875 "/></g></g></g><g fill="#d9d9d9" fill-opacity="1"><g transform="translate(46.313017, 358.33609)"><g><path d="M 3.75 0 L 3.75 -16.375 L 1.171875 -16.375 L 1.171875 -18.796875 L 3.75 -19 L 3.75 -22.015625 C 3.75 -23.960938 4.195312 -25.492188 5.09375 -26.609375 C 6 -27.734375 7.398438 -28.296875 9.296875 -28.296875 C 9.898438 -28.296875 10.46875 -28.238281 11 -28.125 C 11.539062 -28.007812 12.03125 -27.859375 12.46875 -27.671875 L 11.765625 -25.21875 C 11.066406 -25.53125 10.347656 -25.6875 9.609375 -25.6875 C 7.835938 -25.6875 6.953125 -24.460938 6.953125 -22.015625 L 6.953125 -19 L 10.984375 -19 L 10.984375 -16.375 L 6.953125 -16.375 L 6.953125 0 Z M 3.75 0 "/></g></g></g><g fill="#d9d9d9" fill-opacity="1"><g transform="translate(58.588587, 358.33609)"><g><path d="M 9.1875 0.46875 C 8.164062 0.46875 7.3125 0.3125 6.625 0 C 5.9375 -0.3125 5.375 -0.738281 4.9375 -1.28125 C 4.507812 -1.832031 4.203125 -2.5 4.015625 -3.28125 C 3.835938 -4.0625 3.75 -4.921875 3.75 -5.859375 L 3.75 -16.375 L 0.9375 -16.375 L 0.9375 -18.796875 L 3.90625 -19 L 4.296875 -24.3125 L 7 -24.3125 L 7 -19 L 12.125 -19 L 12.125 -16.375 L 7 -16.375 L 7 -5.828125 C 7 -4.648438 7.210938 -3.742188 7.640625 -3.109375 C 8.066406 -2.472656 8.832031 -2.15625 9.9375 -2.15625 C 10.269531 -2.15625 10.628906 -2.207031 11.015625 -2.3125 C 11.410156 -2.414062 11.765625 -2.53125 12.078125 -2.65625 L 12.703125 -0.234375 C 12.179688 -0.046875 11.613281 0.113281 11 0.25 C 10.394531 0.394531 9.789062 0.46875 9.1875 0.46875 Z M 9.1875 0.46875 "/></g></g></g><g fill="#d9d9d9" fill-opacity="1"><g transform="translate(72.662467, 358.33609)"><g><path d="M 6.21875 0 L 0.9375 -19 L 4.21875 -19 L 7.03125 -8.015625 C 7.238281 -7.097656 7.429688 -6.207031 7.609375 -5.34375 C 7.796875 -4.488281 7.984375 -3.617188 8.171875 -2.734375 L 8.328125 -2.734375 C 8.535156 -3.617188 8.742188 -4.5 8.953125 -5.375 C 9.160156 -6.25 9.378906 -7.128906 9.609375 -8.015625 L 12.546875 -19 L 15.671875 -19 L 18.640625 -8.015625 C 18.878906 -7.097656 19.109375 -6.207031 19.328125 -5.34375 C 19.554688 -4.488281 19.773438 -3.617188 19.984375 -2.734375 L 20.140625 -2.734375 C 20.347656 -3.617188 20.539062 -4.488281 20.71875 -5.34375 C 20.90625 -6.207031 21.101562 -7.097656 21.3125 -8.015625 L 24.078125 -19 L 27.125 -19 L 22.046875 0 L 18.140625 0 L 15.40625 -10.203125 C 15.164062 -11.117188 14.945312 -12.019531 14.75 -12.90625 C 14.5625 -13.789062 14.347656 -14.710938 14.109375 -15.671875 L 13.953125 -15.671875 C 13.742188 -14.710938 13.535156 -13.78125 13.328125 -12.875 C 13.117188 -11.976562 12.882812 -11.078125 12.625 -10.171875 L 9.96875 0 Z M 6.21875 0 "/></g></g></g><g fill="#d9d9d9" fill-opacity="1"><g transform="translate(101.591968, 358.33609)"><g><path d="M 7.578125 0.46875 C 5.992188 0.46875 4.671875 0 3.609375 -0.9375 C 2.554688 -1.875 2.03125 -3.203125 2.03125 -4.921875 C 2.03125 -7.003906 2.953125 -8.597656 4.796875 -9.703125 C 6.648438 -10.816406 9.613281 -11.597656 13.6875 -12.046875 C 13.6875 -12.640625 13.625 -13.222656 13.5 -13.796875 C 13.382812 -14.367188 13.179688 -14.875 12.890625 -15.3125 C 12.609375 -15.757812 12.210938 -16.117188 11.703125 -16.390625 C 11.203125 -16.671875 10.554688 -16.8125 9.765625 -16.8125 C 8.671875 -16.8125 7.640625 -16.601562 6.671875 -16.1875 C 5.710938 -15.769531 4.859375 -15.300781 4.109375 -14.78125 L 2.859375 -17 C 3.742188 -17.570312 4.820312 -18.125 6.09375 -18.65625 C 7.375 -19.195312 8.785156 -19.46875 10.328125 -19.46875 C 12.640625 -19.46875 14.316406 -18.753906 15.359375 -17.328125 C 16.398438 -15.910156 16.921875 -14.019531 16.921875 -11.65625 L 16.921875 0 L 14.265625 0 L 14 -2.265625 L 13.875 -2.265625 C 12.96875 -1.515625 11.988281 -0.867188 10.9375 -0.328125 C 9.894531 0.203125 8.773438 0.46875 7.578125 0.46875 Z M 8.515625 -2.109375 C 9.429688 -2.109375 10.289062 -2.320312 11.09375 -2.75 C 11.90625 -3.1875 12.769531 -3.820312 13.6875 -4.65625 L 13.6875 -9.9375 C 12.09375 -9.71875 10.753906 -9.460938 9.671875 -9.171875 C 8.585938 -8.890625 7.710938 -8.550781 7.046875 -8.15625 C 6.390625 -7.769531 5.910156 -7.320312 5.609375 -6.8125 C 5.304688 -6.3125 5.15625 -5.757812 5.15625 -5.15625 C 5.15625 -4.0625 5.476562 -3.28125 6.125 -2.8125 C 6.78125 -2.34375 7.578125 -2.109375 8.515625 -2.109375 Z M 8.515625 -2.109375 "/></g></g></g><g fill="#d9d9d9" fill-opacity="1"><g transform="translate(122.15542, 358.33609)"><g><path d="M 3.203125 0 L 3.203125 -19 L 5.859375 -19 L 6.140625 -15.5625 L 6.25 -15.5625 C 6.90625 -16.757812 7.695312 -17.707031 8.625 -18.40625 C 9.550781 -19.113281 10.5625 -19.46875 11.65625 -19.46875 C 12.40625 -19.46875 13.082031 -19.335938 13.6875 -19.078125 L 13.0625 -16.265625 C 12.75 -16.367188 12.460938 -16.445312 12.203125 -16.5 C 11.941406 -16.550781 11.613281 -16.578125 11.21875 -16.578125 C 10.414062 -16.578125 9.578125 -16.25 8.703125 -15.59375 C 7.828125 -14.945312 7.0625 -13.816406 6.40625 -12.203125 L 6.40625 0 Z M 3.203125 0 "/></g></g></g><g fill="#d9d9d9" fill-opacity="1"><g transform="translate(136.581155, 358.33609)"><g><path d="M 10.90625 0.46875 C 9.625 0.46875 8.429688 0.238281 7.328125 -0.21875 C 6.222656 -0.675781 5.257812 -1.328125 4.4375 -2.171875 C 3.613281 -3.015625 2.96875 -4.046875 2.5 -5.265625 C 2.03125 -6.492188 1.796875 -7.890625 1.796875 -9.453125 C 1.796875 -11.023438 2.035156 -12.425781 2.515625 -13.65625 C 3.003906 -14.894531 3.644531 -15.941406 4.4375 -16.796875 C 5.226562 -17.660156 6.128906 -18.320312 7.140625 -18.78125 C 8.160156 -19.238281 9.222656 -19.46875 10.328125 -19.46875 C 11.523438 -19.46875 12.597656 -19.257812 13.546875 -18.84375 C 14.492188 -18.425781 15.285156 -17.828125 15.921875 -17.046875 C 16.566406 -16.265625 17.054688 -15.328125 17.390625 -14.234375 C 17.734375 -13.140625 17.90625 -11.914062 17.90625 -10.5625 C 17.90625 -10.21875 17.894531 -9.878906 17.875 -9.546875 C 17.863281 -9.222656 17.832031 -8.945312 17.78125 -8.71875 L 4.96875 -8.71875 C 5.09375 -6.6875 5.722656 -5.078125 6.859375 -3.890625 C 7.992188 -2.703125 9.472656 -2.109375 11.296875 -2.109375 C 12.210938 -2.109375 13.050781 -2.242188 13.8125 -2.515625 C 14.582031 -2.796875 15.320312 -3.15625 16.03125 -3.59375 L 17.15625 -1.484375 C 16.320312 -0.960938 15.394531 -0.503906 14.375 -0.109375 C 13.363281 0.273438 12.207031 0.46875 10.90625 0.46875 Z M 4.921875 -11.03125 L 15.09375 -11.03125 C 15.09375 -12.957031 14.679688 -14.421875 13.859375 -15.421875 C 13.035156 -16.421875 11.882812 -16.921875 10.40625 -16.921875 C 9.71875 -16.921875 9.066406 -16.789062 8.453125 -16.53125 C 7.847656 -16.269531 7.296875 -15.882812 6.796875 -15.375 C 6.304688 -14.875 5.894531 -14.257812 5.5625 -13.53125 C 5.238281 -12.800781 5.023438 -11.96875 4.921875 -11.03125 Z M 4.921875 -11.03125 "/></g></g></g><g fill="#d9d9d9" fill-opacity="1"><g transform="translate(156.831852, 358.33609)"><g/></g></g><g fill="#d9d9d9" fill-opacity="1"><g transform="translate(165.51081, 358.33609)"><g><path d="M 3.515625 0 L 3.515625 -25.640625 L 9.9375 -25.640625 C 13.894531 -25.640625 16.898438 -24.546875 18.953125 -22.359375 C 21.015625 -20.171875 22.046875 -17.03125 22.046875 -12.9375 C 22.046875 -10.90625 21.785156 -9.085938 21.265625 -7.484375 C 20.742188 -5.878906 19.972656 -4.523438 18.953125 -3.421875 C 17.941406 -2.316406 16.691406 -1.46875 15.203125 -0.875 C 13.722656 -0.289062 12.019531 0 10.09375 0 Z M 6.765625 -2.65625 L 9.6875 -2.65625 C 12.6875 -2.65625 14.9375 -3.550781 16.4375 -5.34375 C 17.9375 -7.144531 18.6875 -9.675781 18.6875 -12.9375 C 18.6875 -16.195312 17.9375 -18.6875 16.4375 -20.40625 C 14.9375 -22.125 12.6875 -22.984375 9.6875 -22.984375 L 6.765625 -22.984375 Z M 6.765625 -2.65625 "/></g></g></g><g fill="#d9d9d9" fill-opacity="1"><g transform="translate(190.413655, 358.33609)"><g><path d="M 10.90625 0.46875 C 9.625 0.46875 8.429688 0.238281 7.328125 -0.21875 C 6.222656 -0.675781 5.257812 -1.328125 4.4375 -2.171875 C 3.613281 -3.015625 2.96875 -4.046875 2.5 -5.265625 C 2.03125 -6.492188 1.796875 -7.890625 1.796875 -9.453125 C 1.796875 -11.023438 2.035156 -12.425781 2.515625 -13.65625 C 3.003906 -14.894531 3.644531 -15.941406 4.4375 -16.796875 C 5.226562 -17.660156 6.128906 -18.320312 7.140625 -18.78125 C 8.160156 -19.238281 9.222656 -19.46875 10.328125 -19.46875 C 11.523438 -19.46875 12.597656 -19.257812 13.546875 -18.84375 C 14.492188 -18.425781 15.285156 -17.828125 15.921875 -17.046875 C 16.566406 -16.265625 17.054688 -15.328125 17.390625 -14.234375 C 17.734375 -13.140625 17.90625 -11.914062 17.90625 -10.5625 C 17.90625 -10.21875 17.894531 -9.878906 17.875 -9.546875 C 17.863281 -9.222656 17.832031 -8.945312 17.78125 -8.71875 L 4.96875 -8.71875 C 5.09375 -6.6875 5.722656 -5.078125 6.859375 -3.890625 C 7.992188 -2.703125 9.472656 -2.109375 11.296875 -2.109375 C 12.210938 -2.109375 13.050781 -2.242188 13.8125 -2.515625 C 14.582031 -2.796875 15.320312 -3.15625 16.03125 -3.59375 L 17.15625 -1.484375 C 16.320312 -0.960938 15.394531 -0.503906 14.375 -0.109375 C 13.363281 0.273438 12.207031 0.46875 10.90625 0.46875 Z M 4.921875 -11.03125 L 15.09375 -11.03125 C 15.09375 -12.957031 14.679688 -14.421875 13.859375 -15.421875 C 13.035156 -16.421875 11.882812 -16.921875 10.40625 -16.921875 C 9.71875 -16.921875 9.066406 -16.789062 8.453125 -16.53125 C 7.847656 -16.269531 7.296875 -15.882812 6.796875 -15.375 C 6.304688 -14.875 5.894531 -14.257812 5.5625 -13.53125 C 5.238281 -12.800781 5.023438 -11.96875 4.921875 -11.03125 Z M 4.921875 -11.03125 "/></g></g></g><g fill="#d9d9d9" fill-opacity="1"><g transform="translate(210.664352, 358.33609)"><g><path d="M 7.3125 0 L 0.46875 -19 L 3.796875 -19 L 7.390625 -8.203125 C 7.671875 -7.265625 7.960938 -6.328125 8.265625 -5.390625 C 8.566406 -4.453125 8.859375 -3.53125 9.140625 -2.625 L 9.296875 -2.625 C 9.585938 -3.53125 9.875 -4.453125 10.15625 -5.390625 C 10.445312 -6.328125 10.738281 -7.265625 11.03125 -8.203125 L 14.625 -19 L 17.78125 -19 L 11.0625 0 Z M 7.3125 0 "/></g></g></g><g fill="#d9d9d9" fill-opacity="1"><g transform="translate(229.781317, 358.33609)"><g><path d="M 10.90625 0.46875 C 9.625 0.46875 8.429688 0.238281 7.328125 -0.21875 C 6.222656 -0.675781 5.257812 -1.328125 4.4375 -2.171875 C 3.613281 -3.015625 2.96875 -4.046875 2.5 -5.265625 C 2.03125 -6.492188 1.796875 -7.890625 1.796875 -9.453125 C 1.796875 -11.023438 2.035156 -12.425781 2.515625 -13.65625 C 3.003906 -14.894531 3.644531 -15.941406 4.4375 -16.796875 C 5.226562 -17.660156 6.128906 -18.320312 7.140625 -18.78125 C 8.160156 -19.238281 9.222656 -19.46875 10.328125 -19.46875 C 11.523438 -19.46875 12.597656 -19.257812 13.546875 -18.84375 C 14.492188 -18.425781 15.285156 -17.828125 15.921875 -17.046875 C 16.566406 -16.265625 17.054688 -15.328125 17.390625 -14.234375 C 17.734375 -13.140625 17.90625 -11.914062 17.90625 -10.5625 C 17.90625 -10.21875 17.894531 -9.878906 17.875 -9.546875 C 17.863281 -9.222656 17.832031 -8.945312 17.78125 -8.71875 L 4.96875 -8.71875 C 5.09375 -6.6875 5.722656 -5.078125 6.859375 -3.890625 C 7.992188 -2.703125 9.472656 -2.109375 11.296875 -2.109375 C 12.210938 -2.109375 13.050781 -2.242188 13.8125 -2.515625 C 14.582031 -2.796875 15.320312 -3.15625 16.03125 -3.59375 L 17.15625 -1.484375 C 16.320312 -0.960938 15.394531 -0.503906 14.375 -0.109375 C 13.363281 0.273438 12.207031 0.46875 10.90625 0.46875 Z M 4.921875 -11.03125 L 15.09375 -11.03125 C 15.09375 -12.957031 14.679688 -14.421875 13.859375 -15.421875 C 13.035156 -16.421875 11.882812 -16.921875 10.40625 -16.921875 C 9.71875 -16.921875 9.066406 -16.789062 8.453125 -16.53125 C 7.847656 -16.269531 7.296875 -15.882812 6.796875 -15.375 C 6.304688 -14.875 5.894531 -14.257812 5.5625 -13.53125 C 5.238281 -12.800781 5.023438 -11.96875 4.921875 -11.03125 Z M 4.921875 -11.03125 "/></g></g></g><g fill="#d9d9d9" fill-opacity="1"><g transform="translate(250.032003, 358.33609)"><g><path d="M 6.609375 0.46875 C 5.378906 0.46875 4.503906 0.101562 3.984375 -0.625 C 3.460938 -1.351562 3.203125 -2.421875 3.203125 -3.828125 L 3.203125 -27.828125 L 6.40625 -27.828125 L 6.40625 -3.59375 C 6.40625 -3.070312 6.492188 -2.707031 6.671875 -2.5 C 6.859375 -2.289062 7.070312 -2.1875 7.3125 -2.1875 C 7.414062 -2.1875 7.507812 -2.1875 7.59375 -2.1875 C 7.6875 -2.1875 7.828125 -2.210938 8.015625 -2.265625 L 8.4375 0.15625 C 8.226562 0.257812 7.976562 0.335938 7.6875 0.390625 C 7.40625 0.441406 7.046875 0.46875 6.609375 0.46875 Z M 6.609375 0.46875 "/></g></g></g><g fill="#d9d9d9" fill-opacity="1"><g transform="translate(260.861111, 358.33609)"><g><path d="M 10.59375 0.46875 C 9.414062 0.46875 8.300781 0.25 7.25 -0.1875 C 6.195312 -0.632812 5.265625 -1.28125 4.453125 -2.125 C 3.648438 -2.976562 3.003906 -4.019531 2.515625 -5.25 C 2.035156 -6.488281 1.796875 -7.890625 1.796875 -9.453125 C 1.796875 -11.046875 2.035156 -12.460938 2.515625 -13.703125 C 3.003906 -14.941406 3.648438 -15.988281 4.453125 -16.84375 C 5.265625 -17.707031 6.195312 -18.359375 7.25 -18.796875 C 8.300781 -19.242188 9.414062 -19.46875 10.59375 -19.46875 C 11.769531 -19.46875 12.882812 -19.242188 13.9375 -18.796875 C 14.988281 -18.359375 15.914062 -17.707031 16.71875 -16.84375 C 17.53125 -15.988281 18.175781 -14.941406 18.65625 -13.703125 C 19.144531 -12.460938 19.390625 -11.046875 19.390625 -9.453125 C 19.390625 -7.890625 19.144531 -6.488281 18.65625 -5.25 C 18.175781 -4.019531 17.53125 -2.976562 16.71875 -2.125 C 15.914062 -1.28125 14.988281 -0.632812 13.9375 -0.1875 C 12.882812 0.25 11.769531 0.46875 10.59375 0.46875 Z M 10.59375 -2.1875 C 11.40625 -2.1875 12.148438 -2.363281 12.828125 -2.71875 C 13.503906 -3.070312 14.082031 -3.566406 14.5625 -4.203125 C 15.039062 -4.835938 15.410156 -5.597656 15.671875 -6.484375 C 15.929688 -7.367188 16.0625 -8.359375 16.0625 -9.453125 C 16.0625 -10.554688 15.929688 -11.554688 15.671875 -12.453125 C 15.410156 -13.347656 15.039062 -14.117188 14.5625 -14.765625 C 14.082031 -15.421875 13.503906 -15.925781 12.828125 -16.28125 C 12.148438 -16.632812 11.40625 -16.8125 10.59375 -16.8125 C 9.78125 -16.8125 9.035156 -16.632812 8.359375 -16.28125 C 7.679688 -15.925781 7.101562 -15.421875 6.625 -14.765625 C 6.144531 -14.117188 5.773438 -13.347656 5.515625 -12.453125 C 5.253906 -11.554688 5.125 -10.554688 5.125 -9.453125 C 5.125 -8.359375 5.253906 -7.367188 5.515625 -6.484375 C 5.773438 -5.597656 6.144531 -4.835938 6.625 -4.203125 C 7.101562 -3.566406 7.679688 -3.070312 8.359375 -2.71875 C 9.035156 -2.363281 9.78125 -2.1875 10.59375 -2.1875 Z M 10.59375 -2.1875 "/></g></g></g><g fill="#d9d9d9" fill-opacity="1"><g transform="translate(282.910121, 358.33609)"><g><path d="M 3.203125 8.015625 L 3.203125 -19 L 5.859375 -19 L 6.140625 -16.8125 L 6.25 -16.8125 C 7.113281 -17.539062 8.0625 -18.164062 9.09375 -18.6875 C 10.125 -19.207031 11.195312 -19.46875 12.3125 -19.46875 C 13.539062 -19.46875 14.625 -19.238281 15.5625 -18.78125 C 16.5 -18.320312 17.28125 -17.671875 17.90625 -16.828125 C 18.53125 -15.984375 19.003906 -14.96875 19.328125 -13.78125 C 19.660156 -12.59375 19.828125 -11.253906 19.828125 -9.765625 C 19.828125 -8.148438 19.601562 -6.710938 19.15625 -5.453125 C 18.707031 -4.191406 18.101562 -3.117188 17.34375 -2.234375 C 16.59375 -1.347656 15.722656 -0.675781 14.734375 -0.21875 C 13.742188 0.238281 12.703125 0.46875 11.609375 0.46875 C 10.722656 0.46875 9.84375 0.273438 8.96875 -0.109375 C 8.09375 -0.503906 7.210938 -1.039062 6.328125 -1.71875 L 6.40625 1.609375 L 6.40625 8.015625 Z M 11.0625 -2.234375 C 11.84375 -2.234375 12.566406 -2.40625 13.234375 -2.75 C 13.898438 -3.101562 14.472656 -3.597656 14.953125 -4.234375 C 15.429688 -4.878906 15.804688 -5.671875 16.078125 -6.609375 C 16.359375 -7.546875 16.5 -8.597656 16.5 -9.765625 C 16.5 -10.816406 16.40625 -11.769531 16.21875 -12.625 C 16.039062 -13.488281 15.75 -14.222656 15.34375 -14.828125 C 14.9375 -15.441406 14.414062 -15.914062 13.78125 -16.25 C 13.144531 -16.59375 12.382812 -16.765625 11.5 -16.765625 C 10.6875 -16.765625 9.867188 -16.539062 9.046875 -16.09375 C 8.222656 -15.65625 7.34375 -15.019531 6.40625 -14.1875 L 6.40625 -4.21875 C 7.269531 -3.488281 8.101562 -2.972656 8.90625 -2.671875 C 9.71875 -2.378906 10.4375 -2.234375 11.0625 -2.234375 Z M 11.0625 -2.234375 "/></g></g></g><g fill="#d9d9d9" fill-opacity="1"><g transform="translate(305.46734, 358.33609)"><g><path d="M 10.90625 0.46875 C 9.625 0.46875 8.429688 0.238281 7.328125 -0.21875 C 6.222656 -0.675781 5.257812 -1.328125 4.4375 -2.171875 C 3.613281 -3.015625 2.96875 -4.046875 2.5 -5.265625 C 2.03125 -6.492188 1.796875 -7.890625 1.796875 -9.453125 C 1.796875 -11.023438 2.035156 -12.425781 2.515625 -13.65625 C 3.003906 -14.894531 3.644531 -15.941406 4.4375 -16.796875 C 5.226562 -17.660156 6.128906 -18.320312 7.140625 -18.78125 C 8.160156 -19.238281 9.222656 -19.46875 10.328125 -19.46875 C 11.523438 -19.46875 12.597656 -19.257812 13.546875 -18.84375 C 14.492188 -18.425781 15.285156 -17.828125 15.921875 -17.046875 C 16.566406 -16.265625 17.054688 -15.328125 17.390625 -14.234375 C 17.734375 -13.140625 17.90625 -11.914062 17.90625 -10.5625 C 17.90625 -10.21875 17.894531 -9.878906 17.875 -9.546875 C 17.863281 -9.222656 17.832031 -8.945312 17.78125 -8.71875 L 4.96875 -8.71875 C 5.09375 -6.6875 5.722656 -5.078125 6.859375 -3.890625 C 7.992188 -2.703125 9.472656 -2.109375 11.296875 -2.109375 C 12.210938 -2.109375 13.050781 -2.242188 13.8125 -2.515625 C 14.582031 -2.796875 15.320312 -3.15625 16.03125 -3.59375 L 17.15625 -1.484375 C 16.320312 -0.960938 15.394531 -0.503906 14.375 -0.109375 C 13.363281 0.273438 12.207031 0.46875 10.90625 0.46875 Z M 4.921875 -11.03125 L 15.09375 -11.03125 C 15.09375 -12.957031 14.679688 -14.421875 13.859375 -15.421875 C 13.035156 -16.421875 11.882812 -16.921875 10.40625 -16.921875 C 9.71875 -16.921875 9.066406 -16.789062 8.453125 -16.53125 C 7.847656 -16.269531 7.296875 -15.882812 6.796875 -15.375 C 6.304688 -14.875 5.894531 -14.257812 5.5625 -13.53125 C 5.238281 -12.800781 5.023438 -11.96875 4.921875 -11.03125 Z M 4.921875 -11.03125 "/></g></g></g><g fill="#d9d9d9" fill-opacity="1"><g transform="translate(325.718026, 358.33609)"><g><path d="M 3.203125 0 L 3.203125 -19 L 5.859375 -19 L 6.140625 -15.5625 L 6.25 -15.5625 C 6.90625 -16.757812 7.695312 -17.707031 8.625 -18.40625 C 9.550781 -19.113281 10.5625 -19.46875 11.65625 -19.46875 C 12.40625 -19.46875 13.082031 -19.335938 13.6875 -19.078125 L 13.0625 -16.265625 C 12.75 -16.367188 12.460938 -16.445312 12.203125 -16.5 C 11.941406 -16.550781 11.613281 -16.578125 11.21875 -16.578125 C 10.414062 -16.578125 9.578125 -16.25 8.703125 -15.59375 C 7.828125 -14.945312 7.0625 -13.816406 6.40625 -12.203125 L 6.40625 0 Z M 3.203125 0 "/></g></g></g><g fill="#d9d9d9" fill-opacity="1"><g transform="translate(-1.383249, 320.803182)"><g><path d="M 5.984375 -50.40625 L 28.875 -50.40625 C 34.351562 -50.40625 39.191406 -49.359375 43.390625 -47.265625 C 47.585938 -45.179688 50.847656 -42.242188 53.171875 -38.453125 C 55.503906 -34.660156 56.671875 -30.242188 56.671875 -25.203125 C 56.671875 -20.160156 55.503906 -15.742188 53.171875 -11.953125 C 50.847656 -8.160156 47.585938 -5.21875 43.390625 -3.125 C 39.191406 -1.039062 34.351562 0 28.875 0 L 5.984375 0 Z M 28.296875 -9.578125 C 33.335938 -9.578125 37.359375 -10.976562 40.359375 -13.78125 C 43.359375 -16.59375 44.859375 -20.398438 44.859375 -25.203125 C 44.859375 -30.003906 43.359375 -33.804688 40.359375 -36.609375 C 37.359375 -39.421875 33.335938 -40.828125 28.296875 -40.828125 L 17.640625 -40.828125 L 17.640625 -9.578125 Z M 28.296875 -9.578125 "/></g></g></g><g fill="#d9d9d9" fill-opacity="1"><g transform="translate(53.46941, 320.803182)"><g><path d="M 45.015625 -9.359375 L 45.015625 0 L 5.984375 0 L 5.984375 -50.40625 L 44.078125 -50.40625 L 44.078125 -41.046875 L 17.578125 -41.046875 L 17.578125 -30.109375 L 40.984375 -30.109375 L 40.984375 -21.03125 L 17.578125 -21.03125 L 17.578125 -9.359375 Z M 45.015625 -9.359375 "/></g></g></g><g fill="#d9d9d9" fill-opacity="1"><g transform="translate(97.164059, 320.803182)"><g><path d="M 52.21875 -50.40625 L 52.21875 0 L 42.640625 0 L 17.5 -30.609375 L 17.5 0 L 5.984375 0 L 5.984375 -50.40625 L 15.625 -50.40625 L 40.6875 -19.796875 L 40.6875 -50.40625 Z M 52.21875 -50.40625 "/></g></g></g><g fill="#db5d06" fill-opacity="1"><g transform="translate(150.741958, 320.803182)"><g><path d="M 30.390625 0.859375 C 25.160156 0.859375 20.441406 -0.265625 16.234375 -2.515625 C 12.035156 -4.773438 8.75 -7.882812 6.375 -11.84375 C 4 -15.800781 2.8125 -20.253906 2.8125 -25.203125 C 2.8125 -30.148438 4 -34.601562 6.375 -38.5625 C 8.75 -42.519531 12.035156 -45.628906 16.234375 -47.890625 C 20.441406 -50.148438 25.160156 -51.28125 30.390625 -51.28125 C 35.617188 -51.28125 40.320312 -50.148438 44.5 -47.890625 C 48.675781 -45.628906 51.960938 -42.519531 54.359375 -38.5625 C 56.765625 -34.601562 57.96875 -30.148438 57.96875 -25.203125 C 57.96875 -20.253906 56.765625 -15.800781 54.359375 -11.84375 C 51.960938 -7.882812 48.675781 -4.773438 44.5 -2.515625 C 40.320312 -0.265625 35.617188 0.859375 30.390625 0.859375 Z M 30.390625 -9.078125 C 33.367188 -9.078125 36.054688 -9.757812 38.453125 -11.125 C 40.859375 -12.488281 42.742188 -14.394531 44.109375 -16.84375 C 45.472656 -19.300781 46.15625 -22.085938 46.15625 -25.203125 C 46.15625 -28.328125 45.472656 -31.113281 44.109375 -33.5625 C 42.742188 -36.007812 40.859375 -37.914062 38.453125 -39.28125 C 36.054688 -40.65625 33.367188 -41.34375 30.390625 -41.34375 C 27.410156 -41.34375 24.71875 -40.65625 22.3125 -39.28125 C 19.914062 -37.914062 18.035156 -36.007812 16.671875 -33.5625 C 15.304688 -31.113281 14.625 -28.328125 14.625 -25.203125 C 14.625 -22.085938 15.304688 -19.300781 16.671875 -16.84375 C 18.035156 -14.394531 19.914062 -12.488281 22.3125 -11.125 C 24.71875 -9.757812 27.410156 -9.078125 30.390625 -9.078125 Z M 30.390625 -9.078125 "/></g></g></g><g fill="#db5d06" fill-opacity="1"><g transform="translate(206.890386, 320.803182)"><g><path d="M 17.640625 -41.046875 L 17.640625 -27.71875 L 40.984375 -27.71875 L 40.984375 -18.359375 L 17.640625 -18.359375 L 17.640625 0 L 5.984375 0 L 5.984375 -50.40625 L 44.078125 -50.40625 L 44.078125 -41.046875 Z M 17.640625 -41.046875 "/></g></g></g><g fill="#db5d06" fill-opacity="1"><g transform="translate(248.281431, 320.803182)"><g><path d="M 38.09375 0 L 28.375 -14.046875 L 17.640625 -14.046875 L 17.640625 0 L 5.984375 0 L 5.984375 -50.40625 L 27.796875 -50.40625 C 32.265625 -50.40625 36.140625 -49.660156 39.421875 -48.171875 C 42.710938 -46.691406 45.242188 -44.582031 47.015625 -41.84375 C 48.796875 -39.101562 49.6875 -35.863281 49.6875 -32.125 C 49.6875 -28.375 48.785156 -25.140625 46.984375 -22.421875 C 45.191406 -19.710938 42.640625 -17.640625 39.328125 -16.203125 L 50.625 0 Z M 37.875 -32.125 C 37.875 -34.957031 36.960938 -37.128906 35.140625 -38.640625 C 33.316406 -40.148438 30.65625 -40.90625 27.15625 -40.90625 L 17.640625 -40.90625 L 17.640625 -23.328125 L 27.15625 -23.328125 C 30.65625 -23.328125 33.316406 -24.09375 35.140625 -25.625 C 36.960938 -27.164062 37.875 -29.332031 37.875 -32.125 Z M 37.875 -32.125 "/></g></g></g><g fill="#db5d06" fill-opacity="1"><g transform="translate(296.583263, 320.803182)"><g><path d="M 5.984375 -50.40625 L 17.640625 -50.40625 L 17.640625 0 L 5.984375 0 Z M 5.984375 -50.40625 "/></g></g></g><g fill="#db5d06" fill-opacity="1"><g transform="translate(315.586294, 320.803182)"><g><path d="M 30.390625 0.859375 C 25.160156 0.859375 20.441406 -0.265625 16.234375 -2.515625 C 12.035156 -4.773438 8.75 -7.882812 6.375 -11.84375 C 4 -15.800781 2.8125 -20.253906 2.8125 -25.203125 C 2.8125 -30.148438 4 -34.601562 6.375 -38.5625 C 8.75 -42.519531 12.035156 -45.628906 16.234375 -47.890625 C 20.441406 -50.148438 25.160156 -51.28125 30.390625 -51.28125 C 35.617188 -51.28125 40.320312 -50.148438 44.5 -47.890625 C 48.675781 -45.628906 51.960938 -42.519531 54.359375 -38.5625 C 56.765625 -34.601562 57.96875 -30.148438 57.96875 -25.203125 C 57.96875 -20.253906 56.765625 -15.800781 54.359375 -11.84375 C 51.960938 -7.882812 48.675781 -4.773438 44.5 -2.515625 C 40.320312 -0.265625 35.617188 0.859375 30.390625 0.859375 Z M 30.390625 -9.078125 C 33.367188 -9.078125 36.054688 -9.757812 38.453125 -11.125 C 40.859375 -12.488281 42.742188 -14.394531 44.109375 -16.84375 C 45.472656 -19.300781 46.15625 -22.085938 46.15625 -25.203125 C 46.15625 -28.328125 45.472656 -31.113281 44.109375 -33.5625 C 42.742188 -36.007812 40.859375 -37.914062 38.453125 -39.28125 C 36.054688 -40.65625 33.367188 -41.34375 30.390625 -41.34375 C 27.410156 -41.34375 24.71875 -40.65625 22.3125 -39.28125 C 19.914062 -37.914062 18.035156 -36.007812 16.671875 -33.5625 C 15.304688 -31.113281 14.625 -28.328125 14.625 -25.203125 C 14.625 -22.085938 15.304688 -19.300781 16.671875 -16.84375 C 18.035156 -14.394531 19.914062 -12.488281 22.3125 -11.125 C 24.71875 -9.757812 27.410156 -9.078125 30.390625 -9.078125 Z M 30.390625 -9.078125 "/></g></g></g><g fill="#d9d9d9" fill-opacity="1"><g transform="translate(-2.404579, 258.735657)"><g><path d="M 40.875 -11.265625 L 16.453125 -11.265625 L 11.796875 0 L -0.671875 0 L 22.765625 -52.59375 L 34.796875 -52.59375 L 58.3125 0 L 45.53125 0 Z M 37.046875 -20.515625 L 28.703125 -40.65625 L 20.359375 -20.515625 Z M 37.046875 -20.515625 "/></g></g></g><g fill="#d9d9d9" fill-opacity="1"><g transform="translate(50.343989, 258.735657)"><g><path d="M 29.609375 0.90625 C 22.085938 0.90625 16.234375 -1.171875 12.046875 -5.328125 C 7.867188 -9.492188 5.78125 -15.429688 5.78125 -23.140625 L 5.78125 -52.59375 L 17.953125 -52.59375 L 17.953125 -23.59375 C 17.953125 -14.175781 21.863281 -9.46875 29.6875 -9.46875 C 33.488281 -9.46875 36.390625 -10.609375 38.390625 -12.890625 C 40.398438 -15.171875 41.40625 -18.738281 41.40625 -23.59375 L 41.40625 -52.59375 L 53.421875 -52.59375 L 53.421875 -23.140625 C 53.421875 -15.429688 51.328125 -9.492188 47.140625 -5.328125 C 42.960938 -1.171875 37.117188 0.90625 29.609375 0.90625 Z M 29.609375 0.90625 "/></g></g></g><g fill="#d9d9d9" fill-opacity="1"><g transform="translate(104.745656, 258.735657)"><g><path d="M 23.515625 0.90625 C 19.359375 0.90625 15.335938 0.34375 11.453125 -0.78125 C 7.578125 -1.914062 4.460938 -3.382812 2.109375 -5.1875 L 6.234375 -14.359375 C 8.492188 -12.703125 11.175781 -11.367188 14.28125 -10.359375 C 17.382812 -9.359375 20.488281 -8.859375 23.59375 -8.859375 C 27.050781 -8.859375 29.601562 -9.375 31.25 -10.40625 C 32.90625 -11.4375 33.734375 -12.800781 33.734375 -14.5 C 33.734375 -15.75 33.242188 -16.785156 32.265625 -17.609375 C 31.296875 -18.441406 30.046875 -19.109375 28.515625 -19.609375 C 26.984375 -20.109375 24.914062 -20.660156 22.3125 -21.265625 C 18.3125 -22.210938 15.03125 -23.160156 12.46875 -24.109375 C 9.914062 -25.066406 7.722656 -26.597656 5.890625 -28.703125 C 4.066406 -30.804688 3.15625 -33.613281 3.15625 -37.125 C 3.15625 -40.175781 3.976562 -42.941406 5.625 -45.421875 C 7.28125 -47.898438 9.773438 -49.863281 13.109375 -51.3125 C 16.441406 -52.769531 20.515625 -53.5 25.328125 -53.5 C 28.679688 -53.5 31.957031 -53.097656 35.15625 -52.296875 C 38.363281 -51.492188 41.171875 -50.34375 43.578125 -48.84375 L 39.828125 -39.59375 C 34.960938 -42.351562 30.101562 -43.734375 25.25 -43.734375 C 21.84375 -43.734375 19.320312 -43.179688 17.6875 -42.078125 C 16.0625 -40.972656 15.25 -39.519531 15.25 -37.71875 C 15.25 -35.914062 16.1875 -34.578125 18.0625 -33.703125 C 19.945312 -32.828125 22.816406 -31.960938 26.671875 -31.109375 C 30.679688 -30.160156 33.960938 -29.207031 36.515625 -28.25 C 39.066406 -27.300781 41.253906 -25.796875 43.078125 -23.734375 C 44.910156 -21.679688 45.828125 -18.90625 45.828125 -15.40625 C 45.828125 -12.394531 44.988281 -9.648438 43.3125 -7.171875 C 41.632812 -4.691406 39.117188 -2.722656 35.765625 -1.265625 C 32.410156 0.179688 28.328125 0.90625 23.515625 0.90625 Z M 23.515625 0.90625 "/></g></g></g><g fill="#db5d06" fill-opacity="1"><g transform="translate(147.876661, 258.735657)"><g><path d="M 17.125 -42.6875 L 0.296875 -42.6875 L 0.296875 -52.59375 L 46.140625 -52.59375 L 46.140625 -42.6875 L 29.3125 -42.6875 L 29.3125 0 L 17.125 0 Z M 17.125 -42.6875 "/></g></g></g><g fill="#db5d06" fill-opacity="1"><g transform="translate(189.504411, 258.735657)"><g><path d="M 6.234375 -52.59375 L 18.40625 -52.59375 L 18.40625 0 L 6.234375 0 Z M 6.234375 -52.59375 "/></g></g></g><g fill="#db5d06" fill-opacity="1"><g transform="translate(209.341374, 258.735657)"><g><path d="M 54.484375 -52.59375 L 54.484375 0 L 44.484375 0 L 18.265625 -31.9375 L 18.265625 0 L 6.234375 0 L 6.234375 -52.59375 L 16.3125 -52.59375 L 42.453125 -20.65625 L 42.453125 -52.59375 Z M 54.484375 -52.59375 "/></g></g></g><g fill="#d9d9d9" fill-opacity="1"><g transform="translate(265.251653, 258.735657)"><g/></g></g></svg>