<svg xmlns="http://www.w3.org/2000/svg" xmlns:xlink="http://www.w3.org/1999/xlink" zoomAndPan="magnify" preserveAspectRatio="xMidYMid meet" version="1.0" viewBox="37.49 63.81 300.02 244.98"><defs><g/><clipPath id="f4cc76a2db"><path d="M 37.5 63.808594 L 174 63.808594 L 174 246.808594 L 37.5 246.808594 Z M 37.5 63.808594 " clip-rule="nonzero"/></clipPath><clipPath id="bfcbbf9a33"><path d="M 110 63.808594 L 337.5 63.808594 L 337.5 246.808594 L 110 246.808594 Z M 110 63.808594 " clip-rule="nonzero"/></clipPath></defs><g clip-path="url(#f4cc76a2db)"><path fill="#342e30" d="M 140.636719 151.726562 L 173.398438 151.726562 L 140.632812 63.878906 L 105.550781 63.878906 L 73.578125 149.609375 L 37.492188 246.363281 L 70.25 246.363281 L 106.335938 149.609375 L 123.09375 104.679688 L 140.636719 151.726562 " fill-opacity="1" fill-rule="nonzero"/></g><g clip-path="url(#bfcbbf9a33)"><path fill="#893800" d="M 246.261719 63.878906 L 160.464844 63.878906 L 209.546875 195.480469 L 242.304688 195.480469 L 204.671875 94.570312 L 246.261719 94.570312 C 279.703125 94.570312 306.816406 121.679688 306.816406 155.121094 C 306.816406 188.5625 279.703125 215.671875 246.261719 215.671875 L 197.246094 215.671875 L 188.335938 191.773438 L 188.332031 191.773438 L 180.929688 171.929688 L 120.875 171.929688 L 110.605469 202.621094 L 159.621094 202.621094 L 175.933594 246.363281 L 247.765625 246.363281 L 247.757812 246.347656 C 297.460938 245.546875 337.507812 205.015625 337.507812 155.121094 C 337.507812 104.726562 296.65625 63.878906 246.261719 63.878906 " fill-opacity="1" fill-rule="nonzero"/></g><g fill="#545454" fill-opacity="1"><g transform="translate(50.025936, 280.036982)"><g><path d="M 16.578125 -4.5625 L 6.671875 -4.5625 L 4.78125 0 L -0.28125 0 L 9.234375 -21.328125 L 14.109375 -21.328125 L 23.640625 0 L 18.46875 0 Z M 15.015625 -8.3125 L 11.640625 -16.484375 L 8.25 -8.3125 Z M 15.015625 -8.3125 "/></g></g></g><g fill="#545454" fill-opacity="1"><g transform="translate(71.403072, 280.036982)"><g><path d="M 12 0.359375 C 8.957031 0.359375 6.585938 -0.476562 4.890625 -2.15625 C 3.191406 -3.84375 2.34375 -6.253906 2.34375 -9.390625 L 2.34375 -21.328125 L 7.28125 -21.328125 L 7.28125 -9.5625 C 7.28125 -5.75 8.863281 -3.84375 12.03125 -3.84375 C 13.570312 -3.84375 14.75 -4.300781 15.5625 -5.21875 C 16.375 -6.144531 16.78125 -7.59375 16.78125 -9.5625 L 16.78125 -21.328125 L 21.65625 -21.328125 L 21.65625 -9.390625 C 21.65625 -6.253906 20.804688 -3.84375 19.109375 -2.15625 C 17.421875 -0.476562 15.050781 0.359375 12 0.359375 Z M 12 0.359375 "/></g></g></g><g fill="#545454" fill-opacity="1"><g transform="translate(93.450171, 280.036982)"><g><path d="M 9.53125 0.359375 C 7.84375 0.359375 6.210938 0.132812 4.640625 -0.3125 C 3.066406 -0.769531 1.804688 -1.367188 0.859375 -2.109375 L 2.53125 -5.8125 C 3.445312 -5.144531 4.53125 -4.609375 5.78125 -4.203125 C 7.039062 -3.796875 8.300781 -3.59375 9.5625 -3.59375 C 10.96875 -3.59375 12.003906 -3.800781 12.671875 -4.21875 C 13.347656 -4.632812 13.6875 -5.1875 13.6875 -5.875 C 13.6875 -6.382812 13.484375 -6.804688 13.078125 -7.140625 C 12.679688 -7.472656 12.175781 -7.738281 11.5625 -7.9375 C 10.945312 -8.144531 10.109375 -8.375 9.046875 -8.625 C 7.421875 -9.007812 6.085938 -9.394531 5.046875 -9.78125 C 4.015625 -10.164062 3.128906 -10.785156 2.390625 -11.640625 C 1.648438 -12.492188 1.28125 -13.628906 1.28125 -15.046875 C 1.28125 -16.285156 1.613281 -17.40625 2.28125 -18.40625 C 2.957031 -19.414062 3.96875 -20.210938 5.3125 -20.796875 C 6.664062 -21.390625 8.316406 -21.6875 10.265625 -21.6875 C 11.628906 -21.6875 12.957031 -21.523438 14.25 -21.203125 C 15.550781 -20.878906 16.691406 -20.410156 17.671875 -19.796875 L 16.140625 -16.0625 C 14.171875 -17.175781 12.203125 -17.734375 10.234375 -17.734375 C 8.859375 -17.734375 7.835938 -17.507812 7.171875 -17.0625 C 6.515625 -16.613281 6.1875 -16.023438 6.1875 -15.296875 C 6.1875 -14.566406 6.566406 -14.019531 7.328125 -13.65625 C 8.085938 -13.300781 9.25 -12.953125 10.8125 -12.609375 C 12.4375 -12.222656 13.765625 -11.835938 14.796875 -11.453125 C 15.835938 -11.066406 16.726562 -10.457031 17.46875 -9.625 C 18.207031 -8.789062 18.578125 -7.664062 18.578125 -6.25 C 18.578125 -5.03125 18.238281 -3.914062 17.5625 -2.90625 C 16.882812 -1.90625 15.863281 -1.109375 14.5 -0.515625 C 13.144531 0.0664062 11.488281 0.359375 9.53125 0.359375 Z M 9.53125 0.359375 "/></g></g></g><g fill="#893800" fill-opacity="1"><g transform="translate(110.932318, 280.036982)"><g><path d="M 6.953125 -17.3125 L 0.125 -17.3125 L 0.125 -21.328125 L 18.703125 -21.328125 L 18.703125 -17.3125 L 11.875 -17.3125 L 11.875 0 L 6.953125 0 Z M 6.953125 -17.3125 "/></g></g></g><g fill="#893800" fill-opacity="1"><g transform="translate(127.802395, 280.036982)"><g><path d="M 2.53125 -21.328125 L 7.46875 -21.328125 L 7.46875 0 L 2.53125 0 Z M 2.53125 -21.328125 "/></g></g></g><g fill="#893800" fill-opacity="1"><g transform="translate(135.84107, 280.036982)"><g><path d="M 22.09375 -21.328125 L 22.09375 0 L 18.03125 0 L 7.40625 -12.953125 L 7.40625 0 L 2.53125 0 L 2.53125 -21.328125 L 6.609375 -21.328125 L 17.21875 -8.375 L 17.21875 -21.328125 Z M 22.09375 -21.328125 "/></g></g></g><g fill="#893800" fill-opacity="1"><g transform="translate(158.49724, 280.036982)"><g/></g></g><g fill="#545454" fill-opacity="1"><g transform="translate(165.166835, 280.036982)"><g><path d="M 2.53125 -21.328125 L 12.21875 -21.328125 C 14.53125 -21.328125 16.570312 -20.882812 18.34375 -20 C 20.125 -19.113281 21.507812 -17.867188 22.5 -16.265625 C 23.488281 -14.660156 23.984375 -12.789062 23.984375 -10.65625 C 23.984375 -8.53125 23.488281 -6.664062 22.5 -5.0625 C 21.507812 -3.457031 20.125 -2.210938 18.34375 -1.328125 C 16.570312 -0.441406 14.53125 0 12.21875 0 L 2.53125 0 Z M 11.96875 -4.046875 C 14.101562 -4.046875 15.804688 -4.640625 17.078125 -5.828125 C 18.347656 -7.015625 18.984375 -8.625 18.984375 -10.65625 C 18.984375 -12.6875 18.347656 -14.296875 17.078125 -15.484375 C 15.804688 -16.679688 14.101562 -17.28125 11.96875 -17.28125 L 7.46875 -17.28125 L 7.46875 -4.046875 Z M 11.96875 -4.046875 "/></g></g></g><g fill="#545454" fill-opacity="1"><g transform="translate(188.371162, 280.036982)"><g><path d="M 19.046875 -3.953125 L 19.046875 0 L 2.53125 0 L 2.53125 -21.328125 L 18.640625 -21.328125 L 18.640625 -17.359375 L 7.4375 -17.359375 L 7.4375 -12.734375 L 17.34375 -12.734375 L 17.34375 -8.890625 L 7.4375 -8.890625 L 7.4375 -3.953125 Z M 19.046875 -3.953125 "/></g></g></g><g fill="#545454" fill-opacity="1"><g transform="translate(206.855243, 280.036982)"><g><path d="M 22.09375 -21.328125 L 22.09375 0 L 18.03125 0 L 7.40625 -12.953125 L 7.40625 0 L 2.53125 0 L 2.53125 -21.328125 L 6.609375 -21.328125 L 17.21875 -8.375 L 17.21875 -21.328125 Z M 22.09375 -21.328125 "/></g></g></g><g fill="#545454" fill-opacity="1"><g transform="translate(229.511413, 280.036982)"><g><path d="M 12.859375 0.359375 C 10.640625 0.359375 8.640625 -0.113281 6.859375 -1.0625 C 5.085938 -2.019531 3.695312 -3.335938 2.6875 -5.015625 C 1.6875 -6.691406 1.1875 -8.570312 1.1875 -10.65625 C 1.1875 -12.75 1.6875 -14.632812 2.6875 -16.3125 C 3.695312 -17.988281 5.085938 -19.300781 6.859375 -20.25 C 8.640625 -21.207031 10.640625 -21.6875 12.859375 -21.6875 C 15.066406 -21.6875 17.054688 -21.207031 18.828125 -20.25 C 20.597656 -19.300781 21.988281 -17.988281 23 -16.3125 C 24.019531 -14.632812 24.53125 -12.75 24.53125 -10.65625 C 24.53125 -8.570312 24.019531 -6.691406 23 -5.015625 C 21.988281 -3.335938 20.597656 -2.019531 18.828125 -1.0625 C 17.054688 -0.113281 15.066406 0.359375 12.859375 0.359375 Z M 12.859375 -3.84375 C 14.117188 -3.84375 15.253906 -4.128906 16.265625 -4.703125 C 17.285156 -5.285156 18.082031 -6.09375 18.65625 -7.125 C 19.238281 -8.164062 19.53125 -9.34375 19.53125 -10.65625 C 19.53125 -11.976562 19.238281 -13.15625 18.65625 -14.1875 C 18.082031 -15.226562 17.285156 -16.035156 16.265625 -16.609375 C 15.253906 -17.191406 14.117188 -17.484375 12.859375 -17.484375 C 11.597656 -17.484375 10.457031 -17.191406 9.4375 -16.609375 C 8.425781 -16.035156 7.628906 -15.226562 7.046875 -14.1875 C 6.472656 -13.15625 6.1875 -11.976562 6.1875 -10.65625 C 6.1875 -9.34375 6.472656 -8.164062 7.046875 -7.125 C 7.628906 -6.09375 8.425781 -5.285156 9.4375 -4.703125 C 10.457031 -4.128906 11.597656 -3.84375 12.859375 -3.84375 Z M 12.859375 -3.84375 "/></g></g></g><g fill="#893800" fill-opacity="1"><g transform="translate(253.265511, 280.036982)"><g><path d="M 7.46875 -17.359375 L 7.46875 -11.734375 L 17.34375 -11.734375 L 17.34375 -7.765625 L 7.46875 -7.765625 L 7.46875 0 L 2.53125 0 L 2.53125 -21.328125 L 18.640625 -21.328125 L 18.640625 -17.359375 Z M 7.46875 -17.359375 "/></g></g></g><g fill="#893800" fill-opacity="1"><g transform="translate(270.775093, 280.036982)"><g><path d="M 16.125 0 L 12 -5.9375 L 7.46875 -5.9375 L 7.46875 0 L 2.53125 0 L 2.53125 -21.328125 L 11.765625 -21.328125 C 13.648438 -21.328125 15.285156 -21.007812 16.671875 -20.375 C 18.066406 -19.75 19.140625 -18.859375 19.890625 -17.703125 C 20.640625 -16.546875 21.015625 -15.175781 21.015625 -13.59375 C 21.015625 -12.007812 20.632812 -10.640625 19.875 -9.484375 C 19.113281 -8.335938 18.035156 -7.460938 16.640625 -6.859375 L 21.421875 0 Z M 16.03125 -13.59375 C 16.03125 -14.789062 15.640625 -15.707031 14.859375 -16.34375 C 14.085938 -16.988281 12.960938 -17.3125 11.484375 -17.3125 L 7.46875 -17.3125 L 7.46875 -9.875 L 11.484375 -9.875 C 12.960938 -9.875 14.085938 -10.195312 14.859375 -10.84375 C 15.640625 -11.5 16.03125 -12.414062 16.03125 -13.59375 Z M 16.03125 -13.59375 "/></g></g></g><g fill="#893800" fill-opacity="1"><g transform="translate(291.208175, 280.036982)"><g><path d="M 2.53125 -21.328125 L 7.46875 -21.328125 L 7.46875 0 L 2.53125 0 Z M 2.53125 -21.328125 "/></g></g></g><g fill="#893800" fill-opacity="1"><g transform="translate(299.246849, 280.036982)"><g><path d="M 12.859375 0.359375 C 10.640625 0.359375 8.640625 -0.113281 6.859375 -1.0625 C 5.085938 -2.019531 3.695312 -3.335938 2.6875 -5.015625 C 1.6875 -6.691406 1.1875 -8.570312 1.1875 -10.65625 C 1.1875 -12.75 1.6875 -14.632812 2.6875 -16.3125 C 3.695312 -17.988281 5.085938 -19.300781 6.859375 -20.25 C 8.640625 -21.207031 10.640625 -21.6875 12.859375 -21.6875 C 15.066406 -21.6875 17.054688 -21.207031 18.828125 -20.25 C 20.597656 -19.300781 21.988281 -17.988281 23 -16.3125 C 24.019531 -14.632812 24.53125 -12.75 24.53125 -10.65625 C 24.53125 -8.570312 24.019531 -6.691406 23 -5.015625 C 21.988281 -3.335938 20.597656 -2.019531 18.828125 -1.0625 C 17.054688 -0.113281 15.066406 0.359375 12.859375 0.359375 Z M 12.859375 -3.84375 C 14.117188 -3.84375 15.253906 -4.128906 16.265625 -4.703125 C 17.285156 -5.285156 18.082031 -6.09375 18.65625 -7.125 C 19.238281 -8.164062 19.53125 -9.34375 19.53125 -10.65625 C 19.53125 -11.976562 19.238281 -13.15625 18.65625 -14.1875 C 18.082031 -15.226562 17.285156 -16.035156 16.265625 -16.609375 C 15.253906 -17.191406 14.117188 -17.484375 12.859375 -17.484375 C 11.597656 -17.484375 10.457031 -17.191406 9.4375 -16.609375 C 8.425781 -16.035156 7.628906 -15.226562 7.046875 -14.1875 C 6.472656 -13.15625 6.1875 -11.976562 6.1875 -10.65625 C 6.1875 -9.34375 6.472656 -8.164062 7.046875 -7.125 C 7.628906 -6.09375 8.425781 -5.285156 9.4375 -4.703125 C 10.457031 -4.128906 11.597656 -3.84375 12.859375 -3.84375 Z M 12.859375 -3.84375 "/></g></g></g><g fill="#545454" fill-opacity="1"><g transform="translate(61.182555, 303.225449)"><g><path d="M 7.375 0.328125 C 6.132812 0.328125 4.976562 0.09375 3.90625 -0.375 C 2.84375 -0.84375 1.921875 -1.488281 1.140625 -2.3125 L 2.5 -3.875 C 3.132812 -3.207031 3.878906 -2.671875 4.734375 -2.265625 C 5.597656 -1.859375 6.488281 -1.65625 7.40625 -1.65625 C 8.582031 -1.65625 9.492188 -1.921875 10.140625 -2.453125 C 10.796875 -2.984375 11.125 -3.6875 11.125 -4.5625 C 11.125 -5.007812 11.046875 -5.390625 10.890625 -5.703125 C 10.742188 -6.023438 10.535156 -6.296875 10.265625 -6.515625 C 10.003906 -6.742188 9.691406 -6.945312 9.328125 -7.125 C 8.972656 -7.3125 8.585938 -7.503906 8.171875 -7.703125 L 5.625 -8.828125 C 5.207031 -9.003906 4.78125 -9.21875 4.34375 -9.46875 C 3.90625 -9.726562 3.515625 -10.035156 3.171875 -10.390625 C 2.828125 -10.753906 2.546875 -11.1875 2.328125 -11.6875 C 2.117188 -12.1875 2.015625 -12.757812 2.015625 -13.40625 C 2.015625 -14.070312 2.148438 -14.695312 2.421875 -15.28125 C 2.703125 -15.863281 3.09375 -16.363281 3.59375 -16.78125 C 4.09375 -17.207031 4.679688 -17.535156 5.359375 -17.765625 C 6.035156 -18.003906 6.78125 -18.125 7.59375 -18.125 C 8.664062 -18.125 9.65625 -17.921875 10.5625 -17.515625 C 11.46875 -17.109375 12.234375 -16.582031 12.859375 -15.9375 L 11.640625 -14.46875 C 11.097656 -14.988281 10.492188 -15.398438 9.828125 -15.703125 C 9.171875 -16.003906 8.425781 -16.15625 7.59375 -16.15625 C 6.601562 -16.15625 5.800781 -15.921875 5.1875 -15.453125 C 4.582031 -14.992188 4.28125 -14.359375 4.28125 -13.546875 C 4.28125 -13.109375 4.363281 -12.738281 4.53125 -12.4375 C 4.707031 -12.144531 4.941406 -11.882812 5.234375 -11.65625 C 5.523438 -11.425781 5.84375 -11.222656 6.1875 -11.046875 C 6.53125 -10.878906 6.882812 -10.722656 7.25 -10.578125 L 9.765625 -9.5 C 10.273438 -9.28125 10.753906 -9.03125 11.203125 -8.75 C 11.660156 -8.46875 12.050781 -8.140625 12.375 -7.765625 C 12.695312 -7.398438 12.953125 -6.96875 13.140625 -6.46875 C 13.335938 -5.976562 13.4375 -5.40625 13.4375 -4.75 C 13.4375 -4.039062 13.296875 -3.378906 13.015625 -2.765625 C 12.734375 -2.148438 12.328125 -1.613281 11.796875 -1.15625 C 11.273438 -0.695312 10.644531 -0.332031 9.90625 -0.0625 C 9.164062 0.195312 8.320312 0.328125 7.375 0.328125 Z M 7.375 0.328125 "/></g></g></g><g fill="#545454" fill-opacity="1"><g transform="translate(76.271653, 303.225449)"><g><path d="M 7.359375 0.328125 C 6.546875 0.328125 5.769531 0.175781 5.03125 -0.125 C 4.300781 -0.4375 3.65625 -0.882812 3.09375 -1.46875 C 2.53125 -2.0625 2.082031 -2.785156 1.75 -3.640625 C 1.414062 -4.503906 1.25 -5.476562 1.25 -6.5625 C 1.25 -7.664062 1.414062 -8.644531 1.75 -9.5 C 2.082031 -10.363281 2.53125 -11.09375 3.09375 -11.6875 C 3.65625 -12.289062 4.300781 -12.742188 5.03125 -13.046875 C 5.769531 -13.359375 6.546875 -13.515625 7.359375 -13.515625 C 8.171875 -13.515625 8.941406 -13.359375 9.671875 -13.046875 C 10.410156 -12.742188 11.054688 -12.289062 11.609375 -11.6875 C 12.171875 -11.09375 12.617188 -10.363281 12.953125 -9.5 C 13.296875 -8.644531 13.46875 -7.664062 13.46875 -6.5625 C 13.46875 -5.476562 13.296875 -4.503906 12.953125 -3.640625 C 12.617188 -2.785156 12.171875 -2.0625 11.609375 -1.46875 C 11.054688 -0.882812 10.410156 -0.4375 9.671875 -0.125 C 8.941406 0.175781 8.171875 0.328125 7.359375 0.328125 Z M 7.359375 -1.515625 C 7.921875 -1.515625 8.4375 -1.632812 8.90625 -1.875 C 9.375 -2.125 9.773438 -2.46875 10.109375 -2.90625 C 10.441406 -3.351562 10.695312 -3.882812 10.875 -4.5 C 11.0625 -5.113281 11.15625 -5.800781 11.15625 -6.5625 C 11.15625 -7.320312 11.0625 -8.015625 10.875 -8.640625 C 10.695312 -9.265625 10.441406 -9.800781 10.109375 -10.25 C 9.773438 -10.707031 9.375 -11.054688 8.90625 -11.296875 C 8.4375 -11.546875 7.921875 -11.671875 7.359375 -11.671875 C 6.796875 -11.671875 6.28125 -11.546875 5.8125 -11.296875 C 5.34375 -11.054688 4.9375 -10.707031 4.59375 -10.25 C 4.257812 -9.800781 4.003906 -9.265625 3.828125 -8.640625 C 3.648438 -8.015625 3.5625 -7.320312 3.5625 -6.5625 C 3.5625 -5.800781 3.648438 -5.113281 3.828125 -4.5 C 4.003906 -3.882812 4.257812 -3.351562 4.59375 -2.90625 C 4.9375 -2.46875 5.34375 -2.125 5.8125 -1.875 C 6.28125 -1.632812 6.796875 -1.515625 7.359375 -1.515625 Z M 7.359375 -1.515625 "/></g></g></g><g fill="#545454" fill-opacity="1"><g transform="translate(91.577855, 303.225449)"><g><path d="M 2.609375 0 L 2.609375 -11.375 L 0.8125 -11.375 L 0.8125 -13.046875 L 2.609375 -13.1875 L 2.609375 -15.28125 C 2.609375 -16.632812 2.921875 -17.703125 3.546875 -18.484375 C 4.171875 -19.265625 5.140625 -19.65625 6.453125 -19.65625 C 6.867188 -19.65625 7.265625 -19.613281 7.640625 -19.53125 C 8.015625 -19.445312 8.351562 -19.34375 8.65625 -19.21875 L 8.171875 -17.5 C 7.679688 -17.71875 7.179688 -17.828125 6.671875 -17.828125 C 5.441406 -17.828125 4.828125 -16.976562 4.828125 -15.28125 L 4.828125 -13.1875 L 7.625 -13.1875 L 7.625 -11.375 L 4.828125 -11.375 L 4.828125 0 Z M 2.609375 0 "/></g></g></g><g fill="#545454" fill-opacity="1"><g transform="translate(100.099501, 303.225449)"><g><path d="M 6.375 0.328125 C 5.664062 0.328125 5.070312 0.21875 4.59375 0 C 4.113281 -0.21875 3.722656 -0.515625 3.421875 -0.890625 C 3.128906 -1.273438 2.921875 -1.738281 2.796875 -2.28125 C 2.671875 -2.820312 2.609375 -3.421875 2.609375 -4.078125 L 2.609375 -11.375 L 0.65625 -11.375 L 0.65625 -13.046875 L 2.71875 -13.1875 L 2.984375 -16.875 L 4.859375 -16.875 L 4.859375 -13.1875 L 8.40625 -13.1875 L 8.40625 -11.375 L 4.859375 -11.375 L 4.859375 -4.046875 C 4.859375 -3.234375 5.003906 -2.601562 5.296875 -2.15625 C 5.597656 -1.71875 6.128906 -1.5 6.890625 -1.5 C 7.128906 -1.5 7.382812 -1.53125 7.65625 -1.59375 C 7.925781 -1.664062 8.171875 -1.75 8.390625 -1.84375 L 8.828125 -0.15625 C 8.460938 -0.03125 8.066406 0.078125 7.640625 0.171875 C 7.210938 0.273438 6.789062 0.328125 6.375 0.328125 Z M 6.375 0.328125 "/></g></g></g><g fill="#545454" fill-opacity="1"><g transform="translate(109.869505, 303.225449)"><g><path d="M 4.3125 0 L 0.65625 -13.1875 L 2.9375 -13.1875 L 4.890625 -5.5625 C 5.035156 -4.925781 5.171875 -4.3125 5.296875 -3.71875 C 5.421875 -3.125 5.546875 -2.519531 5.671875 -1.90625 L 5.78125 -1.90625 C 5.925781 -2.519531 6.070312 -3.128906 6.21875 -3.734375 C 6.363281 -4.335938 6.515625 -4.945312 6.671875 -5.5625 L 8.71875 -13.1875 L 10.890625 -13.1875 L 12.953125 -5.5625 C 13.109375 -4.925781 13.265625 -4.3125 13.421875 -3.71875 C 13.578125 -3.125 13.726562 -2.519531 13.875 -1.90625 L 13.984375 -1.90625 C 14.117188 -2.519531 14.25 -3.125 14.375 -3.71875 C 14.507812 -4.3125 14.648438 -4.925781 14.796875 -5.5625 L 16.71875 -13.1875 L 18.828125 -13.1875 L 15.3125 0 L 12.59375 0 L 10.6875 -7.078125 C 10.53125 -7.710938 10.382812 -8.335938 10.25 -8.953125 C 10.113281 -9.566406 9.960938 -10.210938 9.796875 -10.890625 L 9.6875 -10.890625 C 9.539062 -10.210938 9.394531 -9.5625 9.25 -8.9375 C 9.101562 -8.3125 8.941406 -7.6875 8.765625 -7.0625 L 6.921875 0 Z M 4.3125 0 "/></g></g></g><g fill="#545454" fill-opacity="1"><g transform="translate(129.95202, 303.225449)"><g><path d="M 5.265625 0.328125 C 4.160156 0.328125 3.238281 0.00390625 2.5 -0.640625 C 1.769531 -1.296875 1.40625 -2.222656 1.40625 -3.421875 C 1.40625 -4.867188 2.046875 -5.972656 3.328125 -6.734375 C 4.617188 -7.503906 6.675781 -8.046875 9.5 -8.359375 C 9.5 -8.773438 9.457031 -9.179688 9.375 -9.578125 C 9.289062 -9.972656 9.148438 -10.320312 8.953125 -10.625 C 8.753906 -10.9375 8.476562 -11.1875 8.125 -11.375 C 7.769531 -11.570312 7.320312 -11.671875 6.78125 -11.671875 C 6.019531 -11.671875 5.304688 -11.523438 4.640625 -11.234375 C 3.972656 -10.941406 3.375 -10.617188 2.84375 -10.265625 L 1.984375 -11.8125 C 2.597656 -12.207031 3.347656 -12.585938 4.234375 -12.953125 C 5.117188 -13.328125 6.097656 -13.515625 7.171875 -13.515625 C 8.773438 -13.515625 9.9375 -13.019531 10.65625 -12.03125 C 11.382812 -11.050781 11.75 -9.738281 11.75 -8.09375 L 11.75 0 L 9.90625 0 L 9.71875 -1.578125 L 9.640625 -1.578125 C 9.003906 -1.046875 8.320312 -0.59375 7.59375 -0.21875 C 6.875 0.144531 6.097656 0.328125 5.265625 0.328125 Z M 5.921875 -1.46875 C 6.546875 -1.46875 7.140625 -1.613281 7.703125 -1.90625 C 8.265625 -2.207031 8.863281 -2.648438 9.5 -3.234375 L 9.5 -6.890625 C 8.394531 -6.742188 7.46875 -6.570312 6.71875 -6.375 C 5.96875 -6.175781 5.359375 -5.941406 4.890625 -5.671875 C 4.429688 -5.398438 4.097656 -5.085938 3.890625 -4.734375 C 3.679688 -4.378906 3.578125 -3.992188 3.578125 -3.578125 C 3.578125 -2.816406 3.800781 -2.273438 4.25 -1.953125 C 4.707031 -1.628906 5.265625 -1.46875 5.921875 -1.46875 Z M 5.921875 -1.46875 "/></g></g></g><g fill="#545454" fill-opacity="1"><g transform="translate(144.226968, 303.225449)"><g><path d="M 2.21875 0 L 2.21875 -13.1875 L 4.078125 -13.1875 L 4.265625 -10.796875 L 4.34375 -10.796875 C 4.789062 -11.628906 5.335938 -12.289062 5.984375 -12.78125 C 6.628906 -13.269531 7.332031 -13.515625 8.09375 -13.515625 C 8.613281 -13.515625 9.082031 -13.425781 9.5 -13.25 L 9.0625 -11.296875 C 8.84375 -11.367188 8.644531 -11.421875 8.46875 -11.453125 C 8.289062 -11.484375 8.066406 -11.5 7.796875 -11.5 C 7.234375 -11.5 6.644531 -11.273438 6.03125 -10.828125 C 5.425781 -10.378906 4.898438 -9.59375 4.453125 -8.46875 L 4.453125 0 Z M 2.21875 0 "/></g></g></g><g fill="#545454" fill-opacity="1"><g transform="translate(154.241223, 303.225449)"><g><path d="M 7.578125 0.328125 C 6.691406 0.328125 5.863281 0.171875 5.09375 -0.140625 C 4.320312 -0.460938 3.648438 -0.914062 3.078125 -1.5 C 2.503906 -2.09375 2.054688 -2.8125 1.734375 -3.65625 C 1.410156 -4.507812 1.25 -5.476562 1.25 -6.5625 C 1.25 -7.65625 1.414062 -8.628906 1.75 -9.484375 C 2.082031 -10.347656 2.523438 -11.078125 3.078125 -11.671875 C 3.628906 -12.265625 4.257812 -12.71875 4.96875 -13.03125 C 5.675781 -13.351562 6.410156 -13.515625 7.171875 -13.515625 C 7.992188 -13.515625 8.734375 -13.367188 9.390625 -13.078125 C 10.054688 -12.785156 10.609375 -12.367188 11.046875 -11.828125 C 11.492188 -11.285156 11.835938 -10.632812 12.078125 -9.875 C 12.316406 -9.113281 12.4375 -8.265625 12.4375 -7.328125 C 12.4375 -7.085938 12.429688 -6.851562 12.421875 -6.625 C 12.410156 -6.40625 12.382812 -6.210938 12.34375 -6.046875 L 3.453125 -6.046875 C 3.535156 -4.640625 3.96875 -3.523438 4.75 -2.703125 C 5.539062 -1.878906 6.570312 -1.46875 7.84375 -1.46875 C 8.476562 -1.46875 9.0625 -1.5625 9.59375 -1.75 C 10.125 -1.9375 10.632812 -2.1875 11.125 -2.5 L 11.921875 -1.03125 C 11.335938 -0.664062 10.691406 -0.347656 9.984375 -0.078125 C 9.273438 0.191406 8.472656 0.328125 7.578125 0.328125 Z M 3.421875 -7.65625 L 10.46875 -7.65625 C 10.46875 -8.988281 10.179688 -10.003906 9.609375 -10.703125 C 9.046875 -11.398438 8.25 -11.75 7.21875 -11.75 C 6.75 -11.75 6.300781 -11.65625 5.875 -11.46875 C 5.445312 -11.289062 5.0625 -11.023438 4.71875 -10.671875 C 4.375 -10.328125 4.085938 -9.898438 3.859375 -9.390625 C 3.640625 -8.878906 3.492188 -8.300781 3.421875 -7.65625 Z M 3.421875 -7.65625 "/></g></g></g><g fill="#545454" fill-opacity="1"><g transform="translate(168.299067, 303.225449)"><g/></g></g><g fill="#545454" fill-opacity="1"><g transform="translate(174.323998, 303.225449)"><g><path d="M 2.4375 0 L 2.4375 -17.796875 L 6.890625 -17.796875 C 9.640625 -17.796875 11.726562 -17.035156 13.15625 -15.515625 C 14.59375 -14.003906 15.3125 -11.828125 15.3125 -8.984375 C 15.3125 -7.566406 15.128906 -6.300781 14.765625 -5.1875 C 14.398438 -4.082031 13.863281 -3.144531 13.15625 -2.375 C 12.457031 -1.601562 11.59375 -1.015625 10.5625 -0.609375 C 9.53125 -0.203125 8.34375 0 7 0 Z M 4.703125 -1.84375 L 6.734375 -1.84375 C 8.816406 -1.84375 10.375 -2.46875 11.40625 -3.71875 C 12.445312 -4.96875 12.96875 -6.722656 12.96875 -8.984375 C 12.96875 -11.242188 12.445312 -12.96875 11.40625 -14.15625 C 10.375 -15.351562 8.816406 -15.953125 6.734375 -15.953125 L 4.703125 -15.953125 Z M 4.703125 -1.84375 "/></g></g></g><g fill="#545454" fill-opacity="1"><g transform="translate(191.611281, 303.225449)"><g><path d="M 7.578125 0.328125 C 6.691406 0.328125 5.863281 0.171875 5.09375 -0.140625 C 4.320312 -0.460938 3.648438 -0.914062 3.078125 -1.5 C 2.503906 -2.09375 2.054688 -2.8125 1.734375 -3.65625 C 1.410156 -4.507812 1.25 -5.476562 1.25 -6.5625 C 1.25 -7.65625 1.414062 -8.628906 1.75 -9.484375 C 2.082031 -10.347656 2.523438 -11.078125 3.078125 -11.671875 C 3.628906 -12.265625 4.257812 -12.71875 4.96875 -13.03125 C 5.675781 -13.351562 6.410156 -13.515625 7.171875 -13.515625 C 7.992188 -13.515625 8.734375 -13.367188 9.390625 -13.078125 C 10.054688 -12.785156 10.609375 -12.367188 11.046875 -11.828125 C 11.492188 -11.285156 11.835938 -10.632812 12.078125 -9.875 C 12.316406 -9.113281 12.4375 -8.265625 12.4375 -7.328125 C 12.4375 -7.085938 12.429688 -6.851562 12.421875 -6.625 C 12.410156 -6.40625 12.382812 -6.210938 12.34375 -6.046875 L 3.453125 -6.046875 C 3.535156 -4.640625 3.96875 -3.523438 4.75 -2.703125 C 5.539062 -1.878906 6.570312 -1.46875 7.84375 -1.46875 C 8.476562 -1.46875 9.0625 -1.5625 9.59375 -1.75 C 10.125 -1.9375 10.632812 -2.1875 11.125 -2.5 L 11.921875 -1.03125 C 11.335938 -0.664062 10.691406 -0.347656 9.984375 -0.078125 C 9.273438 0.191406 8.472656 0.328125 7.578125 0.328125 Z M 3.421875 -7.65625 L 10.46875 -7.65625 C 10.46875 -8.988281 10.179688 -10.003906 9.609375 -10.703125 C 9.046875 -11.398438 8.25 -11.75 7.21875 -11.75 C 6.75 -11.75 6.300781 -11.65625 5.875 -11.46875 C 5.445312 -11.289062 5.0625 -11.023438 4.71875 -10.671875 C 4.375 -10.328125 4.085938 -9.898438 3.859375 -9.390625 C 3.640625 -8.878906 3.492188 -8.300781 3.421875 -7.65625 Z M 3.421875 -7.65625 "/></g></g></g><g fill="#545454" fill-opacity="1"><g transform="translate(205.669132, 303.225449)"><g><path d="M 5.078125 0 L 0.328125 -13.1875 L 2.625 -13.1875 L 5.125 -5.703125 C 5.320312 -5.046875 5.523438 -4.390625 5.734375 -3.734375 C 5.941406 -3.085938 6.144531 -2.445312 6.34375 -1.8125 L 6.453125 -1.8125 C 6.660156 -2.445312 6.863281 -3.085938 7.0625 -3.734375 C 7.257812 -4.390625 7.457031 -5.046875 7.65625 -5.703125 L 10.15625 -13.1875 L 12.34375 -13.1875 L 7.6875 0 Z M 5.078125 0 "/></g></g></g><g fill="#545454" fill-opacity="1"><g transform="translate(218.939952, 303.225449)"><g><path d="M 7.578125 0.328125 C 6.691406 0.328125 5.863281 0.171875 5.09375 -0.140625 C 4.320312 -0.460938 3.648438 -0.914062 3.078125 -1.5 C 2.503906 -2.09375 2.054688 -2.8125 1.734375 -3.65625 C 1.410156 -4.507812 1.25 -5.476562 1.25 -6.5625 C 1.25 -7.65625 1.414062 -8.628906 1.75 -9.484375 C 2.082031 -10.347656 2.523438 -11.078125 3.078125 -11.671875 C 3.628906 -12.265625 4.257812 -12.71875 4.96875 -13.03125 C 5.675781 -13.351562 6.410156 -13.515625 7.171875 -13.515625 C 7.992188 -13.515625 8.734375 -13.367188 9.390625 -13.078125 C 10.054688 -12.785156 10.609375 -12.367188 11.046875 -11.828125 C 11.492188 -11.285156 11.835938 -10.632812 12.078125 -9.875 C 12.316406 -9.113281 12.4375 -8.265625 12.4375 -7.328125 C 12.4375 -7.085938 12.429688 -6.851562 12.421875 -6.625 C 12.410156 -6.40625 12.382812 -6.210938 12.34375 -6.046875 L 3.453125 -6.046875 C 3.535156 -4.640625 3.96875 -3.523438 4.75 -2.703125 C 5.539062 -1.878906 6.570312 -1.46875 7.84375 -1.46875 C 8.476562 -1.46875 9.0625 -1.5625 9.59375 -1.75 C 10.125 -1.9375 10.632812 -2.1875 11.125 -2.5 L 11.921875 -1.03125 C 11.335938 -0.664062 10.691406 -0.347656 9.984375 -0.078125 C 9.273438 0.191406 8.472656 0.328125 7.578125 0.328125 Z M 3.421875 -7.65625 L 10.46875 -7.65625 C 10.46875 -8.988281 10.179688 -10.003906 9.609375 -10.703125 C 9.046875 -11.398438 8.25 -11.75 7.21875 -11.75 C 6.75 -11.75 6.300781 -11.65625 5.875 -11.46875 C 5.445312 -11.289062 5.0625 -11.023438 4.71875 -10.671875 C 4.375 -10.328125 4.085938 -9.898438 3.859375 -9.390625 C 3.640625 -8.878906 3.492188 -8.300781 3.421875 -7.65625 Z M 3.421875 -7.65625 "/></g></g></g><g fill="#545454" fill-opacity="1"><g transform="translate(232.997789, 303.225449)"><g><path d="M 4.59375 0.328125 C 3.738281 0.328125 3.128906 0.078125 2.765625 -0.421875 C 2.398438 -0.929688 2.21875 -1.675781 2.21875 -2.65625 L 2.21875 -19.328125 L 4.453125 -19.328125 L 4.453125 -2.5 C 4.453125 -2.132812 4.515625 -1.878906 4.640625 -1.734375 C 4.765625 -1.585938 4.910156 -1.515625 5.078125 -1.515625 C 5.148438 -1.515625 5.21875 -1.515625 5.28125 -1.515625 C 5.34375 -1.515625 5.4375 -1.535156 5.5625 -1.578125 L 5.859375 0.109375 C 5.710938 0.179688 5.539062 0.234375 5.34375 0.265625 C 5.144531 0.304688 4.894531 0.328125 4.59375 0.328125 Z M 4.59375 0.328125 "/></g></g></g><g fill="#545454" fill-opacity="1"><g transform="translate(240.515321, 303.225449)"><g><path d="M 7.359375 0.328125 C 6.546875 0.328125 5.769531 0.175781 5.03125 -0.125 C 4.300781 -0.4375 3.65625 -0.882812 3.09375 -1.46875 C 2.53125 -2.0625 2.082031 -2.785156 1.75 -3.640625 C 1.414062 -4.503906 1.25 -5.476562 1.25 -6.5625 C 1.25 -7.664062 1.414062 -8.644531 1.75 -9.5 C 2.082031 -10.363281 2.53125 -11.09375 3.09375 -11.6875 C 3.65625 -12.289062 4.300781 -12.742188 5.03125 -13.046875 C 5.769531 -13.359375 6.546875 -13.515625 7.359375 -13.515625 C 8.171875 -13.515625 8.941406 -13.359375 9.671875 -13.046875 C 10.410156 -12.742188 11.054688 -12.289062 11.609375 -11.6875 C 12.171875 -11.09375 12.617188 -10.363281 12.953125 -9.5 C 13.296875 -8.644531 13.46875 -7.664062 13.46875 -6.5625 C 13.46875 -5.476562 13.296875 -4.503906 12.953125 -3.640625 C 12.617188 -2.785156 12.171875 -2.0625 11.609375 -1.46875 C 11.054688 -0.882812 10.410156 -0.4375 9.671875 -0.125 C 8.941406 0.175781 8.171875 0.328125 7.359375 0.328125 Z M 7.359375 -1.515625 C 7.921875 -1.515625 8.4375 -1.632812 8.90625 -1.875 C 9.375 -2.125 9.773438 -2.46875 10.109375 -2.90625 C 10.441406 -3.351562 10.695312 -3.882812 10.875 -4.5 C 11.0625 -5.113281 11.15625 -5.800781 11.15625 -6.5625 C 11.15625 -7.320312 11.0625 -8.015625 10.875 -8.640625 C 10.695312 -9.265625 10.441406 -9.800781 10.109375 -10.25 C 9.773438 -10.707031 9.375 -11.054688 8.90625 -11.296875 C 8.4375 -11.546875 7.921875 -11.671875 7.359375 -11.671875 C 6.796875 -11.671875 6.28125 -11.546875 5.8125 -11.296875 C 5.34375 -11.054688 4.9375 -10.707031 4.59375 -10.25 C 4.257812 -9.800781 4.003906 -9.265625 3.828125 -8.640625 C 3.648438 -8.015625 3.5625 -7.320312 3.5625 -6.5625 C 3.5625 -5.800781 3.648438 -5.113281 3.828125 -4.5 C 4.003906 -3.882812 4.257812 -3.351562 4.59375 -2.90625 C 4.9375 -2.46875 5.34375 -2.125 5.8125 -1.875 C 6.28125 -1.632812 6.796875 -1.515625 7.359375 -1.515625 Z M 7.359375 -1.515625 "/></g></g></g><g fill="#545454" fill-opacity="1"><g transform="translate(255.821516, 303.225449)"><g><path d="M 2.21875 5.5625 L 2.21875 -13.1875 L 4.078125 -13.1875 L 4.265625 -11.671875 L 4.34375 -11.671875 C 4.9375 -12.179688 5.585938 -12.613281 6.296875 -12.96875 C 7.015625 -13.332031 7.765625 -13.515625 8.546875 -13.515625 C 9.398438 -13.515625 10.148438 -13.351562 10.796875 -13.03125 C 11.453125 -12.71875 11.992188 -12.265625 12.421875 -11.671875 C 12.859375 -11.085938 13.191406 -10.382812 13.421875 -9.5625 C 13.648438 -8.738281 13.765625 -7.8125 13.765625 -6.78125 C 13.765625 -5.664062 13.609375 -4.664062 13.296875 -3.78125 C 12.992188 -2.90625 12.578125 -2.160156 12.046875 -1.546875 C 11.523438 -0.929688 10.921875 -0.460938 10.234375 -0.140625 C 9.546875 0.171875 8.820312 0.328125 8.0625 0.328125 C 7.445312 0.328125 6.832031 0.191406 6.21875 -0.078125 C 5.613281 -0.347656 5.003906 -0.71875 4.390625 -1.1875 L 4.453125 1.109375 L 4.453125 5.5625 Z M 7.6875 -1.546875 C 8.226562 -1.546875 8.726562 -1.664062 9.1875 -1.90625 C 9.644531 -2.15625 10.039062 -2.5 10.375 -2.9375 C 10.71875 -3.382812 10.984375 -3.929688 11.171875 -4.578125 C 11.359375 -5.234375 11.453125 -5.96875 11.453125 -6.78125 C 11.453125 -7.507812 11.390625 -8.171875 11.265625 -8.765625 C 11.140625 -9.359375 10.9375 -9.867188 10.65625 -10.296875 C 10.375 -10.722656 10.007812 -11.050781 9.5625 -11.28125 C 9.125 -11.519531 8.597656 -11.640625 7.984375 -11.640625 C 7.421875 -11.640625 6.851562 -11.484375 6.28125 -11.171875 C 5.707031 -10.867188 5.097656 -10.429688 4.453125 -9.859375 L 4.453125 -2.9375 C 5.046875 -2.425781 5.625 -2.066406 6.1875 -1.859375 C 6.75 -1.648438 7.25 -1.546875 7.6875 -1.546875 Z M 7.6875 -1.546875 "/></g></g></g><g fill="#545454" fill-opacity="1"><g transform="translate(271.480521, 303.225449)"><g><path d="M 7.578125 0.328125 C 6.691406 0.328125 5.863281 0.171875 5.09375 -0.140625 C 4.320312 -0.460938 3.648438 -0.914062 3.078125 -1.5 C 2.503906 -2.09375 2.054688 -2.8125 1.734375 -3.65625 C 1.410156 -4.507812 1.25 -5.476562 1.25 -6.5625 C 1.25 -7.65625 1.414062 -8.628906 1.75 -9.484375 C 2.082031 -10.347656 2.523438 -11.078125 3.078125 -11.671875 C 3.628906 -12.265625 4.257812 -12.71875 4.96875 -13.03125 C 5.675781 -13.351562 6.410156 -13.515625 7.171875 -13.515625 C 7.992188 -13.515625 8.734375 -13.367188 9.390625 -13.078125 C 10.054688 -12.785156 10.609375 -12.367188 11.046875 -11.828125 C 11.492188 -11.285156 11.835938 -10.632812 12.078125 -9.875 C 12.316406 -9.113281 12.4375 -8.265625 12.4375 -7.328125 C 12.4375 -7.085938 12.429688 -6.851562 12.421875 -6.625 C 12.410156 -6.40625 12.382812 -6.210938 12.34375 -6.046875 L 3.453125 -6.046875 C 3.535156 -4.640625 3.96875 -3.523438 4.75 -2.703125 C 5.539062 -1.878906 6.570312 -1.46875 7.84375 -1.46875 C 8.476562 -1.46875 9.0625 -1.5625 9.59375 -1.75 C 10.125 -1.9375 10.632812 -2.1875 11.125 -2.5 L 11.921875 -1.03125 C 11.335938 -0.664062 10.691406 -0.347656 9.984375 -0.078125 C 9.273438 0.191406 8.472656 0.328125 7.578125 0.328125 Z M 3.421875 -7.65625 L 10.46875 -7.65625 C 10.46875 -8.988281 10.179688 -10.003906 9.609375 -10.703125 C 9.046875 -11.398438 8.25 -11.75 7.21875 -11.75 C 6.75 -11.75 6.300781 -11.65625 5.875 -11.46875 C 5.445312 -11.289062 5.0625 -11.023438 4.71875 -10.671875 C 4.375 -10.328125 4.085938 -9.898438 3.859375 -9.390625 C 3.640625 -8.878906 3.492188 -8.300781 3.421875 -7.65625 Z M 3.421875 -7.65625 "/></g></g></g><g fill="#545454" fill-opacity="1"><g transform="translate(285.538358, 303.225449)"><g><path d="M 2.21875 0 L 2.21875 -13.1875 L 4.078125 -13.1875 L 4.265625 -10.796875 L 4.34375 -10.796875 C 4.789062 -11.628906 5.335938 -12.289062 5.984375 -12.78125 C 6.628906 -13.269531 7.332031 -13.515625 8.09375 -13.515625 C 8.613281 -13.515625 9.082031 -13.425781 9.5 -13.25 L 9.0625 -11.296875 C 8.84375 -11.367188 8.644531 -11.421875 8.46875 -11.453125 C 8.289062 -11.484375 8.066406 -11.5 7.796875 -11.5 C 7.234375 -11.5 6.644531 -11.273438 6.03125 -10.828125 C 5.425781 -10.378906 4.898438 -9.59375 4.453125 -8.46875 L 4.453125 0 Z M 2.21875 0 "/></g></g></g></svg>